SplineFontDB: 3.0
FontName: Crimson-SemiboldItalic
FullName: Crimson Semibold Italic
FamilyName: Crimson
Weight: Semibold
Copyright: Created by Sebastian Kosch,,, with FontForge 2.0 (http://fontforge.sf.net)
UComments: "2011-10-23: Created." 
Version: 0.7
ItalicAngle: -11
UnderlinePosition: -100
UnderlineWidth: 50
Ascent: 717
Descent: 307
sfntRevision: 0x0000b333
LayerCount: 2
Layer: 0 0 "Back"  1
Layer: 1 0 "Fore"  0
NeedsXUIDChange: 1
XUID: [1021 732 1356305489 14544745]
FSType: 8
OS2Version: 0
OS2_WeightWidthSlopeOnly: 0
OS2_UseTypoMetrics: 1
CreationTime: 1319393633
ModificationTime: 1320368247
PfmFamily: 17
TTFWeight: 600
TTFWidth: 5
LineGap: 92
VLineGap: 0
OS2TypoAscent: 0
OS2TypoAOffset: 1
OS2TypoDescent: 0
OS2TypoDOffset: 1
OS2TypoLinegap: 92
OS2WinAscent: 0
OS2WinAOffset: 1
OS2WinDescent: 0
OS2WinDOffset: 1
HheadAscent: 0
HheadAOffset: 1
HheadDescent: 0
HheadDOffset: 1
OS2Vendor: 'PfEd'
MarkAttachClasses: 1
DEI: 91125
LangName: 1033 
Encoding: UnicodeBmp
Compacted: 1
UnicodeInterp: none
NameList: Adobe Glyph List
DisplaySize: -36
AntiAlias: 1
FitToEm: 1
WinInfo: 33 11 11
BeginChars: 65697 379

StartChar: exclam
Encoding: 33 33 0
Width: 229
VWidth: 512
Flags: W
HStem: -12.5 127<30.979 105.34>
VStem: 10 117.5<9.91402 93.6469> 120.5 104.5<499.583 616.616>
LayerCount: 2
Fore
SplineSet
10 48 m 1xc0
 13.5 85 45 114.5 81 114.5 c 27
 110 114.5 131 88.5 127.5 58 c 1
 124 20.5 94 -12.5 57.5 -12.5 c 27
 26.5 -12.5 6.5 16.5 10 48 c 1xc0
187 636.5 m 1
 212 636.5 229 613 225 581 c 1
 222.5 553.5 154 330.5 116.5 195.5 c 0
 111.5 178.5 93 169 84 169 c 1
 79 169 78 179.5 78 189 c 1
 79.5 224.5 105 476.5 120.5 576 c 0xa0
 126 606.5 154.5 636.5 187 636.5 c 1
EndSplineSet
Validated: 524321
EndChar

StartChar: quotedbl
Encoding: 34 34 1
Width: 332
VWidth: 512
Flags: W
HStem: 434 264<116.538 120.856 268.538 272.856>
VStem: 83.038 98<562.207 672.763> 235.038 98<562.207 672.763>
LayerCount: 2
Fore
SplineSet
305.038 698 m 27
 333.038 698 344.038 692 333.038 633 c 0
 322.038 577 290.038 516 271.038 449 c 0
 268.038 439 257.038 434 250.038 434 c 0
 243.038 434 234.038 439 235.038 447 c 0
 244.038 537 235.038 590 235.038 636 c 1
 238.038 654 268.538 698 305.038 698 c 27
153.038 698 m 27
 181.038 698 192.038 692 181.038 633 c 0
 170.038 577 138.038 516 119.038 449 c 0
 116.038 439 105.038 434 98.038 434 c 0
 91.038 434 82.038 439 83.038 447 c 0
 92.038 537 83.038 590 83.038 636 c 1
 86.038 654 116.538 698 153.038 698 c 27
EndSplineSet
Validated: 524321
EndChar

StartChar: numbersign
Encoding: 35 35 2
Width: 442
VWidth: 0
Flags: W
HStem: 174 58.5<17.9899 91.5 165 231.5 305 378.01> 315.5 58.5<65.9899 139 212.5 279 352.5 425.562>
LayerCount: 2
Fore
SplineSet
352.5 374 m 1
 352.5 374 413.5 374 428 374 c 0
 433 374 434 373.5 434 370.5 c 1
 434 354.5 419.5 315.5 410 315.5 c 1
 334.5 315.5 l 1
 305 232.5 l 1
 380 232.5 l 1
 384.5 232.5 386 231.5 386 228 c 1
 386 212 371.5 174 362 174 c 1
 286.5 174 l 1
 235.5 24.5 l 1
 235 22.5 229 17 201 17 c 0
 191.5 17 179 19 178 21 c 1
 179 25.5 204.5 98 204.5 99 c 0
 205 101 231.5 174 231.5 174 c 1
 146.5 174 l 1
 95.5 24.5 l 1
 95 22.5 89 17 61 17 c 0
 51.5 17 39 19 38 21 c 1
 39 25.5 64.5 98 64.5 99 c 0
 65 101 91.5 174 91.5 174 c 1
 16 174 l 1
 11.5 174 10 175 10 178.5 c 1
 10 194.5 24.5 232.5 34 232.5 c 1
 109.5 232.5 l 1
 139 315.5 l 1
 64 315.5 l 1
 59.5 315.5 58 316.5 58 320 c 1
 58 336 72.5 374 82 374 c 1
 157.5 374 l 1
 208.5 523.5 l 1
 209 525.5 217.5 531 245.5 531 c 0
 255 531 265 528 266 526 c 1
 265 522.5 239.5 450 239.5 449 c 0
 239 447 212.5 374 212.5 374 c 1
 297.5 374 l 1
 348.5 523.5 l 1
 349 525.5 357.5 531 385.5 531 c 0
 395 531 405 528 406 526 c 1
 405 522.5 379.5 450 379.5 449 c 0
 379 447 352.5 374 352.5 374 c 1
279 315.5 m 1
 194.5 315.5 l 1
 165 232.5 l 1
 249.5 232.5 l 1
 279 315.5 l 1
EndSplineSet
Validated: 524289
EndChar

StartChar: dollar
Encoding: 36 36 3
Width: 446
Flags: W
HStem: -9 39.5<146.342 237.417> 602.5 41<224.371 312.246>
VStem: 15.417 38<93.9758 182.306> 384.417 33<464.089 546.939>
LayerCount: 2
Fore
SplineSet
121.417 -58.5 m 17
 113.145 -58.4785 88.5239 -53.6114 90.3301 -46.4306 c 9
 332.534 683.427 l 17
 340.134 683.875 365.723 680.181 363.917 673 c 9
 121.417 -58.5 l 17
298.417 643.5 m 0
 348.417 643.5 398.917 626.5 435.917 618.5 c 1
 431.417 572.5 427.417 529 417.417 470.5 c 1
 414.417 464.5 411.917 463.5 407.917 463.5 c 0
 401.917 464 384.417 464.5 384.417 472.5 c 0
 386.917 516 362.417 602.5 289.917 602.5 c 0
 239.917 602.5 196.417 576.5 183.917 512 c 0
 171.417 448 225.417 404 276.417 365.5 c 0
 337.417 319.5 414.417 274 393.917 169 c 0
 373.417 63 265.417 -9 166.917 -9 c 0
 112.417 -9 51.917 5 8.917 15 c 1
 5.91699 53.5 10.417 137.5 15.417 172 c 1
 18.417 177.5 32.917 183 38.917 183 c 0
 46.417 183 52.417 179.5 53.417 175 c 1
 53.417 128.5 75.917 30.5 171.417 30.5 c 0
 221.917 30.5 276.417 61 289.917 132 c 0
 303.917 204.5 238.417 246 200.417 274.5 c 0
 125.917 327 62.917 373 81.917 471 c 0
 100.917 570 206.417 643.5 298.417 643.5 c 0
EndSplineSet
Validated: 524325
EndChar

StartChar: percent
Encoding: 37 37 4
Width: 656
VWidth: 512
Flags: W
HStem: -4.5 29<438.369 498.659> 285.5 28<475.057 534.808> 339.5 29<187.411 247.702> 629.5 28<224.099 283.85>
VStem: 89.5885 76.9115<384.306 543.959> 303.542 77.877<452.332 614.846> 340.547 76.911<40.3055 199.959> 554.5 77.878<108.332 270.846>
LayerCount: 2
Fore
SplineSet
510.432 285.5 m 5xfb
 451.807 285.5 414.906 184.5 417.458 109 c 5
 418.018 75.5 429.951 24.5 465.428 24.5 c 5
 524.053 24.5 556.878 129 554.5 202.5 c 5
 553.731 237 542.99 285.5 510.432 285.5 c 5xfb
518.216 313.5 m 5
 586.553 313.5 629.615 271 632.378 197.5 c 5
 635.699 102 546.91 -4.5 454.51 -4.5 c 5
 386.672 -4.5 342.784 44 340.547 110 c 5
 337.224 206.5 423.816 313.5 518.216 313.5 c 5
259.474 629.5 m 5
 200.849 629.5 163.948 528.5 166.5 453 c 5
 167.06 419.5 178.993 368.5 214.47 368.5 c 5
 273.096 368.5 305.92 473 303.542 546.5 c 5xfd
 302.773 581 292.031 629.5 259.474 629.5 c 5
267.258 657.5 m 5
 335.596 657.5 378.658 615 381.419 541.5 c 5
 384.741 446 295.952 339.5 203.552 339.5 c 5
 135.715 339.5 91.826 388 89.5885 454 c 5
 86.2665 550.5 172.858 657.5 267.258 657.5 c 5
635.636 634 m 5
 114.636 -7 l 5
 112.636 -9 87.6365 -9 80.6365 -3.5 c 5
 77.1365 -2.5 74.6365 0 74.1365 5 c 13
 595.636 647.5 l 5
 597.636 649.5 617.636 648.5 622.636 643 c 5
 628.636 642 634.136 639.5 635.636 634 c 5
EndSplineSet
Validated: 524321
EndChar

StartChar: ampersand
Encoding: 38 38 5
Width: 700
Flags: W
HStem: -5 41<318.229 483.08> 488.5 47.5<315.85 444.25>
VStem: -20.5 56<94 178.169> 118.091 105.409<135.453 324.268> 388 120.5<384.087 482.998> 427 36.5<129.437 184.195> 593 63<139.791 235.811> 720.5 59<437.141 517.212>
LayerCount: 2
Fore
SplineSet
421 536 m 27xf7
 467.5 536 508.5 500.5 508.5 454 c 27
 508.5 293.5 224.5 241.5 165.5 227 c 0
 96.0947 209.618 35.5 196 35.5 154.5 c 3
 35.5 137 45.5276 130.031 56 120.5 c 0
 66.7566 110.725 75.5 100.5 75.5 84.5 c 3
 75.5 53.5 53.5 36 26.5 36 c 27
 15 36 6.5 37.5 -2 41 c 1
 -14.5 56.5 -20.5 85.5 -20.5 102.5 c 0
 -20.5 169.5 21.5 221.5 97 245 c 0
 174.394 268.958 388 306.5 388 436 c 3xfb
 388 468 372.5 488.5 344 488.5 c 3
 276 488.5 223.5 374.5 223.5 251.5 c 3
 223.5 114.5 293 36 405 36 c 3
 497.5 36 593 99 593 192 c 0
 593 209 585.5 230 579.5 236 c 1
 527.5 218 463.5 191 463.5 147 c 3
 463.5 135 464.5 129.5 466.5 122 c 1
 462.5 120 450.5 123.5 444.5 129.5 c 1
 437.5 136.5 427 154.5 427 180.5 c 3
 427 240.5 468.585 263.679 549 305.5 c 0
 628.5 345.5 725 409.5 720.5 544 c 1
 729.5 545 738.5 540 743 537 c 1
 761 516 779.5 480 779.5 435.5 c 3
 779.5 353 719 296 649 262 c 1
 653 253.5 656 240 656 225 c 0
 656 97 517.5 -5 373.5 -5 c 0
 243.5 -5 118.091 63 118.091 219 c 3
 118.091 367 250 536 421 536 c 27xf7
EndSplineSet
Validated: 524325
EndChar

StartChar: quotesingle
Encoding: 39 39 6
Width: 180
VWidth: 512
Flags: W
HStem: 434 264<116.538 120.856>
VStem: 83.038 98<562.207 672.763>
LayerCount: 2
Fore
SplineSet
153.038 698 m 27
 181.038 698 192.038 692 181.038 633 c 0
 170.038 577 138.038 516 119.038 449 c 0
 116.038 439 105.038 434 98.038 434 c 0
 91.038 434 82.038 439 83.038 447 c 0
 92.038 537 83.038 590 83.038 636 c 1
 86.038 654 116.538 698 153.038 698 c 27
EndSplineSet
Validated: 524321
EndChar

StartChar: parenleft
Encoding: 40 40 7
Width: 241
VWidth: 0
Flags: W
LayerCount: 2
Fore
SplineSet
287.5 748 m 1
 199 676 5.5 474 31.5 177 c 0
 46.5 4 128.5 -99 193 -121 c 1
 198.5 -119 198.5 -112 198.5 -109 c 1
 143 -54 108.5 23 96.5 164 c 0
 74.5 418 227 664 295.5 735 c 1
 296 739 293 746 287.5 748 c 1
EndSplineSet
Validated: 524329
EndChar

StartChar: parenright
Encoding: 41 41 8
Width: 238
VWidth: 0
Flags: W
LayerCount: 2
Fore
SplineSet
-31.5 -121 m 1
 57 -49 250 153 224 450 c 0
 209 623 127.5 726 63 748 c 1
 57.5 746 57.5 739 57.5 736 c 1
 113 681 147.5 604 159.5 463 c 0
 181.5 209 29 -37 -39.5 -108 c 1
 -40.5 -112 -37 -119 -31.5 -121 c 1
EndSplineSet
Validated: 524329
EndChar

StartChar: asterisk
Encoding: 42 42 9
Width: 384
Flags: W
HStem: 430 74<50.1001 142.775> 464 51<227.246 250.92> 472.5 24<161.656 203.285> 644.5 20G<183 210>
VStem: 137 70<306.415 383.422> 203.5 48<464.5 469 496.505 514.445>
LayerCount: 2
Fore
SplineSet
237 515 m 0x54
 262 515 304.5 634 358.5 634 c 0
 372.5 634 383.5 624.5 383.5 605.5 c 0
 383.5 546 251.5 523.5 251.5 491.5 c 0x54
 251.5 464.5 374 479 374 421.5 c 0
 374 400 353 380.5 333 380.5 c 0
 290 380.5 260 464 235 464 c 0
 212 464 225 397 207 340 c 0
 198 310 178.5 299.5 164.5 299.5 c 0
 150 299.5 137 313 137 330 c 0x58
 137 370 203.5 438 203.5 464 c 0x54
 203.5 469 202 472.5 195 472.5 c 0x34
 174 472.5 111.5 430 73.5 430 c 0
 56.5 430 42.5 441 42.5 457 c 0
 42.5 470 50 504 104 504 c 0x94
 133 504 163 496.5 183 496.5 c 0x34
 205 496.5 206.5 503 206.5 510 c 0
 206.5 534 154.5 576.5 154.5 619.5 c 0
 154.5 644.5 172.5 664.5 193.5 664.5 c 0
 226.5 664.5 226.5 622 226.5 582 c 0
 226.5 576 223 515 237 515 c 0x54
EndSplineSet
Validated: 524321
EndChar

StartChar: plus
Encoding: 43 43 10
Width: 449
Flags: W
HStem: 215 47<16.9644 190 250 421.098>
LayerCount: 2
Fore
SplineSet
19.5 215 m 2
 16.5 215 14.5 218 14.5 223 c 0
 14.5 236 18.5 249 28.5 262 c 1
 198 262 l 1
 231 435 l 2
 233.5 448 272 451 276 451 c 0
 284 451 286 447 285 443 c 2
 250 262 l 1
 419.5 262 l 2
 421.5 262 422.5 259 422.5 254 c 0
 422.5 241 421 227 410 215 c 1
 242 215 l 1
 207 39 l 2
 205 29 184 23 168 23 c 0
 158 23 153.5 27 154 31 c 2
 190 215 l 1
 19.5 215 l 2
EndSplineSet
Validated: 524289
EndChar

StartChar: comma
Encoding: 44 44 11
Width: 206
VWidth: 512
Flags: W
HStem: -131 263
VStem: 26 106.5<6.94781 113.904>
LayerCount: 2
Fore
SplineSet
-18.5 -112 m 5
 -9.5 -105.5 51.5 -54 51.5 -9 c 4
 51.5 20 26 23 26 62 c 4
 26 110 64.5 132 97.5 132 c 4
 108 132 125.5 124.5 130 119 c 5
 132 114 132.5 105 132.5 98 c 4
 132.5 60.0219 122.059 11.9751 101.368 -24 c 4
 73.6443 -71.8522 41.208 -100.931 -4 -131 c 5
 -10 -130 -18.5 -121 -18.5 -112 c 5
EndSplineSet
Validated: 524289
EndChar

StartChar: hyphen
Encoding: 45 45 12
Width: 347
VWidth: 512
Flags: W
VStem: 39 255.5<207.969 264>
LayerCount: 2
Fore
SplineSet
61.5 264 m 2
 288.5 276 l 2
 293.5 276 294.5 269 294.5 264 c 0
 294.5 251 280 208 270 207 c 10
 44 196 l 2
 41 196 39 203 39 211 c 0
 39 222 50.5 263 61.5 264 c 2
EndSplineSet
Validated: 524289
EndChar

StartChar: period
Encoding: 46 46 13
Width: 202
VWidth: 512
Flags: W
HStem: -12.5 127<34.0416 106.139>
VStem: 12 118<11.6392 92.0013>
LayerCount: 2
Fore
SplineSet
12 46.5 m 0
 15.5 83.5 49.5 114.5 83.5 114.5 c 1
 113.5 114.5 133.5 90 130 58.5 c 0
 126.5 21.5 93.5 -12.5 59.5 -12.5 c 1
 28.5 -12.5 8.5 14.5 12 46.5 c 0
EndSplineSet
Validated: 524321
EndChar

StartChar: slash
Encoding: 47 47 14
Width: 383
VWidth: 0
Flags: W
LayerCount: 2
Fore
SplineSet
450.5 755 m 1
 26.5 -12 l 2
 23.5 -17 -1 -34 -24 -34 c 0
 -28 -34 -35 -30 -36 -28 c 9
 389 739 l 2
 393.806 747.161 420.5 761 438.5 761 c 0
 444.5 761 448.5 758 450.5 755 c 1
EndSplineSet
Validated: 524289
EndChar

StartChar: zero
Encoding: 48 48 15
Width: 479
Flags: W
HStem: -4 36.5<188.613 258.851> 605 36.5<292.052 361.981>
LayerCount: 2
Fore
SplineSet
167.804 236 m 0
 152.305 128 169.804 32.5 220.304 32.5 c 0
 292.304 32.5 368.304 203.5 383.804 393.5 c 0
 399.304 488 386.804 605 330.804 605 c 0
 260.304 605 183.304 437.5 167.804 236 c 0
64.8047 307 m 0
 100.805 490.5 219.304 641.5 337.304 641.5 c 0
 467.304 641.5 518.304 498 484.804 326.5 c 0
 451.304 155 336.304 -4 210.304 -4 c 0
 90.8047 -4 31.3047 135.5 64.8047 307 c 0
EndSplineSet
Validated: 524321
EndChar

StartChar: one
Encoding: 49 49 16
Width: 286
Flags: W
HStem: -3 29<1.93587 66.1755 190.351 242.29>
VStem: 0.726549 299
LayerCount: 2
Fore
SplineSet
90.7265 506.5 m 1
 83.7265 510.5 80.7265 521 81.2265 528 c 0
 81.2265 530 81.7265 533 84.7265 535 c 1
 182.227 584.5 262.727 625.5 289.727 642 c 1
 291.727 642 l 2
 297.227 642 300.727 623.5 299.727 614.5 c 1
 299.727 614.5 277.727 570 261.227 484 c 2
 195.227 135 l 2
 189.227 102 184.227 73 185.227 46 c 0
 186.227 35 236.227 26 243.227 26 c 0
 246.227 26 244.227 15 243.227 8 c 0
 242.227 3 241.227 -1 240.227 -3 c 1
 203.227 -1 143.227 2 106.227 2 c 0
 69.2265 2 38.7265 -1 0.726549 -3 c 1
 -3.27345 2 1.72655 26 6.72655 26 c 0
 17.7266 26 68.2265 35 73.2265 46 c 0
 82.2265 66 85.7265 84 89.2265 103 c 2
 154.727 439 l 2
 166.727 499 172.227 530 153.227 530 c 0
 146.227 530 108.727 515.5 90.7265 506.5 c 1
EndSplineSet
Validated: 524321
EndChar

StartChar: two
Encoding: 50 50 17
Width: 430
Flags: W
HStem: 0 91.5<109.5 337.869> 567 75<218.569 302.124>
VStem: 327.5 115.5<407.873 540.85>
LayerCount: 2
Fore
SplineSet
443 501 m 0
 443 412.5 390 348 316 278 c 0
 228.5 195 107.5 91.5 109.5 91.5 c 9
 280.5 91.5 l 2
 334 91.5 360 124.5 375.5 161.5 c 0
 377.5 166.5 382.5 170.5 389.5 170.5 c 0
 395 170.5 404 166.5 406.5 164 c 1
 383 114.5 336.5 18 328.5 0 c 9
 328.5 0 3 0 -4 0 c 1
 -7 1 -11 9.5 -10.5 18.5 c 1
 44.5 68.5 173 201.5 230.5 269.5 c 0
 295.5 346 327.5 412 327.5 477 c 0
 327.5 531 296.5 567 245 567 c 0
 179 567 126 506.5 115 492 c 1
 107 492 98.5 504 98.5 510 c 1
 109.5 535 201 642 298 642 c 0
 371 642 443 588.5 443 501 c 0
EndSplineSet
Validated: 524321
EndChar

StartChar: three
Encoding: 51 51 18
Width: 411
Flags: W
HStem: -5 39<116.879 219.994> 316 31.5<145.503 199.7> 575.5 66.5<214.899 321.5>
VStem: 295 108<149.226 294.34> 317.5 93.5<454.088 554.421>
LayerCount: 2
Fore
SplineSet
298 642 m 0xe8
 345 642 411 611 411 524 c 0xe8
 411 448 336.5 395.5 291.5 375.5 c 1
 347.5 368.5 403 307.5 403 240.5 c 0
 403 86.5 230.5 -5 130 -5 c 0
 72.5 -5 33 8.5 10 24.5 c 1
 6 29.5 1 42.5 1 53.5 c 0
 1 95.5 29.5 116 51.5 116 c 0
 86 116 92 86.5 103.5 68.5 c 0
 118 46 142 34 167 34 c 0
 224 34 295 104.5 295 217.5 c 0xf0
 295 284.5 265 324 200.5 324 c 0
 183.5 324 161.5 319 149.5 316 c 1
 146.5 321 145.5 327 145.5 332 c 0
 145.5 336 147 344.5 149 347.5 c 1
 221.5 358.5 317.5 411.5 317.5 493.5 c 0
 317.5 551 282.5 575.5 240.5 575.5 c 0
 183 575.5 137 516.5 127.5 509 c 1
 120.5 509 114 523.5 115 532.5 c 1
 148.5 580.5 221.5 642 298 642 c 0xe8
EndSplineSet
Validated: 524289
EndChar

StartChar: four
Encoding: 52 52 19
Width: 463
Flags: W
HStem: 174.5 62<96.748 277.248 390.248 449.266>
LayerCount: 2
Fore
SplineSet
447.748 643 m 0
 456.748 643 466.748 629 464.748 621 c 2
 390.248 236.5 l 25
 444.748 236.5 l 18
 450.748 236.5 453.248 222.5 451.248 208 c 0
 450.248 194.5 443.748 180.5 439.248 174.5 c 1
 415.248 174.5 377.748 174.5 377.748 174.5 c 25
 344.248 0.5 l 1
 344.248 0.5 323.248 -5.5 287.248 -5.5 c 0
 265.248 -5.5 242.748 -3.5 243.748 3.5 c 2
 277.248 174.5 l 25
 18.748 174.5 l 1
 12.748 178.5 11.248 189.5 12.248 195.5 c 1
 417.248 622.5 l 2
 425.748 631.5 440.748 643 447.748 643 c 0
338.748 494.5 m 25
 96.748 236.5 l 25
 288.748 236.5 l 25
 338.748 494.5 l 25
EndSplineSet
Validated: 524321
EndChar

StartChar: five
Encoding: 53 53 20
Width: 410
Flags: W
HStem: -5 39<116.379 216.637> 331.5 74<149.634 255.808> 540.5 92.5<184.078 383.826>
VStem: 294.5 106.5<154.276 291.993>
LayerCount: 2
Fore
SplineSet
401 247 m 0
 401 93 230.5 -5 129.5 -5 c 0
 72 -5 32.5 8.5 9.5 24.5 c 1
 5.5 29.5 0.5 42.5 0.5 53.5 c 0
 0.5 95.5 29 116 51 116 c 0
 85.5 116 91.5 86.5 103 68.5 c 0
 117.5 46 141.5 34 166.5 34 c 0
 223.5 34 294.5 104.5 294.5 217.5 c 0
 294.5 272.5 269.5 331.5 181 331.5 c 3
 161 331.5 125 325 106 319 c 1
 103 321 97 328 93 333 c 1
 132.5 466.5 160.5 590 172.5 633 c 1
 251 634 373.5 635.5 416 645 c 1
 422 641.5 426 634.5 426 631 c 1
 426 613 396 564.5 386 550.5 c 1
 341 540.5 206 542 190 540.5 c 1
 186.5 531 163 434 148.5 384.5 c 1
 172.5 397.5 225.5 405.5 243.5 405.5 c 0
 332 405.5 401 336 401 247 c 0
EndSplineSet
Validated: 524289
EndChar

StartChar: six
Encoding: 54 54 21
Width: 427
VWidth: 0
Flags: W
HStem: -6 34<176.191 249.101> 327.5 49.5<238.654 345> 618 24.5<448.933 469.799>
VStem: 42 106<78.7914 292.106> 327 105.5<136.04 304.787>
LayerCount: 2
Fore
SplineSet
306.5 377 m 0
 383.5 377 432.5 313.5 432.5 229 c 0
 432.5 106 318 -6 200 -6 c 0
 116 -6 42 62.5 42 175.5 c 0
 42 260.5 80 368.5 167.5 465.5 c 0
 230 535 343 613.5 465 642.5 c 1
 471 640.5 472 624 471 618 c 1
 352 567.5 253.5 490.5 197 363 c 0
 159.5 278.5 148 208.5 148 146.5 c 0
 148 81.5 168 28 210 28 c 0
 265 28 327 128.5 327 226 c 0
 327 281.5 308 327.5 253 327.5 c 0
 236.5 327.5 225 323 217.5 319 c 1
 214.5 321 212 325.5 212 331.5 c 3
 212 343.5 271 377 306.5 377 c 0
EndSplineSet
Validated: 524289
EndChar

StartChar: seven
Encoding: 55 55 22
Width: 404
Flags: W
HStem: 541.5 93<142.316 412.054>
LayerCount: 2
Fore
SplineSet
55.0547 13.5 m 1
 146.554 126.5 351.054 445.5 412.054 541.5 c 1
 344.054 541.5 188.554 541.5 188.554 541.5 c 2
 147.054 541.5 121.055 496 102.555 461 c 0
 101.04 458.47 99.1997 457.029 93 456.476 c 0
 85.2488 455.873 76.1814 459.686 72.0547 463 c 1
 91.0547 506.5 137.054 601.5 148.554 634.5 c 1
 156.054 634.5 425.554 635 425.554 635 c 2
 454.054 635 493.054 638.5 499.054 638.5 c 0
 505.054 638.5 504.054 631.5 503.054 626.5 c 0
 500.554 615.5 484.054 593 464.554 562.5 c 2
 105.055 -5.5 l 1
 102.055 -7.5 96.5547 -8 93.0547 -8 c 0
 82.5547 -8 52.0547 -0.5 55.0547 13.5 c 1
EndSplineSet
Validated: 524321
EndChar

StartChar: eight
Encoding: 56 56 23
Width: 433
Flags: W
HStem: -7.5 36.5<169.333 265.637> 608 34.5<273.683 351.519>
LayerCount: 2
Fore
SplineSet
324.79 642.5 m 0
 407.29 642.5 482.79 597 462.79 492 c 0
 449.29 422 382.29 376 329.29 349.5 c 1
 325.29 348 326.29 345.5 328.29 343.5 c 0
 382.79 300.5 433.79 235 419.79 164.5 c 0
 398.29 56 292.29 -7.5 197.29 -7.5 c 0
 95.2906 -7.5 25.2905 64 44.2906 161 c 0
 61.2906 249 147.29 290.5 193.79 314.5 c 0
 196.79 316 197.79 319.5 195.79 320.5 c 0
 161.79 348 119.291 408.5 133.29 482.5 c 0
 150.29 567.5 233.29 642.5 324.79 642.5 c 0
314.29 608 m 0
 273.79 608 235.29 564 228.29 500 c 0
 222.29 440.5 262.79 399.5 295.29 373.5 c 0
 297.29 372.5 298.29 371.5 299.79 371.5 c 0
 301.29 371.5 302.79 371.5 305.29 374 c 0
 339.79 405.5 366.29 448 371.79 502.5 c 0
 377.29 549 362.79 608 314.29 608 c 0
211.29 29 m 0
 264.29 29 304.79 72.5 314.79 129 c 0
 329.79 214.5 237.79 281.5 227.79 289.5 c 0
 225.79 290.5 225.79 291 223.29 291 c 0
 222.29 291 220.79 290.5 219.79 289.5 c 0
 180.79 255.5 157.79 216.5 147.291 154 c 0
 133.791 74.5 166.29 29 211.29 29 c 0
EndSplineSet
Validated: 524321
EndChar

StartChar: nine
Encoding: 57 57 24
Width: 443
VWidth: 0
Flags: W
HStem: -6 24.5<38.3238 59.1895> 259.5 49.5<163.122 269.468> 608.5 34<259.021 331.931>
VStem: 75.6226 105.499<331.713 500.46> 360.122 106<344.394 557.709>
LayerCount: 2
Fore
SplineSet
201.622 259.5 m 0
 124.622 259.5 75.6226 323 75.6226 407.5 c 0
 75.6226 530.5 190.122 642.5 308.122 642.5 c 0
 392.122 642.5 466.122 574 466.122 461 c 0
 466.122 376 428.122 268 340.622 171 c 0
 278.122 101.5 165.122 23 43.1226 -6 c 1
 37.1226 -4 36.1226 12.5 37.1226 18.5 c 1
 156.122 69 254.622 146 311.122 273.5 c 0
 348.622 358 360.122 428 360.122 490 c 0
 360.122 555 340.122 608.5 298.122 608.5 c 0
 243.122 608.5 181.122 508 181.122 410.5 c 0
 181.122 355 200.122 309 255.122 309 c 0
 271.622 309 283.122 313.5 290.622 317.5 c 1
 293.622 315.5 296.122 311 296.122 305 c 3
 296.122 293 237.122 259.5 201.622 259.5 c 0
EndSplineSet
Validated: 524289
EndChar

StartChar: colon
Encoding: 58 58 25
Width: 216
VWidth: 512
Flags: W
HStem: -12.5 129<40.7999 112.875> 311.5 129<103.383 175.55>
VStem: 17.5 119.5<11.7701 93.3795> 80 120<335.988 417.653>
LayerCount: 2
Fore
SplineSet
80 371.5 m 0xd0
 83.5 409 118 440.5 152.5 440.5 c 1
 183 440.5 203.5 415.5 200 383.5 c 0
 196.5 346 163 311.5 128.5 311.5 c 1
 97 311.5 76.5 339 80 371.5 c 0xd0
17.5 47 m 0xe0
 21 84.5 55 116.5 89.5 116.5 c 1
 120 116.5 140.5 91 137 59 c 0
 133.5 21.5 100 -12.5 65.5 -12.5 c 1
 34 -12.5 14 15 17.5 47 c 0xe0
EndSplineSet
Validated: 524321
EndChar

StartChar: semicolon
Encoding: 59 59 26
Width: 245
VWidth: 512
Flags: W
HStem: 311.5 129<122.883 195.05>
VStem: 41.5 106.5<6.94781 113.904> 99.5 120<335.988 417.653>
LayerCount: 2
Fore
SplineSet
-3 -112 m 1xc0
 6 -105.5 67 -54 67 -9 c 0
 67 20 41.5 23 41.5 62 c 0
 41.5 110 80 132 113 132 c 0
 123.5 132 141 124.5 145.5 119 c 1
 147.5 114 148 105 148 98 c 0
 148 60.0215 137.559 11.9756 116.868 -24 c 0
 89.1445 -71.8525 56.708 -100.931 11.5 -131 c 1
 5.5 -130 -3 -121 -3 -112 c 1xc0
219.5 383.5 m 0xa0
 216 346 182.5 311.5 148 311.5 c 1xc0
 116.5 311.5 96 339 99.5 371.5 c 0
 103 409 137.5 440.5 172 440.5 c 1
 202.5 440.5 223 415.5 219.5 383.5 c 0xa0
EndSplineSet
Validated: 524321
EndChar

StartChar: less
Encoding: 60 60 27
Width: 433
VWidth: 512
Flags: W
LayerCount: 2
Fore
SplineSet
88.5 209 m 1
 358.5 46 l 1
 358.5 46 360.5 45 360 40.5 c 0
 359.5 30.5 340 -14.5 334.5 -14.5 c 0
 333.5 -14.5 332.5 -14 330.5 -13 c 2
 18.5 177 l 2
 9.5 183 7.5 195.5 9 210 c 0
 10 222.5 17.5 234 31 241 c 2
 413.5 428 l 2
 415.5 429 417 429.5 418 429.5 c 0
 421 429.5 423.5 415.5 423.5 390 c 0
 423.5 382 421 370 419 369 c 1
 88.5 209 l 1
EndSplineSet
Validated: 524321
EndChar

StartChar: equal
Encoding: 61 61 28
Width: 539
VWidth: 512
Flags: W
HStem: 140.5 53.5<52.7749 467.382> 281.5 53.5<80.5132 494.712>
LayerCount: 2
Fore
SplineSet
51.5 140.5 m 1
 50 140.5 46.5 142 46.5 147.5 c 0
 46.5 155.5 56 187.5 65.5 194 c 1
 469 194 l 2
 472.5 194 473.5 191 473.5 187.5 c 0
 473.5 178.5 467.5 159 458 143.5 c 1
 456 140.5 460 146.5 454.5 140.5 c 1
 51.5 140.5 l 1
79 281.5 m 1
 77.5 281.5 74.5 283 74.5 288.5 c 0
 74.5 295.5 83.5 328.5 93 335 c 1
 496 335 l 2
 499.5 335 500.5 332 500.5 328.5 c 0
 500.5 319.5 495 300 485.5 284.5 c 1
 484 281.5 487 287.5 481.5 281.5 c 1
 79 281.5 l 1
EndSplineSet
Validated: 524289
EndChar

StartChar: greater
Encoding: 62 62 29
Width: 440
VWidth: 512
Flags: W
LayerCount: 2
Fore
SplineSet
332.5 209 m 1
 63.5 369 l 1
 63.5 369 61 371 62 375.5 c 0
 69 397.5 84.5 430 88.5 430 c 0
 89.5 430 90.5 429 92.5 428 c 2
 401.5 241 l 2
 409 236.5 414.5 229 413.5 219 c 0
 412 209 408 186.5 389 177 c 2
 4 -13 l 2
 2 -14 0 -15 -1.5 -15 c 0
 -7 -15 -7 21 -6.5 39 c 0
 -6 44 -2 46 -2 46 c 1
 332.5 209 l 1
EndSplineSet
Validated: 524321
EndChar

StartChar: question
Encoding: 63 63 30
Width: 326
VWidth: 512
Flags: W
HStem: -12.5 127<45.6109 116.688> 577.5 61<184.768 262.333>
VStem: 23 118<11.3658 91.9263> 55 81<240.693 307.28> 271.5 62<476.33 569.151>
LayerCount: 2
Fore
SplineSet
23 46 m 0xe8
 26.5 83.5 59.5 114.5 93.5 114.5 c 1
 123.5 114.5 144.5 89.5 141 58 c 0
 137.5 21 103.5 -12.5 69.5 -12.5 c 1
 38.5 -12.5 19.5 14.5 23 46 c 0xe8
172.5 206 m 1
 172.5 201 166 191 161 188 c 1
 137 188 55 236.5 55 292.5 c 3
 55 346.5 94 371 120 389 c 0
 156.989 414.339 193.823 431.747 233 461.581 c 0
 252.952 476.836 271.5 496.667 271.5 528 c 3
 271.5 559.5 254.5 577.5 227 577.5 c 0
 190 577.5 174.5 529 140.5 529 c 0
 103 529 94.5 570.5 102 598.5 c 1
 110.5 613.5 144 638.5 186.5 638.5 c 0
 265.5 638.5 333.5 569 333.5 501 c 0
 333.5 452.5 320.983 415.765 267.304 377.5 c 0
 247.199 361.322 211.473 344.732 172 318.022 c 0
 148.65 302.389 136 286.246 136 264 c 3xd8
 136 235 163 212.5 172.5 206 c 1
EndSplineSet
Validated: 524321
EndChar

StartChar: at
Encoding: 64 64 31
Width: 753
VWidth: 512
Flags: W
HStem: -11.5 62<468.5 567.504> -6.5 73<251 338.947> 391 50.5<397.119 504.25> 538.5 41<353.678 554.89>
VStem: 39.5 48<28.1994 268.655> 190 100<74.9445 226.679> 682 54.5<175.407 410.42>
LayerCount: 2
Fore
SplineSet
515 118.5 m 2x7e
 505.5 70.5 515.5 50.5 542 50.5 c 3
 602 50.5 682 162.5 682 283.5 c 0
 682 436 609.5 538.5 450.5 538.5 c 3
 296.5 538.5 87.5 381 87.5 141 c 0
 87.5 66 114 -13.5 178.5 -69 c 0
 194.589 -82.4811 212 -91.5 220.5 -95.5 c 1
 214.5 -100.5 203.5 -104 187.5 -104 c 0
 171.5 -104 138 -85.5 120.5 -68.5 c 0
 70.4293 -19.5823 39.5 53.5 39.5 136 c 0
 39.5 388 254 579.5 462 579.5 c 3
 647 579.5 736.5 445.5 736.5 298.5 c 0
 736.5 85 566 -11.5 493 -11.5 c 0xbe
 444 -11.5 416 18.5 416 58 c 0
 416 64 417 73.5 419.5 87.5 c 0
 422 101 423 104.5 424 110 c 1
 403 73.5 339.5 -6.5 280.5 -6.5 c 1
 221.5 -6.5 190 53 190 122 c 1
 190 284.5 354.5 441.5 486.5 441.5 c 0
 522 441.5 557 433 576.5 426 c 1
 515 118.5 l 2x7e
437.5 391 m 1
 365 391 290 267.5 290 151 c 0
 290 96 305 66.5 333.5 66.5 c 1x7e
 375.5 66.5 436 179.5 455.5 277 c 2
 475.5 378.5 l 1
 467.5 387.5 451 391 437.5 391 c 1
EndSplineSet
Validated: 524321
EndChar

StartChar: A
Encoding: 65 65 32
Width: 614
Flags: W
HStem: -3.5 32.5<-33.0039 21.3091 109.204 161.195 346.837 407.167 541.268 584.599> 238.5 45<221.766 382.765> 642.5 20G<408.766 416.016>
LayerCount: 2
Fore
SplineSet
87.7661 136.5 m 2
 372.766 629 l 2
 381.266 643.5 404.266 662.5 413.266 662.5 c 0
 418.766 662.5 422.766 659.5 424.766 657.5 c 1
 514.286 137 l 1
 520.335 102.798 523.38 80.4306 525.766 68 c 0
 532.266 35.5 579.266 29.5 586.266 29.5 c 1
 589.266 21.5 584.766 0 581.766 -3.5 c 1
 544.766 -1.5 510.266 3 469.266 3 c 0
 426.266 3 382.766 -1.5 344.266 -3.5 c 1
 340.266 1.5 345.766 27 351.266 29.5 c 1
 364.766 29.5 395.266 35 407.766 45 c 0
 412.766 49 415.766 54 416.766 60.5 c 0
 420.766 80 391.266 233.5 391.266 233.5 c 1
 391.266 233.5 389.766 237.5 386.766 237.5 c 0
 357.266 239.5 318.266 238.5 295.266 238.5 c 0
 257.266 238.5 235.266 238.5 197.766 236.5 c 0
 195.266 236.5 191.266 233.5 190.766 232.5 c 1
 190.766 232.5 152.766 168 132.766 130 c 0
 116.766 100 104.766 70.5 102.766 60.5 c 0
 97.7661 35.5 156.766 29.5 163.766 29.5 c 1
 166.766 24.5 161.766 1.5 158.266 -3.5 c 1
 123.766 -0.5 105.266 3 64.2661 3 c 0
 21.2661 3 2.2661 -0.5 -35.7339 -3.5 c 1
 -38.2339 0 -35.2339 20 -30.2339 29 c 1
 -19.2339 29 21.7661 40 33.7661 54.5 c 0
 56.2661 81.5 69.2661 104.5 87.7661 136.5 c 2
345.766 505.5 m 1
 221.766 290 l 1
 221.766 290 221.766 286 223.766 286 c 0
 244.766 284.5 280.266 283.5 301.266 283.5 c 0
 330.266 283.5 349.766 284 378.766 286 c 0
 380.766 286 382.766 291 382.766 291 c 1
 345.766 505.5 l 1
EndSplineSet
Validated: 524321
EndChar

StartChar: B
Encoding: 66 66 33
Width: 557
Flags: W
HStem: -3 38.5<-4.29126 65.1123 182.115 317.503> 333 38.5<236.727 356.11> 622 37.5<115.469 172.454 287.523 393.332>
LayerCount: 2
Fore
SplineSet
236.727 371.5 m 1
 307.727 371.5 l 2
 364.227 371.5 406.727 421 419.727 487 c 0
 437.227 579 402.727 622 336.227 622 c 0
 320.227 622 293.227 621 287.227 611 c 0
 280.227 599 275.727 572.5 269.727 543 c 2
 236.727 371.5 l 1
228.727 333 m 1
 186.227 113.5 l 2
 184.227 103.5 176.727 60 181.727 50.5 c 0
 189.727 37 215.727 35.5 244.727 35.5 c 0
 301.227 35.5 373.227 63.5 395.227 176 c 0
 410.227 251 396.727 333 281.227 333 c 2
 228.727 333 l 1
377.227 659.5 m 0
 462.727 659.5 557.227 621 534.727 506 c 0
 519.227 427.5 441.727 379.5 410.727 368 c 0
 405.727 366 405.727 363.5 407.227 362.5 c 1
 452.227 358.5 537.727 297 518.227 195.5 c 0
 506.227 134 458.227 73 402.227 38.5 c 0
 343.727 2.5 275.727 -3 205.227 -3 c 0
 185.727 -3 8.22656 -2.5 -9.77344 -3 c 1
 -13.2734 2.5 -8.77344 24 -3.27344 30 c 1
 8.22656 30.5 55.7265 34.5 61.7266 46.5 c 0
 71.2265 64.5 76.7265 94 83.7265 130.5 c 2
 161.227 528 l 2
 168.227 564.5 174.727 594 171.727 612 c 0
 170.227 624 124.227 627.5 112.727 628 c 1
 109.727 634 113.727 655.5 119.227 661 c 1
 158.727 658.5 202.227 657 239.727 657 c 0
 277.227 657 322.727 659.5 377.227 659.5 c 0
EndSplineSet
Validated: 524321
EndChar

StartChar: C
Encoding: 67 67 34
Width: 617
Flags: W
HStem: -7.5 40<262.886 425.859> 627.5 39<333.771 494.743>
VStem: 34.5 119.5<161.881 400.422> 567 32.5<483.003 550.389>
LayerCount: 2
Fore
SplineSet
418.5 627.5 m 0
 275 627.5 153.688 488.5 154 275 c 0
 154.172 169.5 200 32.5 340.5 32.5 c 0
 392.453 32.5 436.574 52.2787 469 79.3115 c 0
 509.177 112.636 541.306 169.608 550.5 188.5 c 1
 564 188.5 577 182 580 178.5 c 1
 577 163 524.5 44 510 34 c 1
 455 4.5 398.5 -7.5 312.5 -7.5 c 0
 134 -7.5 34.5 129.5 34.5 270.5 c 0
 34.5 521.5 240.814 668.5 433 666.5 c 0
 492.495 665.94 560 651 611 639 c 1
 610 615.5 601.5 515 599.5 494 c 0
 598.765 487.472 590 483 583 483 c 1
 578.5 483 571 483 567 489 c 1
 568.5 548.5 519.5 627.5 418.5 627.5 c 0
EndSplineSet
Validated: 524321
EndChar

StartChar: D
Encoding: 68 68 35
Width: 687
Flags: W
HStem: -3 38.5<-4.29126 65.1123 181.572 354.095> 622 37<115.469 172.454 284.755 436.305>
LayerCount: 2
Fore
SplineSet
270.227 543 m 2
 189.727 129.5 l 2
 187.727 119.5 178.227 67 181.727 54 c 0
 185.727 41.5 216.227 35.5 245.227 35.5 c 0
 392.727 35.5 502.227 118.5 540.227 313.5 c 0
 581.227 524.5 491.227 622 345.727 622 c 0
 329.727 622 293.727 621 287.727 610.5 c 0
 280.227 596.5 276.227 572 270.227 543 c 2
378.727 659 m 0
 593.727 659 700.227 520.5 662.227 325.5 c 0
 623.227 123.5 476.727 -2.5 240.727 -3 c 1
 221.227 -3 8.22656 -2.5 -9.77344 -3 c 1
 -13.2734 2.5 -8.77344 24 -3.27344 30 c 1
 8.22656 30.5 55.7265 34.5 61.7266 46.5 c 0
 71.2265 64.5 76.7265 94 83.7265 130.5 c 2
 161.227 528 l 2
 168.227 564.5 174.727 594 171.727 612 c 0
 170.227 624 124.227 627.5 112.727 628 c 1
 109.727 634 113.727 655.5 119.227 661 c 1
 158.727 658.5 202.227 657 239.727 657 c 0
 277.227 657 330.727 658.5 378.727 659 c 0
EndSplineSet
Validated: 524321
EndChar

StartChar: E
Encoding: 69 69 36
Width: 549
Flags: W
HStem: -3 33<-7.9336 61.3146> -1.1447 40.6447<181.132 387.082> 311 42<234.6 373.85> 620.5 36.5<283.346 477.045> 628 33<116.102 170.816>
VStem: 391.316 29<232.106 273.411> 508.316 32.501<517.239 582.65>
LayerCount: 2
Fore
SplineSet
239.316 657 m 0x36
 302.316 657 463.316 663.5 541.317 664 c 1
 538.317 614 540.817 567 540.817 522 c 1
 537.817 519 527.317 517 520.317 517 c 0
 513.317 517 508.816 519.5 508.316 524.5 c 0
 501.316 592 475.316 620.5 422.316 620.5 c 2
 343.816 620.5 l 1
 327.816 620.5 292.316 619.5 286.316 609 c 0
 278.816 595 274.816 571 269.316 543 c 2
 233.816 361.5 l 2
 232.816 356 252.316 353 272.316 353 c 2
 321.316 353 l 2
 393.316 353 399.816 362 427.316 424 c 0
 429.316 429 434.316 431.5 441.316 431.5 c 0
 448.316 431.5 454.816 429.5 456.816 426.5 c 1
 420.316 236 l 1
 418.316 234 410.316 232 403.316 232 c 0
 396.316 232 391.816 235 391.316 240 c 0
 388.816 292.5 381.816 298.5 374.316 303.5 c 0
 364.816 309.5 326.316 311 291.316 311 c 0
 265.316 311 223.816 310 221.816 299.5 c 2
 188.316 128.5 l 2
 186.316 118 176.316 67 180.816 54.5 c 0
 187.316 42.5 209.316 39.5 240.816 39.5 c 1
 293.816 39.5 l 2x76
 328.816 39.5 373.316 49 401.316 68 c 0
 423.316 83.5 449.316 117 474.316 166 c 0
 476.316 170 482.316 172 489.316 172 c 0
 498.316 172 511.316 169 513.317 166 c 1
 485.316 112 445.316 41 430.316 -3 c 1xa6
 366.918 -3 234.142 -1 109.316 -1.1447 c 0x66
 55.1607 -1.21876 13.9103 -2.83073 -10.1836 -3 c 1
 -13.6836 2.5 -9.6836 24 -4.18359 30 c 1
 7.31641 30.5 55.3164 34.5 61.3164 46.5 c 0
 70.8164 64.5 76.3164 94 83.3164 130.5 c 2
 160.816 528 l 2
 167.816 564.5 173.816 594 170.816 612 c 0
 169.316 624 123.316 627.5 111.816 628 c 1
 108.816 634 113.316 655.5 118.816 661 c 1xae
 158.316 658.5 201.816 657 239.316 657 c 0x36
EndSplineSet
Validated: 524321
EndChar

StartChar: F
Encoding: 70 70 37
Width: 524
Flags: W
HStem: -3.5 33<-7.51172 61.5047 179.424 243.574> 309 42<234.6 373.85> 620.5 36.5<283.846 477.545> 628 33<116.602 171.316>
VStem: 391.316 29<230.106 271.411> 508.816 32.501<517.239 582.65>
LayerCount: 2
Fore
SplineSet
239.816 657 m 0xec
 302.816 657 463.816 663.5 541.817 664 c 1
 538.817 614 541.317 567 541.317 522 c 1
 538.317 519 527.817 517 520.817 517 c 0
 513.817 517 509.316 519.5 508.816 524.5 c 0
 501.816 592 475.816 620.5 422.816 620.5 c 2
 344.316 620.5 l 1xec
 328.316 620.5 292.816 619.5 286.816 609 c 0
 279.316 595 275.316 571 269.816 543 c 2
 233.816 359.5 l 2
 232.816 354 252.316 351 272.316 351 c 2
 321.316 351 l 2
 393.316 351 399.816 360 427.316 422 c 0
 429.316 427 434.316 429.5 441.316 429.5 c 0
 448.316 429.5 454.816 427.5 456.816 424.5 c 1
 420.316 234 l 1
 418.316 232 410.316 230 403.316 230 c 0
 396.316 230 391.816 233 391.316 238 c 0
 388.816 290.5 381.816 296.5 374.316 301.5 c 0
 364.816 307.5 326.316 309 291.316 309 c 0
 265.316 309 223.816 308 221.816 297.5 c 2
 189.316 130.5 l 2
 182.316 94 176.316 64.5 179.316 46.5 c 0
 180.816 34.5 234.816 30 246.316 29.5 c 1
 249.316 23.5 245.316 2 239.816 -3.5 c 1
 203.316 -0.5 148.816 2.5 111.316 2.5 c 0
 69.8164 2.5 26.3164 -1.5 -10.1836 -3.5 c 1
 -13.6836 2 -9.1836 23.5 -3.68359 29.5 c 1
 7.81641 30 55.8164 34.5 61.8164 46.5 c 0
 71.3164 64.5 76.8164 94 83.8164 130.5 c 2
 161.316 528 l 2
 168.316 564.5 174.316 594 171.316 612 c 0
 169.816 624 123.816 627.5 112.316 628 c 1
 109.316 634 113.816 655.5 119.316 661 c 1xdc
 158.816 658.5 202.316 657 239.816 657 c 0xec
EndSplineSet
Validated: 524321
EndChar

StartChar: G
Encoding: 71 71 38
Width: 638
Flags: W
HStem: -7.5 40<261.589 421.529> 269.5 33<401.891 460.848 581.42 640.284> 627.5 39<342.719 502.018>
VStem: 34.5 119.5<161.881 400.422> 463 80.5<107.562 213.47> 567 32.5<483.003 556.132>
LayerCount: 2
Fore
SplineSet
433 666.5 m 0
 492.495 665.94 560 651 611 639 c 1
 610 615.5 601.5 515 599.5 494 c 0
 598.765 487.472 590 483 583 483 c 1
 578.5 483 571 483 567 489 c 1
 568.5 548.5 529 627.5 428.5 627.5 c 0
 285 627.5 153.688 488.5 154 275 c 0
 154.172 169.5 201.5 32.5 338 32.5 c 0
 379 32.5 405.5 42 424 53.5 c 0
 428.876 56.7256 432 61.5 433.5 69.5 c 0
 437.5 90.5 451 161.5 455.5 185.5 c 1
 460.5 210.5 464.5 229 463 248 c 0
 461.5 266 410.5 269.5 399.5 269.5 c 1
 395.5 272 400 297.5 406 302.5 c 1
 448.5 300.5 493 297 534.5 297 c 0
 572 297 604.5 300.5 643 302.5 c 1
 645.5 293.5 640.5 272 636.5 269.5 c 1
 627.5 269.5 589.5 264 581 255 c 0
 574 245 567 221 562 196.5 c 1
 558.5 178 547 118 543.5 101 c 1
 540.5 86 545 76 544.5 68.5 c 0
 543.5 59.9585 530.5 48.5 515 41 c 0
 466.5 16.5 414 -7.5 309.5 -7.5 c 0
 135 -7.5 34.5 129.5 34.5 270.5 c 0
 34.5 521.5 240.814 668.5 433 666.5 c 0
EndSplineSet
Validated: 524321
EndChar

StartChar: H
Encoding: 72 72 39
Width: 703
Flags: W
HStem: -3.5 33<-7.51172 61.5047 179.418 235.074 356.066 425.004 542.919 598.575> 320 45<238.715 480.543> 629 33<115.558 171.214 289.627 358.144 479.058 534.715 653.128 721.645>
LayerCount: 2
Fore
SplineSet
239.816 656 m 0
 277.316 656 322.816 659 360.816 662 c 1
 364.316 656.5 359.816 635 354.316 629 c 1
 342.816 628.5 295.316 624 289.316 612 c 0
 279.816 594 273.816 564.5 266.816 528 c 2
 235.816 368 l 1
 235.816 366 236.816 365 236.816 365 c 1
 277.316 364 318.816 362.5 365.816 362.5 c 0
 404.816 362.5 453.816 364 491.816 365 c 1
 491.816 365 494.316 367 494.316 369 c 1
 524.817 528 l 2
 531.817 564.5 537.817 594 534.817 612 c 0
 533.317 624 487.816 628.5 476.316 629 c 1
 473.316 635 477.316 656.5 482.816 662 c 1
 519.317 659 565.817 656 603.317 656 c 0
 640.817 656 686.317 659 724.317 662 c 1
 727.817 656.5 723.317 635 717.817 629 c 1
 706.317 628.5 658.817 624 652.817 612 c 0
 643.317 594 637.317 564.5 630.317 528 c 2
 553.317 130.5 l 2
 546.317 94 539.817 64.5 542.817 46.5 c 0
 544.317 34.5 589.817 30 601.317 29.5 c 1
 604.317 23.5 600.317 2 594.817 -3.5 c 1
 558.317 -0.5 512.317 2.5 474.816 2.5 c 0
 437.316 2.5 391.816 -0.5 353.816 -3.5 c 1
 350.316 2 354.316 23.5 359.816 29.5 c 1
 371.316 30 419.316 34.5 425.316 46.5 c 0
 434.816 64.5 440.816 94 447.816 130.5 c 2
 483.316 313.5 l 1
 483.316 315.5 482.316 318 482.316 318 c 1
 443.316 319 399.816 320 357.316 320 c 0
 241.316 320 229.816 318 226.316 316 c 1
 225.316 315 224.816 313 224.816 313 c 1
 189.816 130.5 l 2
 182.816 94 176.316 64.5 179.316 46.5 c 0
 180.816 34.5 226.316 30 237.816 29.5 c 1
 240.816 23.5 236.816 2 231.316 -3.5 c 1
 194.816 -0.5 149.316 2.5 111.816 2.5 c 0
 74.3164 2.5 27.8164 -0.5 -10.1836 -3.5 c 1
 -13.6836 2 -9.1836 23.5 -3.68359 29.5 c 1
 7.81641 30 55.8164 34.5 61.8164 46.5 c 0
 71.3164 64.5 76.8164 94 83.8164 130.5 c 2
 161.316 528 l 2
 168.316 564.5 174.316 594 171.316 612 c 0
 169.816 624 124.316 628.5 112.816 629 c 1
 109.816 635 113.816 656.5 119.316 662 c 1
 155.816 659 202.316 656 239.816 656 c 0
EndSplineSet
Validated: 524321
EndChar

StartChar: I
Encoding: 73 73 40
Width: 339
Flags: W
HStem: -3.5 33<-7.51172 61.5047 179.419 235.074> 629 33<115.559 171.214 289.628 358.145>
LayerCount: 2
Fore
SplineSet
239.816 656 m 0
 277.316 656 322.816 659 360.816 662 c 1
 364.316 656.5 359.816 635 354.316 629 c 1
 342.816 628.5 295.316 624 289.316 612 c 0
 279.816 594 273.816 564.5 266.816 528 c 2
 189.816 130.5 l 2
 182.816 94 176.316 64.5 179.316 46.5 c 0
 180.816 34.5 226.316 30 237.816 29.5 c 1
 240.816 23.5 236.816 2 231.316 -3.5 c 1
 194.816 -0.5 149.316 2.5 111.816 2.5 c 0
 74.3164 2.5 27.8164 -0.5 -10.1836 -3.5 c 1
 -13.6836 2 -9.1836 23.5 -3.68359 29.5 c 1
 7.81641 30 55.8164 34.5 61.8164 46.5 c 0
 71.3164 64.5 76.8164 94 83.8164 130.5 c 2
 161.316 528 l 2
 168.316 564.5 174.316 594 171.316 612 c 0
 169.816 624 124.316 628.5 112.816 629 c 1
 109.816 635 113.816 656.5 119.316 662 c 1
 155.816 659 202.316 656 239.816 656 c 0
EndSplineSet
Validated: 524321
EndChar

StartChar: J
Encoding: 74 74 41
Width: 321
Flags: W
HStem: -225.5 21.5<-80.1662 -60.0355> 628 32<138.305 190.322 319.138 378.015>
LayerCount: 2
Fore
SplineSet
261.5 653.5 m 0
 301.5 653.5 343 657 380.5 660 c 1
 382 657 380 635 375 628 c 1
 365.5 627.5 320.5 619.5 314.5 607.5 c 0
 303 584 295 550 288.5 514 c 2
 215 129.5 l 2
 168 -116.5 -4.5 -216.5 -74 -225.5 c 1
 -77.5 -222.5 -81 -215 -81 -210 c 0
 -81 -207.5 -80 -204.5 -79.5 -204 c 1
 28 -158.5 75.5 -57 109.5 122 c 2
 183.5 512.5 l 2
 190.5 551.5 196.5 577.5 194.5 605.5 c 0
 193.5 620.5 146.5 627.5 135 628 c 1
 133 631.5 137 655 141.5 660 c 1
 180 657 220.5 653.5 261.5 653.5 c 0
EndSplineSet
Validated: 524321
EndChar

StartChar: K
Encoding: 75 75 42
Width: 660
Flags: W
HStem: -3.5 33<-7.01172 61.505 179.918 235.574 557.384 610.074> 629 33<116.058 171.714 289.628 358.566 468.859 513.499 614.816 689.427>
LayerCount: 2
Fore
SplineSet
497.816 106.5 m 0
 545.817 37.5 584.817 29.5 613.317 27.5 c 1
 616.817 21.5 608.817 -0.5 607.817 -2.5 c 1
 563.317 -3.5 537.817 -2.5 510.316 1 c 0
 454.816 3.5 422.816 21.5 388.316 71.5 c 0
 369.316 99 299.816 209.5 241.316 303 c 0
 239.816 306 235.816 306.5 232.816 306.5 c 0
 229.316 306.5 225.816 305 223.316 302.5 c 1
 189.816 130.5 l 2
 182.816 94 176.816 64.5 179.816 46.5 c 0
 181.316 34.5 226.816 30 238.316 29.5 c 1
 241.316 23.5 237.316 2 231.816 -3.5 c 1
 195.316 -0.5 149.316 2.5 111.816 2.5 c 0
 74.3164 2.5 28.3164 -0.5 -9.68359 -3.5 c 1
 -13.1836 2 -8.68359 23.5 -3.18359 29.5 c 1
 8.3164 30 55.8164 34.5 61.8164 46.5 c 0
 71.3164 64.5 76.8164 94 83.8164 130.5 c 2
 161.316 528 l 2
 168.316 564.5 174.816 594 171.816 612 c 0
 170.316 624 124.816 628.5 113.316 629 c 1
 110.316 635 114.316 656.5 119.816 662 c 1
 156.316 659 202.816 656 240.316 656 c 0
 277.816 656 322.816 659 360.816 662 c 1
 364.316 656.5 360.316 635 354.816 629 c 1
 343.316 628.5 295.316 624 289.316 612 c 0
 279.816 594 273.816 564.5 266.816 528 c 2
 230.316 338.5 l 1
 265.316 362.5 312.816 401 349.316 433.5 c 0
 427.316 502.5 443.316 514.5 496.316 573 c 0
 505.816 583.5 512.317 596.5 513.817 605 c 0
 518.317 628 476.816 629 466.316 629 c 1
 463.816 636 466.816 653 471.816 662 c 1
 505.816 660 550.317 655.5 584.317 655.5 c 0
 625.317 655.5 656.817 659 693.317 662 c 1
 694.317 655.5 690.817 632.5 685.317 629.5 c 1
 676.317 628.5 617.817 625.5 578.817 589 c 1
 529.817 542 428.816 452.5 337.816 371 c 0
 330.816 364.5 331.316 360 334.316 355 c 0
 395.316 256 442.816 182.5 497.816 106.5 c 0
EndSplineSet
Validated: 524321
EndChar

StartChar: L
Encoding: 76 76 43
Width: 524
Flags: W
HStem: -1 40.5<181.543 388.255> -1 31<-7.10156 61.0449> 629 33<115.547 171.625 289.538 358.055>
LayerCount: 2
Fore
SplineSet
189.227 130 m 2x60
 187.227 119.5 176.727 67 181.227 54.5 c 0
 187.727 42.5 209.727 39.5 241.227 39.5 c 1
 298.727 39.5 l 2xa0
 333.727 39.5 374.227 47 402.227 68 c 0
 427.727 87 450.227 117 475.227 166 c 0
 477.227 170 482.727 172 489.727 172 c 0
 498.727 172 511.727 169 513.727 166 c 1
 485.727 112 446.227 41 431.227 -3 c 1
 367.727 -3 236.227 -1 111.727 -1 c 0
 56.7265 -1 14.7266 -3 -9.77344 -3 c 1
 -13.2734 2.5 -8.77344 24 -3.27344 30 c 1
 8.22656 30.5 55.7265 34.5 61.7266 46.5 c 0
 71.2265 64.5 76.7265 94 83.7265 130.5 c 2
 161.227 528 l 2
 168.227 564.5 174.727 594 171.727 612 c 0
 170.227 624 124.727 628.5 113.227 629 c 1
 110.227 635 113.727 656.5 119.227 662 c 1
 155.727 659 202.227 656 239.727 656 c 0
 277.227 656 322.727 659 360.727 662 c 1
 364.227 656.5 359.727 635 354.227 629 c 1
 342.727 628.5 295.227 624 289.227 612 c 0
 279.727 594 273.727 564.5 266.727 528 c 2
 189.227 130 l 2x60
EndSplineSet
Validated: 524321
EndChar

StartChar: M
Encoding: 77 77 44
Width: 862
Flags: W
HStem: -3.5 32.5<-16.0999 54.5968 139.967 202.164 529.863 597.54 721.271 777.215> 629 33<142.308 193.12 816.57 878.583>
LayerCount: 2
Fore
SplineSet
242.625 656.5 m 0
 274.625 656.5 300.125 660 329.625 662 c 1
 340.125 598.5 391.125 366 425.125 192 c 1
 425.625 191 427.125 190 428.125 190 c 0
 429.125 190 432.625 193 433.625 195 c 2
 433.625 195 596.125 484 627.625 544 c 1
 652.125 588.5 685.625 660 685.625 660 c 1
 704.125 658.5 753.625 656.5 771.625 656.5 c 0
 804.125 656.5 848.125 660 879.125 662 c 1
 880.625 658.5 879.625 632.5 876.625 628.5 c 1
 866.625 628.5 825.125 622.5 816.125 614 c 1
 808.125 606 802.625 594 799.625 574.5 c 1
 794.125 539.5 737.125 210 727.625 146 c 1
 721.125 107 716.625 72 720.625 47 c 0
 723.125 33 771.625 29.5 778.625 29.5 c 1
 781.125 20.5 778.125 3 774.625 -3.5 c 1
 737.625 -1.5 698.125 3 657.125 3 c 0
 614.125 3 569.625 -1.5 526.625 -3.5 c 1
 524.625 -0.5 528.125 21.5 532.625 29.5 c 1
 543.625 29.5 586.125 34 598.125 44.5 c 0
 604.625 50.5 611.125 71 613.625 83 c 0
 616.125 95 620.625 126 623.625 142.5 c 2
 688.625 531 l 2
 689.625 534.5 692.625 554 685.625 554 c 0
 683.625 554 682.625 552 679.625 547 c 2
 401.625 44.5 l 2
 396.625 35.5 369.125 -1 355.125 -2 c 0
 352.125 -2.5 350.125 -1 347.125 0 c 1
 237.125 553.5 l 1
 190.625 340.5 157.125 188 138.125 104.5 c 0
 134.625 89 131.625 62 132.125 54.5 c 0
 134.125 36.5 197.625 29.5 204.625 29.5 c 1
 206.625 23 203.125 3 199.625 -3.5 c 1
 162.625 -1.5 135.625 3 94.625 3 c 0
 51.625 3 23.625 -1.5 -19.375 -3.5 c 1
 -20.875 1 -18.375 20 -13.375 29 c 1
 -2.375 29 55.625 36.5 68.625 56 c 0
 77.125 67.5 88.625 106.5 93.125 125 c 0
 134.625 303.5 188.625 544 195.625 576.5 c 0
 197.625 587 199.625 598.5 197.125 607.5 c 1
 194.125 619 152.125 629 138.625 629 c 1
 135.625 633 143.125 660 145.125 662 c 1
 187.125 660 199.625 656.5 242.625 656.5 c 0
EndSplineSet
Validated: 524321
EndChar

StartChar: N
Encoding: 78 78 45
Width: 745
Flags: W
HStem: -3.5 33<-9.88866 63.2128 148.726 209.159> 630.5 33<115.313 172.785 552.198 614.162 695.015 770.808>
LayerCount: 2
Fore
SplineSet
218.955 657.5 m 0
 249.455 657.5 283.955 659.5 305.955 662 c 1
 331.955 583 469.955 361 548.955 207 c 1
 550.455 210.5 554.7 232 556.2 239 c 1
 608.955 510.5 l 1
 615.955 547.5 623.455 593.5 618.455 609 c 0
 614.455 623 562.455 630 549.455 630 c 1
 546.955 633.5 550.455 655.5 554.955 663 c 1
 594.455 661 621.955 656.5 663.955 656.5 c 0
 705.955 656.5 733.955 661 774.455 663 c 1
 775.955 657.5 774.455 640 766.955 629.5 c 1
 757.955 629.5 698.455 624.5 687.955 608 c 0
 678.955 593.5 666.955 549.5 659.955 512.5 c 2
 587.455 139 l 2
 576.455 81 571.455 51 563.455 -1 c 1
 560.455 -4 545.955 -5 542.955 -5 c 0
 534.955 -5 524.455 4.5 517.455 18 c 2
 227.455 544 l 1
 148.455 136 l 2
 141.455 100 137.955 68 141.955 53 c 0
 145.455 38.5 200.455 30 211.455 30 c 1
 214.955 21.5 209.455 2.5 206.455 -3.5 c 1
 169.455 -1.5 136.455 3 95.4551 3 c 0
 52.4551 3 29.4551 -1.5 -13.5449 -3.5 c 1
 -16.0449 3.5 -11.0449 24 -6.54492 29.5 c 1
 4.45508 29.5 60.9551 37.5 70.9551 52.5 c 0
 80.9551 67.5 90.9551 99 97.9551 137 c 1
 110.455 202.5 161.732 465.543 174.455 531 c 1
 183.203 577 182.955 593 176.455 610 c 0
 171.455 622.5 124.955 630.5 113.955 630.5 c 1
 109.955 636 113.955 658.5 118.955 663.5 c 1
 153.955 661.5 181.955 657.5 218.955 657.5 c 0
EndSplineSet
Validated: 524321
EndChar

StartChar: O
Encoding: 79 79 46
Width: 682
Flags: W
HStem: -10.5 39.5<256.735 400.432> 626.5 39.5<335.693 471.366>
VStem: 55 119<153.692 402.639> 556.5 119<247.542 501.501>
LayerCount: 2
Fore
SplineSet
404 626.5 m 5
 272 626.5 174 443.5 174 256 c 4
 174 141 211 29 327 29 c 5
 471 29 556.5 229.5 556.5 401.5 c 4
 556.5 507 519.502 626.5 404 626.5 c 5
419.5 666 m 4
 580.5 666 675.5 530 675.5 385.5 c 4
 675.5 140.5 486 -10.5 307 -10.5 c 4
 156 -10.5 55 117 55 269 c 4
 55 508.5 245.828 666 419.5 666 c 4
EndSplineSet
Validated: 524289
EndChar

StartChar: P
Encoding: 80 80 47
Width: 535
Flags: W
HStem: -3.5 33<-7.51172 61.5047 179.418 235.074> 282.5 35.5<259.91 344.769> 622 37.5<115.48 172.07 287.612 393.281>
LayerCount: 2
Fore
SplineSet
545.317 489.5 m 0
 533.817 361.741 416.816 282.5 308.816 282.5 c 0
 281.816 282.5 265.816 290.5 260.816 296 c 0
 258.212 298.883 253.316 309.5 253.316 314.5 c 0
 253.316 318.561 256.316 321.5 258.316 322 c 1
 267.816 319 276.316 318 290.316 318 c 0
 350.316 318 423.316 388.605 429.816 472.5 c 0
 438.316 545 418.316 622 335.816 622 c 0
 319.816 622 293.316 621 287.316 611 c 0
 280.316 599 275.816 572.5 269.816 543 c 2
 189.316 130.5 l 2
 182.316 94 176.316 64.5 179.316 46.5 c 0
 180.816 34.5 226.316 30 237.816 29.5 c 1
 240.816 23.5 236.816 2 231.316 -3.5 c 1
 194.816 -0.5 148.816 2.5 111.316 2.5 c 0
 73.8164 2.5 27.8164 -0.5 -10.1836 -3.5 c 1
 -13.6836 2 -9.1836 23.5 -3.68359 29.5 c 1
 7.81641 30 55.8164 34.5 61.8164 46.5 c 0
 71.3164 64.5 76.8164 94 83.8164 130.5 c 2
 161.316 528 l 2
 168.316 564.5 174.316 594 171.316 612 c 0
 169.816 624 123.816 627.5 112.316 628 c 1
 109.316 634 113.816 655.5 119.316 661 c 1
 158.816 658.5 203.316 657 240.816 657 c 0
 278.316 657 324.316 659.5 379.316 659.5 c 0
 479.816 659.5 555.817 584 545.317 489.5 c 0
EndSplineSet
Validated: 524321
EndChar

StartChar: Q
Encoding: 81 81 48
Width: 680
Flags: W
HStem: -138 61<499.029 602.451> 627 40<333.282 471.574>
LayerCount: 2
Fore
SplineSet
426.763 667 m 0
 590.763 667 692.263 524.5 672.763 360.5 c 0
 657.763 177 526.763 51 396.263 7 c 1
 476.263 -39 502.263 -77 598.263 -77 c 0
 628.263 -77 650.263 -72.5 657.263 -70.5 c 1
 664.263 -70.5 673.263 -74.5 674.763 -80.5 c 1
 640.263 -100 570.263 -138 513.263 -138 c 0
 410.263 -138 346.665 -45.4944 229.262 -4 c 0
 110.262 37.5 39.7627 151 55.7627 294.5 c 0
 73.7627 512.5 262.263 667 426.763 667 c 0
405.263 627 m 0
 266.263 627 188.762 446.5 175.762 297 c 0
 160.762 162 203.262 30 322.763 30 c 0
 460.263 30 540.263 209.5 553.263 359.5 c 0
 568.263 494.5 522.263 627 405.263 627 c 0
EndSplineSet
Validated: 524321
EndChar

StartChar: R
Encoding: 82 82 49
Width: 615
Flags: W
HStem: -3.5 33<-7.51172 61.5047 179.418 235.074 537.692 592.393> 300.5 35<229.316 274.792> 622 37.5<115.48 172.07 287.613 393.308>
LayerCount: 2
Fore
SplineSet
241.316 657 m 0
 278.816 657 324.316 659.5 379.316 659.5 c 0
 479.816 659.5 560.317 591 537.317 472 c 0
 521.817 392.5 429.316 337.5 375.316 320.5 c 1
 415.816 227.5 432.816 186.5 477.316 108 c 0
 514.817 46 561.817 29 594.317 27 c 1
 597.817 21 591.317 -1.5 590.317 -3.5 c 1
 545.817 -4.5 527.817 -3 500.316 0.5 c 0
 417.816 3 388.316 43.5 371.816 76 c 0
 366.816 86 293.816 238 273.816 287 c 0
 271.816 291.5 263.816 300.5 253.816 300.5 c 1
 250.316 300.5 222.816 300.5 222.816 300.5 c 1
 189.816 130.5 l 2
 182.816 94 176.316 64.5 179.316 46.5 c 0
 180.816 34.5 226.316 30 237.816 29.5 c 1
 240.816 23.5 236.816 2 231.316 -3.5 c 1
 194.816 -0.5 149.316 2.5 111.816 2.5 c 0
 74.3164 2.5 27.8164 -0.5 -10.1836 -3.5 c 1
 -13.6836 2 -9.1836 23.5 -3.68359 29.5 c 1
 7.81641 30 55.8164 34.5 61.8164 46.5 c 0
 71.3164 64.5 76.8164 94 83.8164 130.5 c 2
 161.316 528 l 2
 168.316 564.5 174.316 594 171.316 612 c 0
 169.816 624 123.816 627.5 112.316 628 c 1
 109.316 634 113.816 655.5 119.316 661 c 1
 158.816 658.5 203.816 657 241.316 657 c 0
229.316 335.5 m 1
 275.816 335.5 l 1
 341.816 335.5 404.316 378.5 422.316 455 c 0
 440.816 535.5 425.816 622 336.316 622 c 0
 320.316 622 293.316 621 287.316 611 c 0
 280.316 599 275.816 572.5 269.816 543 c 2
 229.316 335.5 l 1
EndSplineSet
Validated: 524321
EndChar

StartChar: S
Encoding: 83 83 50
Width: 464
Flags: W
HStem: -10 40.5<126.673 254.747> 629.5 38.5<239.962 357.379>
VStem: 21.3989 37.5<113.355 193.431>
LayerCount: 2
Fore
SplineSet
309.899 668 m 0
 366.399 668 405.399 654.5 456.899 642 c 1
 450.399 598.5 440.399 531.5 432.399 487 c 1
 429.541 481.57 424.399 480 420.899 480 c 0
 417.399 480 400.399 479.5 397.899 487.5 c 1
 401.899 555.5 378.399 629.5 300.399 629.5 c 0
 241.399 629.5 200.399 589.5 193.899 530.5 c 0
 187.899 458.708 252.399 414 303.399 372.5 c 0
 356.399 329.5 426.399 290.003 414.899 184 c 0
 404.399 67 282.399 -10 181.399 -10 c 0
 122.399 -10 68.3989 8.5 21.899 25 c 1
 14.8989 74 18.3989 165 21.3989 185 c 1
 25.399 190 42.8989 195 48.8989 195 c 0
 54.8989 195 57.8989 193 58.8989 188 c 1
 57.8989 139 95.399 30.5 188.399 30.5 c 0
 240.899 30.5 297.899 62.7851 304.899 138 c 0
 311.899 209.5 249.399 253 204.399 290 c 0
 145.171 338.682 78.3989 379.02 88.3989 482.5 c 0
 98.3989 591.5 215.399 668 309.899 668 c 0
EndSplineSet
Validated: 524321
EndChar

StartChar: T
Encoding: 84 84 51
Width: 577
Flags: W
HStem: -3.5 33<94.6719 163.189 281.102 337.18> 618.5 40.5<128.241 281 386.5 530.319>
VStem: 559 34<491.052 581.498>
LayerCount: 2
Fore
SplineSet
337 659 m 1
 509 659 l 1
 550 659 574 673 588.5 676 c 0
 597 678.5 599 678 603 675.5 c 1
 600.5 645 593 524 593 497.5 c 1
 590 494.5 577 490 569 490.5 c 0
 564 490.5 559.5 492 559 495.5 c 1
 561 563 535.5 618.5 489 618.5 c 2
 386.5 618.5 l 1
 291.5 130.5 l 2
 284.5 94 278 64.5 281 46.5 c 0
 282.5 34.5 328 30 339.5 29.5 c 1
 342.5 23.5 339 2 333.5 -3.5 c 1
 297 -0.5 251.5 2.5 214 2.5 c 0
 176.5 2.5 130 -0.5 92 -3.5 c 1
 88.5 2 93 23.5 98.5 29.5 c 1
 110 30 157.5 34.5 163.5 46.5 c 0
 173 64.5 179 94 186 130.5 c 2
 281 618.5 l 1
 177.5 618.5 l 2
 131 618.5 84 563 59.5 495.5 c 0
 57.5 492 52.5 490.5 47.5 490.5 c 0
 39 490 28.5 494.5 26.5 497.5 c 1
 37 524 76.5 645 85.5 675.5 c 1
 90.5 678 95.5 677 101.5 675.5 c 0
 115 672.5 132 659 173 659 c 1
 337 659 l 1
EndSplineSet
Validated: 524321
EndChar

StartChar: U
Encoding: 85 85 52
Width: 682
Flags: W
HStem: -6.5 65<220.21 368.216> 629 33<72.0947 127.751 245.664 314.18 500.384 558.508 640.264 715.257>
LayerCount: 2
Fore
SplineSet
195.853 656 m 0
 233.353 656 278.852 659 316.852 662 c 1
 320.352 656.5 315.852 635 310.352 629 c 1
 298.852 628.5 251.352 624 245.353 612 c 0
 235.853 594 229.853 564.5 222.853 528 c 2
 181.353 313 l 2
 167.299 240.054 164.437 185.914 179.136 139.5 c 0
 198.422 73.2302 253.289 58.5 300.852 58.5 c 0
 385.852 58.5 476.352 118 511.353 291.5 c 1
 554.353 512 l 2
 561.853 551.5 566.853 589.5 561.853 607.5 c 0
 557.853 622 511.353 629 497.853 629.5 c 1
 494.853 636.5 499.353 656.5 503.353 662.5 c 1
 543.353 659.5 569.853 656.5 611.853 656.5 c 0
 653.853 656.5 676.853 660.5 717.853 662.5 c 1
 720.353 657 718.353 638.5 711.853 629.5 c 1
 700.353 629 645.853 624 635.353 607.5 c 0
 624.353 590 613.353 553.5 605.853 513 c 2
 560.353 281 l 2
 520.853 79 394.352 -6.5 254.852 -6.5 c 0
 180.739 -6.5 119.246 20.3755 86.3745 73.5 c 0
 57.3087 119.987 50.798 185.74 68.3526 276 c 2
 117.353 528 l 2
 124.353 564.5 130.853 594 127.853 612 c 0
 126.353 624 80.8525 628.5 69.3525 629 c 1
 66.3526 635 70.3525 656.5 75.8525 662 c 1
 112.353 659 158.353 656 195.853 656 c 0
EndSplineSet
Validated: 524321
EndChar

StartChar: V
Encoding: 86 86 53
Width: 625
Flags: W
HStem: 629 33<39.089 83.4592 224.741 282.168 467.873 520.607 607.55 670.439>
LayerCount: 2
Fore
SplineSet
161.201 656 m 0
 201.201 656 248.201 659 285.701 662 c 1
 287.701 656 283.201 633 278.201 629 c 1
 268.701 628.5 221.201 625.5 216.201 599 c 0
 213.689 586.083 216.38 557.905 221.853 526 c 0
 242 415 287.141 159.78 288 160 c 1
 289.073 160.275 486.201 508.5 493.701 522.5 c 1
 507 547 523.201 578 526.701 597.5 c 0
 531.201 622.5 476.701 628.5 465.201 629 c 1
 461.701 633.5 466.201 656.5 471.701 662 c 1
 510.201 659 536.701 656 575.201 656 c 0
 617.201 656 635.201 660 673.701 662 c 1
 676.201 656.5 671.201 632.5 666.701 629 c 1
 657.201 628.5 617.201 625 600.201 607 c 0
 584.201 590 559.701 550.5 539.701 515 c 1
 482.201 414.5 313.201 123.5 259.201 31 c 1
 246.201 8.5 223.201 -6.5 211.701 -6.5 c 0
 205.701 -6.5 205.701 3 203.701 8.5 c 1
 189.201 97.5 128.201 416 112.201 512 c 1
 106.201 546 99.201 578 91.701 601 c 0
 85.201 622 46.7011 628.5 35.2011 629 c 1
 32.7011 632.5 38.7011 658 42.2011 662 c 1
 80.701 659 120.201 656 161.201 656 c 0
EndSplineSet
Validated: 524321
EndChar

StartChar: W
Encoding: 87 87 54
Width: 869
Flags: W
HStem: 629 33<40.0984 84.7793 223.934 278.668 708.295 761.029 848.837 911.535>
LayerCount: 2
Fore
SplineSet
159.5 656 m 0
 199.5 656 244.701 659 282.201 662 c 1
 284.201 656 279.701 633 274.701 629 c 1
 265.201 628.5 216.223 623.996 213.701 593 c 0
 213.19 587.666 214.43 563.375 217.279 534 c 0
 228.13 430.473 245.513 272.185 251.439 197.76 c 1
 251.439 197.76 446.701 594.5 464.201 627 c 1
 474 646 492.201 662 502.201 662 c 0
 506.201 662 507.701 657 510.201 646 c 1
 525.694 551.074 564.782 278.899 576.758 179.508 c 1
 576.758 179.508 729.701 506.5 737.701 522.5 c 1
 749 547.5 763.701 578 767.201 597.5 c 0
 771.701 622.5 716.701 628.5 705.201 629 c 1
 701.701 633.5 706.701 656.5 712.201 662 c 1
 750.701 659 777.701 656 816.201 656 c 0
 858.201 656 876.701 660 915.201 662 c 1
 917.701 656.5 912.201 632.5 907.701 629 c 1
 898.201 628.5 859.201 623.5 841.201 607 c 0
 824.701 591 807.76 565.473 789.701 527.5 c 1
 742.701 433 597.701 128.5 550.201 36 c 1
 539.701 14.5 517.201 -6.5 505.701 -6.5 c 0
 499.701 -6.5 496.701 3 495.201 8.5 c 1
 484.221 102.324 440.029 366.289 428.068 463.453 c 1
 428.068 463.453 255.701 110 218.701 38 c 1
 211.421 23.5373 188.201 -6.5 176.701 -6.5 c 0
 170.701 -6.5 167.201 3 165.701 8.5 c 1
 107.201 521 l 2
 104.201 556 103.177 571.982 93.201 601.5 c 0
 86.2518 621.188 48.2011 628.5 36.7011 629 c 1
 33.7011 632.5 39.7011 658 43.2011 662 c 1
 81.701 659 118.5 656 159.5 656 c 0
EndSplineSet
Validated: 524321
EndChar

StartChar: X
Encoding: 88 88 55
Width: 685
Flags: W
HStem: -3.5 33<-33.1493 39.3681 134.659 196.054 349.032 404.292 557.482 613.115> 629 33<119.17 171.077 320.54 376.449 500.557 554.287 655.212 718.676>
LayerCount: 2
Back
SplineSet
325.12 592.5 m 1
 348.12 592.5 452.62 406.5 471.62 407.5 c 1
EndSplineSet
Fore
SplineSet
252.677 656.5 m 0
 298.677 656.5 342.177 660 380.177 662 c 1
 381.177 656 377.177 629 372.177 629 c 1
 359.177 629 319.177 623 314.677 602.5 c 0
 313.177 595.5 314.677 585.5 318.677 576.5 c 2
 391.177 403 l 1
 452.677 471.5 534.177 557.5 553.677 588 c 0
 556.177 591.5 559.177 596.5 559.677 601 c 0
 561.677 612.5 540.677 628.5 498.677 628.5 c 1
 494.177 629 498.677 655.5 503.677 661.5 c 1
 538.177 658 580.177 655.5 614.177 655.5 c 0
 662.177 655.5 696.677 658.5 722.177 661.5 c 1
 724.177 656 720.177 631.5 714.177 628.5 c 1
 707.177 628.5 654.177 625.5 612.677 582 c 2
 406.177 365 l 1
 432.677 301.5 527.177 79.5 532.677 71 c 1
 548.677 39 594.177 29.5 616.177 29.5 c 1
 618.677 22.5 613.677 1.5 610.177 -3.5 c 1
 573.177 -1.5 527.177 2 489.177 2 c 0
 437.177 2 398.677 -1.5 346.677 -3.5 c 1
 342.677 1.5 348.677 29.5 353.677 29.5 c 0
 363.677 29.5 409.177 39 412.677 57.5 c 0
 413.677 60.5 412.177 66 411.177 69 c 2
 320.677 286.5 l 1
 276.177 236.5 166.178 112 139.178 74.5 c 0
 135.178 69 130.678 62.5 129.678 58 c 0
 126.678 43 157.678 29.5 197.677 29.5 c 1
 200.677 23 197.177 3.5 193.677 -3.5 c 1
 161.678 -1.5 114.678 2 80.6777 2 c 0
 32.6777 2 1.17775 -1.5 -36.8223 -3.5 c 1
 -39.3223 2.5 -33.8223 24.5 -29.8223 29.5 c 1
 -22.8223 29.5 40.6777 32.5 76.1777 72.5 c 2
 302.177 327 l 1
 213.677 542.5 l 2
 201.177 574 188.677 600.5 171.677 613.5 c 0
 159.177 623.5 127.678 629 116.678 629 c 1
 111.678 629 117.178 657 123.178 662 c 1
 168.177 660 206.677 656.5 252.677 656.5 c 0
EndSplineSet
Validated: 524321
EndChar

StartChar: Y
Encoding: 89 89 56
Width: 574
Flags: W
HStem: -3.5 33<79.1954 147.712 265.625 321.703> 629 33<36.6251 79.6421 229.226 286.917 413.041 469.445 548.864 615.686>
LayerCount: 2
Fore
SplineSet
170.523 130.5 m 2
 198.523 275.5 l 1
 199.523 282.5 199.523 290.5 197.023 299.5 c 1
 190.523 327 120.023 542.5 120.023 542.5 c 2
 109.461 574.979 102.023 586.5 87.0235 604.5 c 0
 75.5235 622 45.5234 628.5 34.0235 629 c 1
 30.0235 632.5 35.0235 656.5 40.5235 662 c 1
 80.5235 659 121.523 656 164.023 656 c 0
 206.523 656 252.523 659 290.023 662 c 1
 292.023 656 288.523 632.5 283.023 629 c 1
 270.523 628.5 226.023 625 221.023 599.5 c 0
 219.523 593.5 222.5 586.5 225.523 576.5 c 2
 299.255 346.255 l 1
 332.772 387.901 430.135 529.704 466.523 585 c 0
 470.023 590.5 473.023 597.5 474.023 604 c 0
 476.023 616 442.523 628 410.523 628.5 c 1
 407.5 633.5 412 656.5 416.023 661.5 c 1
 454.523 658.5 476.523 655.5 515.023 655.5 c 0
 559.523 655.5 581.023 659.5 619.523 661.5 c 1
 621.023 657 616.523 632 612.023 628.5 c 1
 602.523 628 554.023 627.5 530.523 596 c 1
 518.523 581.5 333.023 329 314.023 299.5 c 1
 307.523 290.5 306.023 282 304.523 274.5 c 1
 276.023 130.5 l 2
 268.523 94 262.523 64.5 265.523 46.5 c 0
 267.023 34.5 312.523 30 324.023 29.5 c 1
 327.023 23.5 323.523 2 318.023 -3.5 c 1
 281.523 -0.5 235.523 2.5 198.023 2.5 c 0
 160.523 2.5 114.523 -0.5 76.5235 -3.5 c 1
 73.0235 2 77.5235 23.5 83.0235 29.5 c 1
 94.5235 30 142.023 34.5 148.023 46.5 c 0
 157.523 64.5 163.023 94 170.523 130.5 c 2
EndSplineSet
Validated: 524321
EndChar

StartChar: Z
Encoding: 90 90 57
Width: 616
Flags: W
HStem: 0 42<136.885 433.569> 617 41<218.791 486.589> 645.5 20G<152.962 171.462>
LayerCount: 2
Fore
SplineSet
289.212 617 m 2xc0
 208.213 616.862 167.212 555 132.712 483 c 0
 130.712 480 127.713 478 120.713 478 c 0
 111.713 478 98.2124 481.5 96.2124 484.5 c 1
 119.713 536.5 142.712 599.5 163.212 665.5 c 1xa0
 179.712 662 242.212 658 261.212 658 c 2
 416.712 658.5 l 2
 494.712 659 545.213 662.5 624.213 668.5 c 1
 628.213 667.5 633.713 650 631.713 641 c 1
 628.734 633.056 241.284 161.189 136.885 42 c 1
 143.885 42 359.712 42 359.712 42 c 2
 400.487 42 434.309 58.5166 460 83.6644 c 0
 484.822 107.952 501.928 135.936 521.213 171 c 0
 522.713 174 528.713 175.5 534.713 175.5 c 0
 543.713 175.5 556.213 171.5 558.713 168 c 1
 527.213 102 498.712 47 480.712 0.5 c 1
 461.212 0.5 6.7124 0 6.7124 0 c 1
 -4.2876 0 -14.7876 13 -10.2876 18 c 2
 489.212 617.5 l 1
 289.212 617 l 2xc0
EndSplineSet
Validated: 524289
EndChar

StartChar: bracketleft
Encoding: 91 91 58
Width: 303
Flags: W
HStem: 701 48.5<215.703 323.726>
VStem: 7.5 338.5
LayerCount: 2
Fore
SplineSet
168.5 733.5 m 2
 169.5 736.5 174 749.5 184.5 749.5 c 0
 248.5 749.5 314.5 755 341 757 c 1
 343.5 755.5 346 754 346 748 c 0
 346 731.5 329.5 719.5 324.5 717 c 1
 308.5 710 260 702 225.5 701 c 0
 220.5 701 219 696 218 694 c 1
 71 -52.5 l 1
 70.5 -54.5 71.5183 -59.1687 76.5 -60 c 0
 104 -64.5 148.5 -75.5 169.5 -88.5 c 0
 174.721 -91.7124 184 -101 184 -109 c 0
 184 -119.09 178.5 -124 176.5 -125.5 c 1
 142 -119 64.5 -105 14.5 -104.5 c 0
 10.5 -104.5 6.30615 -100.073 7.5 -94 c 1
 34.5 45 168.5 733.5 168.5 733.5 c 2
EndSplineSet
Validated: 524289
EndChar

StartChar: backslash
Encoding: 92 92 59
Width: 281
Flags: W
VStem: 63.5 177.5
LayerCount: 2
Fore
SplineSet
241 -4 m 2
 244 -20 222.5 -40 211.5 -40 c 0
 207.5 -40 203.5 -40 199.5 -37 c 1
 147.5 269 63.5 755 63.5 755 c 1
 65.5 758 71.5 762 77.5 762 c 0
 98.5 762 115 735 117 725 c 2
 241 -4 l 2
EndSplineSet
Validated: 524321
EndChar

StartChar: bracketright
Encoding: 93 93 60
Width: 294
Flags: W
HStem: -117.5 52.5<-11.125 84.0625>
VStem: -35 330.5
LayerCount: 2
Fore
SplineSet
127.5 757 m 1
 146 755.5 217 748 284 748 c 0
 293.5 748 296 740.5 295.5 735 c 0
 295 729.5 213 311.5 212.5 310 c 2
 212 309.5 133.5 -92 129.5 -92.5 c 1
 97 -96 70 -111.5 42 -117.5 c 1
 3 -117 -35 -120 -35 -116.5 c 1
 -35 -110.5 -28.5 -103.5 -23.5 -98 c 0
 -11.5 -84.5 14 -71.5 30 -65 c 1
 44.5 -60 62 -54.5 82.5 -52.5 c 1
 85.5 -52.5 160.5 324 160.5 324 c 1
 161 326.5 231.5 696 228.5 696.5 c 1
 216.5 698 194.5 705.5 178.5 711.5 c 1
 148 714.5 125 726 125 730.5 c 1
 124 735.5 119 729.5 119 741.5 c 0
 119 750 124.5 757 127.5 757 c 1
EndSplineSet
Validated: 524321
EndChar

StartChar: asciicircum
Encoding: 94 94 61
Width: 313
Flags: W
HStem: 472 218
VStem: 17 283
LayerCount: 2
Fore
SplineSet
17 499 m 1
 25.5 513.5 109 566 178.5 677 c 0
 184 686.5 183.5 690 190.5 690 c 0
 213 690 200.5 669 241 588 c 0
 256.5 558 299 505 300 500 c 1
 298.5 494 289.5 472 282.5 472 c 0
 265 472 201 544.5 175 589.5 c 1
 124.5 532.5 37 472 24 472 c 0
 17 472 17 488 17 499 c 1
EndSplineSet
Validated: 524289
EndChar

StartChar: underscore
Encoding: 95 95 62
Width: 491
Flags: W
HStem: -44 59<4.98444 430.328>
LayerCount: 2
Fore
SplineSet
-3.5 -36 m 1
 -3.5 -33.5 9 15 20 15 c 2
 436 15 l 2
 439 15 440 12.5 440 9 c 0
 440 4 434.5 -14 423.5 -38 c 0
 420.5 -44 416 -44 416 -44 c 1
 1.5 -44 l 1
 1.5 -44 -4.5 -44 -3.5 -36 c 1
EndSplineSet
Validated: 524289
EndChar

StartChar: grave
Encoding: 96 96 63
Width: 169
Flags: W
HStem: 524.5 162.5
VStem: 21 135
LayerCount: 2
Fore
SplineSet
21 656.5 m 0
 21 666 33 687 66.5 687 c 0
 80 687 92.5 683 96 678 c 0
 122 636 156 544.5 156 541 c 1
 156 535.5 146.5 524.5 139.5 524.5 c 0
 130.5 524.5 21 615.5 21 656.5 c 0
EndSplineSet
Validated: 524289
EndChar

StartChar: a
Encoding: 97 97 64
Width: 450
Flags: W
HStem: -7 70.5<83.8565 175.497> 394.5 47.5<220.361 325.25>
VStem: 11 100<74.5765 223.751> 236 98.5<26.2572 161.515>
LayerCount: 2
Fore
SplineSet
307.5 442 m 0
 343 442 380.5 433.5 400 426.5 c 1
 338.5 119 l 2
 337.5 115 334.5 91.5 334.5 86.5 c 0
 334.5 77.5 336.5 63.5 346.5 63.5 c 0
 368 63.5 414 118.5 417 123 c 1
 422 123 429 106 429 100 c 1
 415 74.5 334.5 -7 284 -7 c 0
 256 -7 236 15 236 52 c 0
 236 58 238 74 240.5 88 c 0
 242.5 101 244 107.5 245 113 c 1
 224.5 76.5 157.5 -6 98.5 -6 c 0
 43.5 -6 11 45 11 114 c 0
 11 290.5 183 442 307.5 442 c 0
256.5 394.5 m 0
 184 394.5 111 268 111 151.5 c 0
 111 96.5 126 67 154.5 67 c 0
 196.5 67 257 180 276.5 277.5 c 2
 297 381 l 1
 289 390 270 394.5 256.5 394.5 c 0
EndSplineSet
Validated: 524289
EndChar

StartChar: b
Encoding: 98 98 65
Width: 422
Flags: W
HStem: -6 39<100.614 201.857> 370.5 71.5<260.257 345> 631.5 25<59.6956 116.211> 670.5 20G<208 221.5>
VStem: 120 105<552.535 674.5> 298.5 101.5<213.11 367.322>
LayerCount: 2
Fore
SplineSet
265 370.5 m 0
 221 370.5 144.5 260.5 125.5 161.5 c 0
 112 93 119.5 33 161 33 c 0
 235 33 298.5 213.5 298.5 302 c 0
 298.5 333 294.5 370.5 265 370.5 c 0
154 310.5 m 1
 203 390.5 279.5 442 319.5 442 c 0
 370.5 442 400 400.5 400 329.5 c 0
 400 145.5 241.5 -6 131 -6 c 0
 71.5 -6 26.5 37.5 26.5 109 c 0
 26.5 120.5 30 147 32.5 160 c 2
 111 559.5 l 2
 115 577.5 120 601.5 120 612.5 c 0
 120 631.5 75 631.5 59 631.5 c 1
 56 635.5 59 652.5 63 656.5 c 1
 118 661.5 197 682.5 219 690.5 c 1
 224 687.5 225 677.5 225 671.5 c 0
 225 663.5 217 621 212 596.5 c 2
 154 310.5 l 1
EndSplineSet
Validated: 524321
EndChar

StartChar: c
Encoding: 99 99 66
Width: 356
Flags: W
HStem: -6 71<97 196.336> 396.5 45.5<187.218 283>
VStem: 14 102<83.7771 245.271>
LayerCount: 2
Fore
SplineSet
265 442 m 0
 301 442 327 429 340 418.5 c 1
 344.5 412 352 397 352 380 c 0
 352 353.5 333.5 327 307 327 c 0
 287.5 327 272 340 263.5 355.5 c 0
 254 372 241 396.5 215.5 396.5 c 0
 169.5 396.5 116 285.5 116 166 c 0
 116 114.5 130 65 181.5 65 c 0
 226.5 65 280 128 283 131 c 1
 288.5 131 295.5 114 295.5 108 c 1
 282.5 87 199 -6 129.5 -6 c 0
 64.5 -6 14 42 14 135.5 c 0
 14 293.5 153.5 442 265 442 c 0
EndSplineSet
Validated: 524289
EndChar

StartChar: d
Encoding: 100 100 67
Width: 453
Flags: W
HStem: -6 73<67 154.282 271.75 355.75> 394.5 47.5<256 308> 631.5 25<279.196 335.711> 670.5 20G<427.5 441>
VStem: 9.5 100<74.8898 220.718> 339.5 105<550.109 674.5>
LayerCount: 2
Fore
SplineSet
286.5 347 m 1
 288.5 373.5 278 394.5 256 394.5 c 0
 181.5 394.5 109.5 267.5 109.5 151 c 0
 109.5 99.5 123.5 67 153 67 c 0
 195.5 67 259.5 190 275 278.5 c 1
 275 278.5 286.5 340.5 286.5 347 c 1
330.5 559.5 m 1
 333.5 577.5 339.5 601.5 339.5 612.5 c 0
 339.5 631.5 294.5 631.5 278.5 631.5 c 1
 275.5 635.5 278.5 652.5 282.5 656.5 c 1
 337.5 661.5 416.5 682.5 438.5 690.5 c 1
 443.5 687.5 444.5 677.5 444.5 671.5 c 0
 444.5 663.5 436.5 621 431.5 596.5 c 2
 337 119 l 2
 336 115 333 91 333 86 c 0
 333 77 335 63.5 345 63.5 c 0
 366.5 63.5 412.5 118.5 415.5 123 c 1
 420.5 123 427.5 106 427.5 100 c 1
 413.5 74.5 333 -7 282.5 -7 c 0
 261 -7 246 8 240.5 31 c 0
 237.5 39.5 236 57 238 78.5 c 0
 240 92 242 105.5 243.5 113 c 1
 225.5 79.5 156.5 -6 96.5 -6 c 0
 37.5 -6 9.5 52.5 9.5 115.5 c 0
 9.5 277.5 166 432 293 441.5 c 0
 308.5 442 302 442 308 442 c 1
 330.5 559.5 l 1
EndSplineSet
Validated: 524321
EndChar

StartChar: e
Encoding: 101 101 68
Width: 365
Flags: W
HStem: -6 71<90.5 190.339> 190.5 31.5<119 161.395> 403 39<192.846 290.5>
VStem: 13.5 101<83.5899 189.216> 257 96.5<303.855 400.446>
LayerCount: 2
Fore
SplineSet
265 442 m 0
 316 442 353.5 415 353.5 365 c 0
 353.5 265.5 178.5 190.5 116.5 190.5 c 1
 115.5 187.5 114.5 167 114.5 162 c 0
 114.5 113 129.5 65 179.5 65 c 0
 224.5 65 278.5 129 281.5 132 c 1
 287.5 132 295 113 295 107 c 1
 282 85 189 -6 126 -6 c 0
 55 -6 13.5 46.5 13.5 139.5 c 0
 13.5 287.5 150 442 265 442 c 0
119 222 m 1
 158 222 257 289.5 257 363.5 c 0
 257 386 243.5 403 223 403 c 0
 164.5 403 124 273 119 222 c 1
EndSplineSet
Validated: 524289
EndChar

StartChar: f
Encoding: 102 102 69
Width: 334
Flags: W
HStem: -225.5 44.5<-46.25 34.0594> 377 41.5<81.7066 148.5 250.5 354.309> 645.5 44.5<308.418 388.75>
DStem2: 37.6286 -225.5 131.851 -225.5 0.190809 0.981627<156.448 612.586 672.786 809.772>
LayerCount: 2
Fore
SplineSet
373 690 m 0
 404.5 690 428 679 437 668.5 c 1
 439.5 663.031 441.445 655.521 441.329 647.5 c 0
 440.464 623.572 428.708 599.5 407.5 599.5 c 0
 390.5 599.5 378.5 609.5 367.5 623 c 0
 359.5 633 350.5 645.5 334.5 645.5 c 0
 299.5 645.5 281.5 577.5 250.5 418.5 c 1
 350.5 418.5 l 2
 354.5 418.5 355.5 411.5 355.5 406.5 c 0
 355.5 396.5 350.5 385 345.5 377 c 1
 242.5 377 l 1
 242.5 377 209.5 176.5 185.5 50.5 c 0
 153.5 -113.5 49.5 -225.5 -30.5 -225.5 c 0
 -62 -225.5 -85.5 -214.5 -94.5 -204 c 1
 -97 -197.408 -98.828 -188.686 -98.457 -179.5 c 0
 -97.0395 -156.737 -85.2185 -135 -65 -135 c 0
 -48 -135 -36 -145 -25 -158.5 c 0
 -17 -168.5 -8 -181 8 -181 c 0
 47 -181 59.5 -112.5 90.5 46.5 c 1
 148.5 377 l 1
 73.5 377 l 2
 72.5 377 71.5 378 71.5 380 c 0
 71.5 390 95.5 418.5 118.5 418.5 c 2
 155.5 418.5 l 1
 187.5 582.5 299.5 690 373 690 c 0
EndSplineSet
Validated: 524289
EndChar

StartChar: g
Encoding: 103 103 70
Width: 445
VWidth: 512
Flags: W
HStem: -229.5 43<101.271 255.529> 387 52<369.274 447.213> 411 36<201.565 272.289>
VStem: -33 95<-151.664 -66.1889> 55.5 128.5<45.75 104.5> 60 94.5<190.619 344.755> 295.5 84<-131.12 -4.75> 296 93<227.034 387.2>
LayerCount: 2
Fore
SplineSet
295.5 -115.5 m 0x92
 295.5 -63.5 200 -28.5 141.5 -10.5 c 1
 103.5 -28.5 62 -53.5 62 -97 c 0
 62 -159.5 121 -186.5 190 -186.5 c 0
 241 -186.5 295.5 -158.5 295.5 -115.5 c 0x92
243 411 m 0xa5
 186.5 412 156 330 154.5 262 c 0
 153.5 214 167.5 166 207 165 c 0
 258 164 295 237 296 298 c 0
 297 346 282 410 243 411 c 0xa5
368 387.5 m 1
 370.5 381.5 389 349.5 389 310.5 c 0
 389 210.5 308.5 158 274.5 142.5 c 0
 243 126.5 184 115.5 184 93.5 c 0xc9
 184 62 379.5 49.5 379.5 -59 c 0
 379.5 -154 278.5 -229.5 134 -229.5 c 0
 34 -229.5 -33 -185.5 -33 -122.5 c 0xd2
 -33 -52.5 53.5 -17 107 5 c 1
 107 5 79 19.5 75.5 23 c 1
 65.5 31 55.5 36.5 55.5 55 c 0xc8
 55.5 80 137.5 123.5 178 133 c 1
 131 141 60 179 60 258 c 0
 60 364 150 447 245.5 447 c 1xa4
 284 447 310.5 435.5 335.5 424 c 0
 347 418.5 397 437 410 439 c 1
 423 435 456 415.5 456 403 c 0
 456 396 450 387 442 387 c 0xc4
 428 387 381 388 368 387.5 c 1
EndSplineSet
Validated: 524321
EndChar

StartChar: h
Encoding: 104 104 71
Width: 466
Flags: W
HStem: -7 70.5<287.75 374.75> 350 92<265.75 359.25> 631.5 25<66.1956 122.711> 670.5 20G<214.5 228>
VStem: 126.5 105<549.419 674.5> 253 99<27.7834 181.379> 299.5 99.5<220.16 397.425>
LayerCount: 2
Fore
SplineSet
218.5 596.5 m 1xfa
 218.5 596.5 165.5 326.5 164.5 322 c 1
 163 316 152.5 261 151.5 256 c 1
 173 302.5 277.5 442 335.5 442 c 1
 383 442 399 413 399 365.5 c 0xfa
 399 331.5 388.5 278.5 382 246.5 c 2
 356 119 l 2
 355 115 352 91.5 352 86.5 c 0
 352 77.5 354 63.5 364 63.5 c 0
 385.5 63.5 431.5 118.5 434.5 123 c 1
 439.5 123 446.5 106 446.5 100 c 1
 432.5 74.5 352 -7 301.5 -7 c 0
 274 -7 253 14 253 54.5 c 0xfc
 253 65.5 257.5 96.5 261 111 c 1
 290 253 l 2
 292.5 263.5 299.5 307.5 299.5 318 c 0
 299.5 334.5 296 350 282 350 c 0
 249.5 350 150.5 227 125 105 c 1
 122 89.5 107.5 23 102.5 0 c 1
 92.5 -3 67 -5 56.5 -5 c 0
 46 -5 22 -3 10 0 c 1
 13 15.5 117 556.5 117.5 559.5 c 1
 121 578 126.5 601.5 126.5 612.5 c 0
 126.5 631.5 81.5 631.5 65.5 631.5 c 1
 62.5 635.5 65.5 652.5 69.5 656.5 c 1
 124.5 661.5 203.5 682.5 225.5 690.5 c 1
 230.5 687.5 231.5 677.5 231.5 671.5 c 0
 231.5 663.5 222.5 616 218.5 596.5 c 1xfa
EndSplineSet
Validated: 524289
EndChar

StartChar: i
Encoding: 105 105 72
Width: 268
VWidth: 512
Flags: W
HStem: -7 70.5<86 172.75> 371.5 70.5<84.25 168.25> 543 123.5<139 212.688>
VStem: 51 99<27.7834 177.461> 107.5 98.5<257.539 406.139> 120 112<562.724 647.872>
LayerCount: 2
Fore
SplineSet
103 316 m 2xf0
 104 321 107.5 343.5 107.5 348.5 c 0
 107.5 357.5 105 371.5 95 371.5 c 0
 73.5 371.5 27.5 316.5 24.5 312 c 1
 19.5 312 12.5 329 12.5 335 c 1
 26.5 360.5 102.5 442 153 442 c 0
 183.5 442 206 418.5 206 380.5 c 0xe8
 206 369.5 201 339.5 198 324 c 1
 154 119 l 2
 152.5 112 150 91.5 150 86.5 c 0
 150 77.5 152 63.5 162 63.5 c 0
 183.5 63.5 229.5 118.5 232.5 123 c 1
 237.5 123 244.5 106 244.5 100 c 1
 230.5 74.5 150 -7 99.5 -7 c 0
 72.5 -7 51 14 51 54.5 c 0
 51 65.5 56 96.5 59 111 c 1
 103 316 l 2xf0
185 666.5 m 0
 212.5 666.5 232 643.5 232 615.5 c 0
 232 578 202.5 543 166 543 c 0
 138 543 120 567.5 120 596 c 0xe4
 120 633 149 666.5 185 666.5 c 0
EndSplineSet
Validated: 524289
EndChar

StartChar: j
Encoding: 106 106 73
Width: 303
VWidth: 512
Flags: W
HStem: -226.5 21G<-42.75 -24.75> 371.5 70.5<134.75 218.75> 543.5 124<201.5 275.188>
VStem: 158 98.5<252.277 406.139> 182.5 112<563.224 649.441>
LayerCount: 2
Fore
SplineSet
153.5 316 m 2xf0
 154.5 321 158 343.5 158 348.5 c 0
 158 357.5 155.5 371.5 145.5 371.5 c 0
 124 371.5 78 316.5 75 312 c 1
 70 312 63 329 63 335 c 1
 77 360.5 153 442 203.5 442 c 0
 234 442 256.5 418.5 256.5 380.5 c 0
 256.5 369.5 251.5 339.5 248.5 324 c 1
 248.5 324 209.5 120 202 82.5 c 1
 190.5 22.5 165 -43.5 123 -99.5 c 0
 80.5 -155.5 -9 -215.5 -40.5 -226.5 c 1
 -45 -225 -49.5 -213.5 -49.5 -205.5 c 1
 36.5 -146 78 -69 103.5 61 c 1
 153.5 316 l 2xf0
247.5 667.5 m 0
 275 667.5 294.5 644 294.5 616 c 0
 294.5 578.5 265 543.5 228.5 543.5 c 0
 200.5 543.5 182.5 568 182.5 596.5 c 0xe8
 182.5 633.5 211.5 667.5 247.5 667.5 c 0
EndSplineSet
Validated: 524289
EndChar

StartChar: k
Encoding: 107 107 74
Width: 460
VWidth: 512
Flags: W
HStem: -4 70.5<264 369.75> 381 61<268.142 366.25> 631.5 25<66.6956 123.211> 670.5 20G<215 228.5>
VStem: 127 105<548.133 674.5> 317 103.5<312.415 379.973>
DStem2: 8.93091 -5.5 101.931 -5.5 0.190809 0.981627<14.9929 226.624 361.256 628.659>
LayerCount: 2
Fore
SplineSet
342 442 m 1
 390.5 442 420.5 414.5 420.5 372 c 0
 420.5 293.5 322 242.5 229 220.5 c 1
 281.5 130.5 317.5 66.5 359.5 66.5 c 0
 380 66.5 418 110 427.5 122.5 c 1
 434 122.5 439.5 105 439.5 100 c 1
 430.5 79.5 355 -4 303 -4 c 0
 225 -4 174 128 142 199.5 c 1
 134.5 162 103 0 103 0 c 1
 92.5 -3 68.5 -5.5 57.5 -5.5 c 0
 46.5 -5.5 22 -3 10 0 c 1
 13 15.5 117.5 556.5 118 559.5 c 1
 122 578 127 601.5 127 612.5 c 0
 127 631.5 82 631.5 66 631.5 c 1
 63 635.5 66 652.5 70 656.5 c 1
 125 661.5 204 682.5 226 690.5 c 1
 231 687.5 232 677.5 232 671.5 c 0
 232 663.5 223 616 219 596.5 c 2
 168.5 331.5 l 1
 177 346.5 257 442 342 442 c 1
286.5 381 m 1
 228 381 156 281.5 150 239 c 1
 214.5 239 317 279.5 317 348 c 1
 317 362 312 381 286.5 381 c 1
EndSplineSet
Validated: 524289
EndChar

StartChar: l
Encoding: 108 108 75
Width: 239
Flags: W
HStem: -7 70.5<55.25 142.25> 631.5 25<64.6956 121.211> 670.5 20G<213 226.5>
VStem: 20.5 99<27.7834 179.883> 125 105<552.113 674.5>
LayerCount: 2
Fore
SplineSet
116 559.5 m 2
 119.5 577.5 125 601.5 125 612.5 c 0
 125 631.5 80 631.5 64 631.5 c 1
 61 635.5 64 652.5 68 656.5 c 1
 123 661.5 202 682.5 224 690.5 c 1
 229 687.5 230 677.5 230 671.5 c 0
 230 663.5 222 621 217 596.5 c 2
 123.5 119 l 2
 122.5 114 119.5 91.5 119.5 86.5 c 0
 119.5 77.5 121.5 63.5 131.5 63.5 c 0
 153 63.5 199 118.5 202 123 c 1
 207 123 214 106 214 100 c 1
 200 74.5 119.5 -7 69 -7 c 0
 41.5 -7 20.5 14 20.5 54.5 c 0
 20.5 65.5 25.5 96.5 28.5 111 c 1
 116 559.5 l 2
EndSplineSet
Validated: 524289
EndChar

StartChar: m
Encoding: 109 109 76
Width: 719
Flags: W
HStem: -4.5 21G<305.75 318.25> 350 92<290.495 369.78 519.356 594.564> 371.5 70.5<88 145.496>
VStem: 107.5 98.5<243.497 406.139> 327 98.5<234.057 376.25> 505 99<27.7834 177.761> 553 99.5<221.516 397.635>
DStem2: 39.1393 -7 132.139 -7 0.190809 0.981627<16.9128 250.535 285.032 361.769> 263.639 -7 357.139 -7 0.190809 0.981627<17.6262 260.905 304.718 332.627> 490.063 -7 583.508 -7 0.190809 0.981627<113.762 330.53>
LayerCount: 2
Fore
SplineSet
513 111 m 1xdc
 518 133.5 543.5 253 543.5 253 c 2
 546 263.5 553 307.5 553 318 c 0
 553 336 550 350 535.5 350 c 0
 501 350 404.5 225.5 381 111.5 c 1
 358.5 0 l 1
 346.5 -2 324.5 -4.5 312 -4.5 c 0
 299.5 -4.5 278 -2 265 0 c 1
 319 263 l 2
 322 277 327 310.5 327 320 c 0
 327 338 321 350 309 350 c 0xda
 272 350 180 218 156 106.5 c 2
 133.5 0 l 1
 121.5 -2.5 100 -5 87.5 -5 c 0
 75 -5 53.5 -2.5 40.5 0 c 1
 103 316 l 2
 104 321 107.5 343.5 107.5 348.5 c 0
 107.5 357.5 105 371.5 95 371.5 c 0
 73.5 371.5 27.5 316.5 24.5 312 c 1
 19.5 312 12.5 329 12.5 335 c 1
 26.5 360.5 102.5 442 153 442 c 0xba
 183.5 442 206 418.5 206 380.5 c 0
 206 369.5 200.5 339.5 197.5 324 c 0
 193 300 186.5 273.5 182.5 255.5 c 1
 215.5 321 305 442 356 442 c 0
 413 442 425.5 401.5 425.5 351 c 0
 425.5 331 420 294.5 415 274 c 1
 451.5 339 537 442 585.5 442 c 0
 636.5 442 652.5 414.5 652.5 365.5 c 0xda
 652.5 330 641.5 276 635.5 246.5 c 1
 633 234 610.5 133 608 119 c 1
 606 109 604 91.5 604 86.5 c 0
 604 77.5 606 63.5 616 63.5 c 0
 637.5 63.5 683.5 118.5 686.5 123 c 1
 691.5 123 698.5 106 698.5 100 c 1
 684.5 74.5 604 -7 553.5 -7 c 0
 526.5 -7 505 14 505 54.5 c 0
 505 65.5 510 96.5 513 111 c 1xdc
EndSplineSet
Validated: 524289
EndChar

StartChar: n
Encoding: 110 110 77
Width: 500
Flags: W
HStem: -7 70.5<322 408.75> 350 92<299.414 375.064> 371.5 70.5<84.25 168.25>
VStem: 107.5 98.5<243.572 406.139> 287 99<27.7834 181.379> 333.5 99.5<220.16 397.635>
LayerCount: 2
Fore
SplineSet
197.5 324 m 1xb4
 196.5 318 183.5 259.5 183.5 260 c 1
 205 306.5 307.5 442 366 442 c 1
 417 442 433 414.5 433 365.5 c 0xd4
 433 333 422 276.5 416 246.5 c 2
 390 119 l 2
 388.5 112 386 91.5 386 86.5 c 0
 386 77.5 388 63.5 398 63.5 c 0
 419.5 63.5 465.5 118.5 468.5 123 c 1
 473.5 123 480.5 106 480.5 100 c 1
 466.5 74.5 386 -7 335.5 -7 c 0
 308.5 -7 287 14 287 54.5 c 0xd8
 287 65.5 292 96.5 295 111 c 1
 324 253 l 2
 326.5 263.5 333.5 307.5 333.5 318 c 0
 333.5 336 330.5 350 316 350 c 0xd4
 283 350 182 232.5 156 106.5 c 1
 151.5 82.5 138.5 24 133.5 0 c 1
 121.5 -2.5 100 -5 87.5 -5 c 0
 75 -5 53.5 -2.5 40.5 0 c 1
 103 316 l 2
 104 321 107.5 343.5 107.5 348.5 c 0
 107.5 357.5 105 371.5 95 371.5 c 0
 73.5 371.5 27.5 316.5 24.5 312 c 1
 19.5 312 12.5 329 12.5 335 c 1
 26.5 360.5 102.5 442 153 442 c 0
 183.5 442 206 418.5 206 380.5 c 0
 206 369.5 201 339.5 197.5 324 c 1xb4
EndSplineSet
Validated: 524325
EndChar

StartChar: o
Encoding: 111 111 78
Width: 415
Flags: W
HStem: -5.5 36<135.462 203.662> 406 36<200.932 271.925>
VStem: 14.5 101.5<50.7185 248.234> 288 101.5<186.394 387.924>
LayerCount: 2
Fore
SplineSet
244.5 406 m 0
 165 406 116 246.5 116 141.5 c 0
 116 89.5 126.5 30.5 161.5 30.5 c 0
 240.5 30.5 288 191 288 292.5 c 0
 288 349 279.5 406 244.5 406 c 0
257 442 m 0
 338.5 442 389.5 395 389.5 292.5 c 0
 389.5 150.5 261.5 -5.5 144 -5.5 c 0
 62.5 -5.5 14.5 49 14.5 140 c 0
 14.5 282 139.5 442 257 442 c 0
EndSplineSet
Validated: 524289
EndChar

StartChar: p
Encoding: 112 112 79
Width: 479
Flags: W
HStem: -227 30.5<-35.6778 4.80724> -218 28.5<130.948 177.33> -5 39.5<180.467 255.399> 372.5 69.5<296.706 395.643>
VStem: 354.643 101.5<210.033 364.696>
LayerCount: 2
Fore
SplineSet
308.643 372.5 m 0x38
 277.143 372.5 233.143 341.5 208.643 311.5 c 1
 206.143 298 174.643 140 174.643 140 c 2
 161.643 72 181.643 34.5 209.643 34.5 c 0
 287.643 34.5 354.643 199.5 354.643 301 c 0
 354.643 345 340.643 372.5 308.643 372.5 c 0x38
363.643 442 m 0
 427.643 442 456.143 391 456.143 321 c 0
 456.143 159.5 307.143 -5 185.143 -5 c 0
 173.643 -5 156.143 -3 148.643 4 c 1
 119.144 -135.5 l 2
 117.144 -144.5 116.144 -153.5 116.144 -163.5 c 0
 116.144 -168.5 120.144 -183.5 130.144 -186.5 c 0
 147.143 -190.5 174.143 -189.5 177.143 -189.5 c 0
 181.143 -190.5 178.643 -217 173.643 -219 c 1
 160.643 -219 149.643 -218 138.644 -218 c 0x78
 87.6436 -218 24.1436 -220 -33.8564 -227 c 1
 -38.8564 -226 -37.3564 -199.5 -32.3564 -196.5 c 1xb8
 -14.3564 -196.5 -1.35645 -191.5 7.64355 -180.5 c 0
 14.6436 -171.5 18.6436 -160.5 23.6436 -137.5 c 2
 100.644 241 l 1
 52.6436 193 l 1
 48.6435 198 46.1435 210.5 46.1435 216.5 c 0
 46.1435 224 51.6435 231 55.1435 234 c 2
 110.144 289.5 l 1
 138.143 438.5 l 1
 149.143 441.5 176.643 443 187.643 443 c 0
 198.643 443 222.643 440.5 232.643 435.5 c 1
 229.143 417 219.143 367.5 217.643 359.5 c 1
 245.143 387.5 312.643 442 363.643 442 c 0
EndSplineSet
Validated: 524321
EndChar

StartChar: q
Encoding: 113 113 80
Width: 418
Flags: W
HStem: -227.5 21G<120 139.5> -218.5 20.5<124.5 272 306.97 335.94> -6 73<66.25 154.415> 394.5 47.5<215.823 325.5>
VStem: 10.5 100<76.0255 218.714>
LayerCount: 2
Fore
SplineSet
332.5 -219.5 m 1x78
 318.5 -219.5 285 -218.5 272 -218.5 c 0x78
 214 -218.5 158 -223.5 121 -227.5 c 1xb8
 119 -225.5 118.5 -198 124.5 -198 c 0
 153.5 -195 184.5 -184.5 189.5 -158.5 c 2
 239.5 107 l 1
 218.5 71.5 154.5 -6 96.5 -6 c 0
 36 -6 10.5 57 10.5 115 c 0
 10.5 274.5 168.5 442 308 442 c 0
 343 442 373.5 436 396 424.5 c 1
 338 122.5 l 2
 337 118.5 289 -141.5 289 -141.5 c 2
 288 -149 287 -156.5 287 -162.5 c 0
 287 -177.5 291.5 -191 335.5 -191 c 0
 339.5 -191 337.5 -216.5 332.5 -219.5 c 1x78
287 341 m 1
 290.5 361 284 394.5 257 394.5 c 0
 183 394.5 110.5 268.5 110.5 153.5 c 0
 110.5 98.5 126 67 153 67 c 0
 196 67 257.5 182.5 275.5 275.5 c 1
 278 289 285 327.5 287 341 c 1
EndSplineSet
Validated: 524321
EndChar

StartChar: r
Encoding: 114 114 81
Width: 394
Flags: W
HStem: -4.5 21G<85 96.5> 355.5 86.5<291.886 365.153> 371.5 70.5<83.75 167.75>
VStem: 107 98.5<239.519 406.139>
LayerCount: 2
Fore
SplineSet
337 442 m 1xd0
 362.5 442 376 434.5 389 425 c 1
 395 417.5 401.5 403.5 401.5 389 c 0
 401.5 352 379.5 331 354.5 331 c 0
 340 331 326.5 340 316.5 347.5 c 0
 309.5 352.5 305 355.5 293 355.5 c 0xd0
 260.5 355.5 180.5 222 157 106.5 c 2
 136 0 l 1
 125.5 -2.5 102 -4.5 91 -4.5 c 0
 79 -4.5 55 -2.5 43 0 c 1
 102.5 316 l 2
 103.5 321 107 343.5 107 348.5 c 0
 107 357.5 104.5 371.5 94.5 371.5 c 0
 73 371.5 27 316.5 24 312 c 1
 19 312 12 329 12 335 c 1
 26 360.5 102 442 152.5 442 c 0xb0
 183 442 205.5 418.5 205.5 380.5 c 0
 205.5 369.5 200 339.5 197 324 c 0
 193 301.5 185 266 181.5 250 c 1
 208 329.5 286.5 442 337 442 c 1xd0
EndSplineSet
Validated: 524289
EndChar

StartChar: s
Encoding: 115 115 82
Width: 330
Flags: W
HStem: -6.5 36<87.3383 180.377> 407 36.5<141.573 210.777>
VStem: 54.5 75<307.609 378.47> 192.5 77<56.7951 129.36>
LayerCount: 2
Fore
SplineSet
208.5 443.5 m 1
 255 443.5 285 432 306.5 414.5 c 1
 313.5 406 317 386 317 378.5 c 1
 317 356 301 332.5 275 332.5 c 1
 253.5 332.5 235 354.5 222 373 c 0
 210 391 200.5 407 174 407 c 1
 145.5 407 129.5 380 129.5 356 c 0
 129.5 317.5 177 282 211 246.5 c 0
 238.5 217 269.5 183 269.5 127 c 0
 269.5 45.5 196 -6.5 105.5 -6.5 c 1
 70 -6.5 33 4.5 9 24 c 1
 3 32 -2 47.5 -2 58 c 1
 -2 85.5 16 108 40.5 108 c 1
 63 108 75 87 92 63 c 0
 106 43.5 119.5 29.5 145.5 29.5 c 1
 176.5 29.5 192.5 60.5 192.5 80 c 0
 192.5 119.5 147 153 115 189 c 0
 85 222.5 54.5 252.5 54.5 311 c 0
 54.5 379 118 443.5 208.5 443.5 c 1
EndSplineSet
Validated: 524289
EndChar

StartChar: t
Encoding: 116 116 83
Width: 283
Flags: W
HStem: -7 70.5<72 158.75> 377 41.5<34.7066 97 198.5 283.415>
VStem: 37 99<27.7834 182.578>
LayerCount: 2
Fore
SplineSet
105 418.5 m 1
 118 488 l 1
 129 502 197.5 554 205.5 554 c 0
 211.5 554 218.5 551 222.5 548 c 1
 198.5 418.5 l 1
 280 418.5 l 2
 284 418.5 284.5 411.5 284.5 406.5 c 0
 284.5 396.5 280 385 275 377 c 1
 190.5 377 l 1
 140 119 l 2
 138.5 111 136 91.5 136 86.5 c 0
 136 77.5 138 63.5 148 63.5 c 0
 169.5 63.5 215.5 118.5 218.5 123 c 1
 223.5 123 230.5 106 230.5 100 c 1
 216.5 74.5 136 -7 85.5 -7 c 0
 58.5 -7 37 14 37 54.5 c 0
 37 65.5 41.5 94 45 111 c 2
 97 377 l 1
 26.5 377 l 2
 25.5 377 24.5 378 24.5 380 c 0
 24.5 390 48.5 418.5 71.5 418.5 c 2
 105 418.5 l 1
EndSplineSet
Validated: 524289
EndChar

StartChar: u
Encoding: 117 117 84
Width: 495
Flags: W
HStem: -7 92<113.746 186.597> -7 70.5<315.5 402.25> 371.5 70.5<82.25 166.25>
VStem: 58 99.5<37.0964 214.203> 105.5 98.5<253.907 406.139> 280.5 99<27.7834 193.88>
LayerCount: 2
Fore
SplineSet
287.5 106 m 0x74
 292.5 133.5 297.5 153.5 302.5 176 c 1
 270.5 107.5 169 -7 114.5 -7 c 1
 69.5 -7 58 22.5 58 72 c 0xb4
 58 102 69 159 74.5 186.5 c 1
 78.5 207 98 295.5 101 316 c 2
 102 321 105.5 343.5 105.5 348.5 c 0
 105.5 357.5 103 371.5 93 371.5 c 0
 71.5 371.5 25.5 316.5 22.5 312 c 1
 17.5 312 10.5 329 10.5 335 c 1
 24.5 360.5 100.5 442 151 442 c 0
 181.5 442 204 418.5 204 380.5 c 0xac
 204 369.5 199 339.5 196 324 c 1
 195 318 167 182 167 182 c 2
 165 171.5 157.5 127.5 157.5 117 c 0
 157.5 100.5 161 85 175 85 c 0xb4
 207.5 85 308.5 221.5 333 345.5 c 1
 337 367 346.5 413.5 351 435 c 1
 361 438 384 440 394.5 440 c 0
 405 440 431.5 438 443.5 435 c 1
 383.5 119 l 2
 382 111.5 379.5 91.5 379.5 86.5 c 0
 379.5 77.5 381.5 63.5 391.5 63.5 c 0
 413 63.5 459 118.5 462 123 c 1
 467 123 474 106 474 100 c 1
 460 74.5 379.5 -7 329 -7 c 0
 302 -7 280.5 14 280.5 54.5 c 0
 280.5 62 283.5 84.5 287.5 106 c 0x74
EndSplineSet
Validated: 524289
EndChar

StartChar: v
Encoding: 118 118 85
Width: 440
VWidth: 512
Flags: W
HStem: 368 74<75.5 165>
VStem: 95 98.5<89.2721 367.989> 339 89<280.092 400.924>
LayerCount: 2
Fore
SplineSet
206.5 88.5 m 1
 258 130.5 288 167 314.5 218.5 c 0
 334.5 257.5 339 298 339 320 c 0
 339 343 326 371.5 305 390 c 1
 308 417 337.5 442 361.5 442 c 0
 399.5 442 428 413 428 356 c 0
 428 229.5 183.5 -5.5 117.5 -5.5 c 1
 103 23.5 95 143 95 219 c 2
 95 344.5 l 2
 95 353.5 94.5 368 84.5 368 c 0
 66.5 368 23.5 316.5 20.5 312 c 1
 15.5 312 8.5 329 8.5 335 c 1
 23 361 98.5 442 149 442 c 0
 181 442 193.5 417 193.5 387 c 2
 193.5 387 193.5 350.5 193.5 344.5 c 1
 193.5 340.5 193.5 258.5 193.5 258.5 c 2
 193.5 182 201 104 206.5 88.5 c 1
EndSplineSet
Validated: 524289
EndChar

StartChar: w
Encoding: 119 119 86
Width: 666
VWidth: 512
Flags: W
HStem: 368 74<75.5 165>
VStem: 95 98.5<109.648 367.989> 339.5 78<272.609 345.89> 564 89<274.418 400.889>
LayerCount: 2
Fore
SplineSet
417.5 390.5 m 1
 418 344 422 266.5 427 206.5 c 0
 432 154 438.5 104.5 445.5 94 c 1
 485 124 520.5 163 545 217.5 c 0
 563 255.5 564 294.5 564 317.5 c 0
 564 342.5 551 371.5 530 390 c 1
 533 417 562.5 442 586.5 442 c 0
 624.5 442 653 413 653 356 c 0
 653 229.5 432 -5 360.5 -5 c 1
 350 8.5 339 89 334.5 126 c 0
 331 155.5 328.5 191 328 203 c 1
 278.5 121.5 175.5 9 118.5 -5.5 c 1
 104 23.5 95 143 95 219 c 2
 95 344.5 l 2
 95 353.5 94.5 368 84.5 368 c 0
 66.5 368 23.5 316.5 20.5 312 c 1
 15.5 312 8.5 329 8.5 335 c 1
 23 361 98.5 442 149 442 c 0
 181 442 193.5 417 193.5 387 c 2
 193.5 387 193.5 350.5 193.5 344.5 c 1
 193.5 340.5 193.5 258.5 193.5 258.5 c 2
 193.5 182 201 121 206.5 105.5 c 1
 241.5 138 282 201.5 300.5 236.5 c 0
 319.5 272.5 332 306.5 339.5 335 c 1
 347.5 357 400 389 417.5 390.5 c 1
EndSplineSet
Validated: 524289
EndChar

StartChar: x
Encoding: 120 120 87
Width: 492
VWidth: 512
Flags: W
HStem: -6 70.5<58.25 124.937 283.5 369.25> 368 74<113 199.25> 375.5 66.5<355.247 420.5>
LayerCount: 2
Fore
SplineSet
184.5 442 m 0xc0
 214 442 233 407.5 243.5 371 c 2
 269 282.5 l 1
 319 373 l 1
 339.5 410 370.5 442 407 442 c 0
 434 442 460 430.5 472.5 419.5 c 1
 477 411 483 394.5 483 382.5 c 0
 483 358.5 469 328.5 438.5 328.5 c 0
 419 328.5 404.5 342 397.5 354 c 0
 392 364 382 375.5 373.5 375.5 c 0xa0
 364.5 375.5 354 363 344 346 c 2
 282 240.5 l 1
 323.5 103.5 l 2
 329.5 83.5 340.5 64.5 359.5 64.5 c 0
 379 64.5 422 113 429 123 c 1
 434 123 441 105.5 441 100 c 1
 428.5 77 349 -6 300 -6 c 0
 267 -6 247.5 31 235 70 c 1
 235 71 218 129.5 211 153 c 1
 161.5 63.5 l 1
 141 26.5 110 -5.5 73.5 -5.5 c 0
 43 -5.5 24.5 5 10.5 15.5 c 1
 5 22.5 -1.5 37.5 -1.5 52.5 c 0
 -1.5 76.5 11.5 108 42 108 c 0
 61.5 108 76 94.5 83 82.5 c 0
 88.5 73 98.5 61 107 61 c 0
 115.5 61 126.5 70 138.5 91.5 c 2
 198 195 l 1
 158 328.5 l 2
 153.5 343.5 141.5 368 121 368 c 0
 105 368 65 323 58 313 c 1
 53 313 46 330.5 46 336 c 1
 59 359.5 135.5 442 184.5 442 c 0xc0
EndSplineSet
Validated: 524289
EndChar

StartChar: y
Encoding: 121 121 88
Width: 490
Flags: W
HStem: -225.5 73<-43.5493 67.9739> 368 74<96 216.75>
VStem: 173 98<20.5 281.348> 381.5 85.5<241.312 398.435>
LayerCount: 2
Fore
SplineSet
159.5 442 m 0
 274 442 271 81.5 271 20.5 c 1
 307 64.5 381.5 185.5 381.5 294.5 c 0
 381.5 344.5 361 371.5 348 388 c 1
 352 418 380 442 406.5 442 c 0
 445.5 442 467 402 467 356 c 0
 467 122 133 -225.5 -2 -225.5 c 0
 -38 -225.5 -64.5 -206.5 -64.5 -174 c 0
 -64.5 -157 -53 -135 -38 -127 c 1
 -23 -136 21.5 -152.5 51.5 -152.5 c 0
 113.5 -152.5 142 -119 159.5 -92 c 0
 176 -59.5 173 13.5 173 56.5 c 0
 173 170.5 156.5 368 107.5 368 c 0
 84.5 368 46.5 315 43.5 312 c 1
 38 312.5 31 330.5 31.5 335 c 1
 42.5 354 112.5 442 159.5 442 c 0
EndSplineSet
Validated: 524321
EndChar

StartChar: z
Encoding: 122 122 89
Width: 406
Flags: W
HStem: -1.5 83.5<220.617 298.36> 35 83<61.9688 167.779> 323 83.5<225.709 328.957> 359 83.5<96.9917 176.989>
LayerCount: 2
Fore
SplineSet
158 442.5 m 0x10
 193.5 442.5 218 432 244 421.5 c 0
 261.5 414.5 283.5 406.5 313.5 406.5 c 0
 343.5 406.5 381.5 434.5 393.5 442 c 1
 407.5 440 409 426 409.5 418 c 0
 409.5 404 115.5 112.5 112.5 108.5 c 1
 117 110.5 139 118 156.5 118 c 0x60
 181.5 118 205.5 111.5 225 102 c 0
 243 94 265.5 82 284 82 c 0
 312 82 335 131.5 341.5 140.5 c 1
 351 140.5 355.5 128.5 356.5 120.5 c 1
 338.5 82 286 -1.5 236 -1.5 c 0x80
 203 -1.5 175 9.5 148.5 20.5 c 0
 131.5 27.5 102.5 35 71.5 35 c 0
 45.5 35 21.5 11.5 3.5 -1 c 1
 -9.5 0 -11.5 13.5 -12.5 22.5 c 1
 -12.5 38 290 333.5 292 337.5 c 1
 288 335.5 262.5 323 239.5 323 c 0x60
 214.5 323 191 330 171.5 339 c 0
 153.5 347.5 131 359 112 359 c 0
 83 359 60.5 309 54 300 c 1
 45.5 300 40 311.5 39 320 c 1
 51.5 349.5 108.5 442.5 158 442.5 c 0x10
EndSplineSet
Validated: 524289
EndChar

StartChar: braceleft
Encoding: 123 123 90
Width: 267
Flags: W
HStem: 719 20.5<294.521 309.312>
VStem: 49 261.5
LayerCount: 2
Fore
SplineSet
156.5 403 m 0
 161.5 430 155 453.5 151 479 c 0
 146 503 142.5 527.5 148 557 c 0
 167 655.5 257 726 301 739.5 c 1
 307.5 739.5 313.5 727.5 310.5 719 c 1
 282 705.5 224.5 658 214 603.5 c 0
 206.5 565 212.5 542.5 218 516.5 c 0
 223 493.5 228 467.5 220 428 c 0
 206 357.5 144.5 310 116.5 302.5 c 1
 141.5 295 185.5 247.5 171.5 177 c 0
 163.5 137.5 149 111.5 135 88.5 c 0
 119.5 62.5 104.5 40 97 1.5 c 0
 86.5 -53 125 -100.5 148 -114 c 1
 147.5 -122.5 137.5 -134.5 131 -134.5 c 1
 92 -121 30 -50.5 49 48 c 0
 55 79 69.5 104.5 84 129.5 c 0
 98 153.5 112.5 176 117.5 202 c 0
 127.5 255 96 280.5 61.5 291.5 c 1
 60.5 293.5 60 298.5 61 302.5 c 0
 62 306.5 63.5 311.5 65.5 313.5 c 1
 104.5 324.5 146.5 350 156.5 403 c 0
EndSplineSet
Validated: 524321
EndChar

StartChar: bar
Encoding: 124 124 91
Width: 221
Flags: W
VStem: 6.53858 222.499
LayerCount: 2
Fore
SplineSet
176.038 757 m 1
 184.538 764.5 198.038 769.5 213.538 769.5 c 0
 221.038 769.5 230.038 766.5 229.038 761 c 2
 60.0381 -111 l 1
 51.0381 -119 32.5381 -124 19.5381 -124 c 0
 12.0386 -124 5.53858 -119.5 6.53858 -115 c 2
 6.53858 -115 141.038 587.5 176.038 757 c 1
EndSplineSet
Validated: 524289
EndChar

StartChar: braceright
Encoding: 125 125 92
Width: 236
Flags: W
HStem: -134.5 20.5<-6.5625 9.62423>
VStem: -7 260.5
LayerCount: 2
Fore
SplineSet
171 739.5 m 1
 210 726 272.5 655.5 253.5 557 c 0
 247.5 527 234 502 219.5 477.5 c 0
 205.5 453 190.5 429.5 185.5 403 c 0
 175.5 350 207 324.5 241.5 313.5 c 1
 242.5 311.5 242.5 306.5 241.5 302.5 c 0
 240.5 298 239.5 294 237.5 291.5 c 1
 198.5 280.5 156.5 255 146.5 202 c 0
 141.5 176 147 153 151.5 129 c 0
 156.5 104 160.5 78.5 154.5 48 c 0
 135.5 -50.5 45 -121 1 -134.5 c 1
 -5.5 -134.5 -10 -122.5 -7 -114 c 1
 21 -100.5 78 -53 88.5 1.5 c 0
 95.5 39.5 90 62.5 84.5 88 c 0
 79.5 111 74.5 137 82.5 177 c 0
 96.5 247.5 158.5 295 186.5 302.5 c 1
 161.5 310 117 357.5 131 428 c 0
 139.5 470 154 495.5 169 519.5 c 0
 184 544.5 198.5 567 205.5 603.5 c 0
 216 658 177.5 705.5 155 719 c 1
 155.5 727.5 164.5 739.5 171 739.5 c 1
EndSplineSet
Validated: 524321
EndChar

StartChar: asciitilde
Encoding: 126 126 93
Width: 519
Flags: W
HStem: 247.5 56<294.701 430.928> 300.5 56<101.213 234.229>
LayerCount: 2
Fore
SplineSet
180 356.5 m 0x40
 267.5 356.5 301 303.5 388.5 303.5 c 0
 424.5 303.5 450.5 324.5 481.5 347.5 c 1
 483.5 346 486.5 342 486.5 335 c 0
 486.5 297 416 247.5 351.5 247.5 c 0x80
 263.5 247.5 228.5 300.5 140.5 300.5 c 0
 104.5 300.5 78.5 279.5 47.5 256.5 c 1
 45.5 258 42.5 262 42.5 269 c 0
 42.5 313 126.5 356.5 180 356.5 c 0x40
EndSplineSet
Validated: 524289
EndChar

StartChar: exclamdown
Encoding: 161 161 95
Width: 229
VWidth: 512
Flags: W
HStem: 314 127<91.6666 166.028>
VStem: -27.9932 104.5<-188.116 -71.0834> 69.5068 117.5<334.853 418.586>
LayerCount: 2
Fore
SplineSet
187.007 380.5 m 1xa0
 183.507 343.5 152.007 314 116.007 314 c 27
 87.0068 314 66.0068 340 69.5068 370.5 c 1
 73.0068 408 103.007 441 139.507 441 c 27
 170.507 441 190.507 412 187.007 380.5 c 1xa0
10.0068 -208 m 1
 -14.9932 -208 -31.9932 -184.5 -27.9932 -152.5 c 1
 -25.4932 -125 43.0068 98 80.5068 233 c 0
 85.5068 250 104.007 259.5 113.007 259.5 c 1
 118.007 259.5 119.007 249 119.007 239.5 c 1
 117.507 204 92.0068 -48 76.5068 -147.5 c 0xc0
 71.0068 -178 42.5068 -208 10.0068 -208 c 1
EndSplineSet
Validated: 524321
EndChar

StartChar: cent
Encoding: 162 162 96
Width: 345
Flags: W
HStem: -6 71<116.5 215.836> 396.5 45.5<206.718 302.5>
VStem: 33.5 102<65.1424 245.271>
LayerCount: 2
Fore
SplineSet
284.5 442 m 0
 320.5 442 346.5 429 359.5 418.5 c 1
 364 412 371.5 397 371.5 380 c 0
 371.5 353.5 353 327 326.5 327 c 0
 307 327 291.5 340 283 355.5 c 0
 273.5 372 260.5 396.5 235 396.5 c 0
 189 396.5 135.5 285.5 135.5 166 c 0
 135.5 114.5 149.5 65 201 65 c 0
 246 65 299.5 128 302.5 131 c 1
 308 131 315 114 315 108 c 1
 302 87 218.5 -6 149 -6 c 0
 84 -6 33.5 42 33.5 135.5 c 0
 33.5 293.5 173 442 284.5 442 c 0
280 474 m 17
 287 474 314 473 313 466 c 9
 137 -45 l 17
 129 -45 103 -43 104 -36 c 9
 280 474 l 17
EndSplineSet
Validated: 524325
EndChar

StartChar: sterling
Encoding: 163 163 97
Width: 438
Flags: W
HStem: -8 85.5<250.932 331.396> 40 75<88.6294 213.34> 293.5 40.5<77.6328 343.681> 589 49<281.166 384.089>
LayerCount: 2
Fore
SplineSet
85.5 334 m 1x30
 106.5 334 343.089 334 354.589 334 c 1
 362.089 328.5 346.089 299 337.089 293.5 c 1
 323.589 293.5 70 293.5 63.5 293.5 c 1
 59 303 76.5 329 85.5 334 c 1x30
209.5 259 m 0
 194.703 183.96 151.5 131.5 122.5 105 c 1
 141 113.5 161.09 115 192.09 115 c 0x70
 234.59 115 285.089 77.5 327.089 77.5 c 0
 365.089 77.5 387.089 118.5 400.589 137.5 c 1
 404.589 138.5 410.589 133 412.089 125.5 c 0
 414.089 120.5 412.589 115.5 411.589 111.5 c 1
 393.589 77 340.089 -8 270.59 -8 c 0xb0
 209.09 -8 158.59 40 101.089 40 c 0x70
 78.0893 40 40.0893 8.5 21.0894 -7.5 c 1
 11.5894 -7.5 7.58935 8 9.08935 15.5 c 1
 27.5894 42 58.0893 68.5 75.5893 92 c 1
 97 133.5 110.057 182 120.5 234.5 c 0
 129.777 281.5 122.072 359.5 131 404 c 0
 161.237 554.954 273.59 638 367.089 638 c 0
 401.089 638 415.589 625 428.089 607 c 1
 433.089 584 416.089 537 384.589 537 c 0
 343.589 537 349.089 589 310.089 589 c 0
 260.09 589 236.105 522.98 223.5 454.5 c 0
 211.766 389 219.665 311 209.5 259 c 0
EndSplineSet
Validated: 524325
EndChar

StartChar: currency
Encoding: 164 164 98
Width: 512
Flags: W
HStem: 120 33.5<227.633 310.91> 462 34<268.1 349.576>
LayerCount: 2
Fore
SplineSet
267.5 153.5 m 0
 324.5 153.5 373.5 234 381 317.5 c 0
 390 398.5 360 462 311.5 462 c 0
 254.5 462 203.5 379.5 196 296 c 0
 187 215 219 153.5 267.5 153.5 c 0
422.5 455 m 1
 488 510 l 2
 489.931 511.772 492.866 511.224 495.374 509.5 c 1
 504.681 505.801 516.318 484.685 518 466 c 1
 451 410 l 1
 460 385.5 463.5 357 460 327 c 0
 456 274.5 431 229 406 199 c 1
 445 141 l 2
 445.884 139.321 445.705 137.361 444 134.592 c 1
 439.919 124.163 415.964 105.468 396.5 100 c 1
 359 155 l 1
 327 133 290 120 253 120 c 0
 213 120 179 135 155 160 c 1
 96 110 l 2
 94.2185 108.361 91.572 108.682 89.3495 110 c 1
 80.023 113.312 68.2152 134.918 66.5 154 c 1
 126.5 205 l 1
 116.5 229.5 113 257.5 116.5 287.5 c 0
 121 340.5 146 389.5 176.5 423 c 1
 139 479 l 2
 138.225 480.534 138.185 482.167 139.5 484.583 c 1
 143.275 495.083 168.1 514.405 188 520 c 1
 225.5 465 l 1
 256.5 485 291.5 496 326.5 496 c 0
 366.5 496 398.5 481 422.5 455 c 1
EndSplineSet
Validated: 524321
EndChar

StartChar: yen
Encoding: 165 165 99
Width: 574
Flags: W
HStem: -3.5 32<120.672 186.998 300.5 354.375> 134 41<124.056 414.646> 217.5 41<140.135 430.725> 605 32<79.2578 121.452 264.619 320.894 442.031 496.172 572.572 637.163>
LayerCount: 2
Fore
SplineSet
142.079 217.5 m 2
 139.079 217.5 137.579 221 137.579 225 c 0
 137.579 234 143.079 250 151.579 258.5 c 1
 429.579 258.5 l 2
 431.579 258.5 432.579 255.5 432.579 251.5 c 0
 432.579 243.5 430.079 227 420.079 217.5 c 1
 142.079 217.5 l 2
126 134 m 2
 123 134 121.5 137.5 121.5 141.5 c 0
 121.5 150.5 127 166.5 135.5 175 c 1
 413.5 175 l 2
 415.5 175 416.5 172 416.5 168 c 0
 416.5 160 414 143.5 404 134 c 1
 126 134 l 2
208.5 126 m 2
 235.5 265 l 1
 236.5 272 236.5 279.5 234 288.5 c 1
 227.5 315 159.5 522 159.5 522 c 2
 149 553 143 564.5 128.5 581.5 c 0
 117.5 598.5 89 604.5 77.5 605 c 1
 73.5 608.5 77.5 631.5 83 637 c 1
 121.5 634 161.5 631 202.5 631 c 0
 243.5 631 288 634 324 637 c 1
 326 631 322.5 608.5 317 605 c 1
 305 604.5 262.5 601.5 257.5 577 c 0
 256 571 259 564.5 262 555 c 2
 332.5 333 l 1
 364.5 372.5 458.5 509.5 493.5 563 c 0
 497 568.5 499.5 574.5 500.5 581 c 0
 502.5 592.5 470.5 604 439.5 604.5 c 1
 436.5 609.5 441 631.5 445 636.5 c 1
 482 633.5 503 630.5 540 630.5 c 0
 583 630.5 604 634.5 641 636.5 c 1
 642.5 632 638 608 633.5 604.5 c 1
 624 604 577.5 603.5 555 573.5 c 1
 543.5 559.5 365 316.5 346.5 288 c 1
 340 279 339 272 337.5 264.5 c 1
 310 126 l 2
 302.5 90.5 297.5 61.5 300.5 44.5 c 0
 302 32.5 345 29 356.5 28.5 c 1
 359.5 22.5 356 2 350.5 -3.5 c 1
 315.5 -0.5 271 2.5 235 2.5 c 0
 199 2.5 154.5 -0.5 118 -3.5 c 1
 114.5 2 119 22.5 124.5 28.5 c 1
 136 29 181 32.5 187 44.5 c 0
 196.5 61.5 201 90.5 208.5 126 c 2
EndSplineSet
Validated: 524325
EndChar

StartChar: brokenbar
Encoding: 166 166 100
Width: 224
VWidth: 512
Flags: W
VStem: 8.03857 221.999
LayerCount: 2
Fore
SplineSet
177.038 755.5 m 1
 185.538 763 199.038 768 214.538 768 c 1
 222.038 768 231.038 765 230.038 759.5 c 2
 159.038 392 l 1
 150.038 384 132.038 379 119.038 379 c 1
 111.538 379 104.538 383.5 105.538 388 c 2
 105.538 388 144.538 585.5 177.038 755.5 c 1
79.5381 252.5 m 1
 88.0381 260 101.538 265 117.038 265 c 1
 124.538 265 133.538 262 132.538 256.5 c 2
 61.5381 -111 l 1
 52.5381 -119 34.0381 -124 21.0385 -124 c 1
 13.5386 -124 7.03857 -119.5 8.03857 -115 c 2
 8.03857 -115 47.0381 82.5 79.5381 252.5 c 1
EndSplineSet
Validated: 524289
EndChar

StartChar: section
Encoding: 167 167 101
Width: 411
Flags: W
HStem: -85 50<63.8018 178.368> 603 50<291.019 405.759>
LayerCount: 2
Fore
SplineSet
385.792 653 m 0
 398.792 653 414.292 648.5 426.292 642.5 c 1
 429.292 632.5 427.292 620.5 426.292 614.5 c 0
 422.792 596.5 405.292 576.5 384.292 576.5 c 0
 367.292 576.5 359.292 586 351.792 592.5 c 0
 344.792 598.5 334.292 603 320.292 603 c 0
 291.292 603 244.292 587 237.292 549 c 0
 228.292 503 286.292 426.5 321.292 383.5 c 0
 364.792 330 409.292 270.5 391.792 181.5 c 0
 377.292 105 262.292 -8.5 222.292 -34.5 c 9
 225.792 -22.5 224.792 -14 232.292 -3 c 24
 243.792 14.5 268.292 35 268.292 35 c 0
 296.292 68.5 314.792 88.5 323.792 132.5 c 0
 339.792 215.5 297.792 277.5 257.292 327.5 c 0
 221.292 371.5 165.292 426.5 178.792 496.5 c 0
 194.792 576.5 281.792 653 385.792 653 c 0
201.292 532.5 m 0
 172.292 498 154.792 479.5 145.792 435.5 c 0
 129.792 352.5 171.292 290.5 212.292 240.5 c 0
 248.292 196.5 304.292 141.5 290.792 71.5 c 0
 274.792 -8.5 187.792 -85 83.792 -85 c 0
 70.792 -85 54.292 -80 43.292 -74 c 1
 40.792 -65.5 41.792 -54 42.792 -48 c 0
 46.292 -30 64.792 -8.5 85.792 -8.5 c 0
 102.792 -8.5 111.292 -18.5 118.792 -25.5 c 0
 125.292 -31.5 134.792 -35 148.792 -35 c 0
 177.792 -35 225.292 -19 232.292 19 c 0
 241.292 65 183.292 141.5 148.292 184.5 c 0
 104.792 238 60.292 297.5 77.792 386.5 c 0
 92.292 463 207.292 576.5 247.292 602.5 c 9
 243.792 590.5 244.792 582 237.292 571 c 24
 225.792 553.5 201.292 532.5 201.292 532.5 c 0
EndSplineSet
Validated: 524325
EndChar

StartChar: dieresis
Encoding: 168 168 102
Width: 351
VWidth: 512
Flags: W
HStem: 460 119<90.7733 160.456 274.273 343.956>
VStem: 73 107<478.876 561.849> 256.5 107<478.876 561.849>
LayerCount: 2
Fore
SplineSet
256.5 517.5 m 1
 260 551 287.5 579 320 579 c 27
 347.5 579 367 554.5 363.5 525.5 c 1
 360 491.5 332 460 299 460 c 27
 270 460 253 488 256.5 517.5 c 1
73 517.5 m 1
 76.5 551 104 579 136.5 579 c 27
 164 579 183.5 554.5 180 525.5 c 1
 176.5 491.5 148.5 460 115.5 460 c 27
 86.5 460 69.5 488 73 517.5 c 1
EndSplineSet
Validated: 524321
EndChar

StartChar: copyright
Encoding: 169 169 103
Width: 605
Flags: W
HStem: 54 38<231.627 398.325> 179 28<302.431 394.791> 439 30<320.634 414.377> 561 38<283.814 453.342>
VStem: 428 18<250.643 266.458> 437 21<382.86 411.029>
LayerCount: 2
Fore
SplineSet
446 264 m 1xf8
 446 260 427 204 421 202 c 0
 393 191 361 179 324 179 c 0
 247 179 198 236 208 320 c 0
 218 404 288 469 362 469 c 0
 388 469 426 461 452 452 c 1
 452 450 458 394 458 390 c 0
 458 386 448 382 442 382 c 1
 440 382 439 382 437 384 c 1xf4
 435 398 424 439 364 439 c 0
 312 439 275 384 268 328 c 0
 259 256 294 207 342 207 c 0
 368 207 389 215 402 226 c 0
 417 240 426 266 428 268 c 1
 432 268 444 266 446 264 c 1xf8
124 326 m 0
 108 196 192 92 313 92 c 0
 434 92 544 196 560 326 c 0
 576 456 491 561 370 561 c 0
 249 561 140 456 124 326 c 0
87 326 m 0
 106 477 234 599 374 599 c 0
 514 599 614 477 595 326 c 0
 576 175 447 54 307 54 c 0
 167 54 68 175 87 326 c 0
EndSplineSet
Validated: 33
EndChar

StartChar: ordfeminine
Encoding: 170 170 104
Width: 416
VWidth: 512
Flags: W
HStem: 247.5 50.5<97.7528 163.653> 519.5 36<198.092 282>
VStem: 46 74.5<300.629 416.211> 214 75<268.415 370.352>
LayerCount: 2
Fore
SplineSet
250.5 247.5 m 0
 230 247.5 214 261 214 286.5 c 0
 214 291 215.5 302 217.5 312 c 0
 219 321 220 324.5 221 328.5 c 1
 205.5 303.5 155.5 248.5 111.5 248.5 c 0
 70 248.5 46 283 46 330.5 c 0
 46 451.5 176 555.5 268.5 555.5 c 0
 295.5 555.5 323 550 337.5 545 c 1
 292 338 l 2
 291.5 335 289 319 289 316 c 0
 289 310 290.5 300.5 298 300.5 c 0
 314 300.5 349.5 338 351.5 341 c 1
 355 339.5 360 327.5 359 321 c 1
 349 303.5 288.5 247.5 250.5 247.5 c 0
229.5 519.5 m 0
 175 519.5 120.5 436.5 120.5 356.5 c 0
 120.5 319 131.5 298 153 298 c 0
 185 298 230 376 245 443 c 2
 260 510.5 l 1
 254 516.5 239.5 519.5 229.5 519.5 c 0
EndSplineSet
Validated: 524289
EndChar

StartChar: guillemotleft
Encoding: 171 171 105
Width: 470
VWidth: 512
Flags: W
LayerCount: 2
Fore
SplineSet
419.5 91.5 m 1
 414 82 401 75 395 73 c 1
 378 94.5 314.5 168 231.5 230.5 c 1
 227 234.5 224.5 239.5 225 245 c 0
 225.5 253 231.5 260.5 237 264.5 c 1
 361 335.5 424.5 393.5 462.5 423 c 1
 467 422 480 415.5 482 406 c 1
 477 397 341 266.5 320.5 248.5 c 1
 334 230.5 418 98.5 419.5 91.5 c 1
243 91.5 m 1
 237.5 82 224 75 218 73 c 1
 201 94.5 138 168 55 230.5 c 1
 50.5 234.5 47.5 239.5 48 245 c 0
 48.5 253 54.5 260.5 60 264.5 c 1
 184 335.5 247.5 393.5 285.5 423 c 1
 290 422 303 415.5 305 406 c 1
 300 397 164 266.5 143.5 248.5 c 1
 157 230.5 241.5 98.5 243 91.5 c 1
EndSplineSet
Validated: 524289
EndChar

StartChar: logicalnot
Encoding: 172 172 106
Width: 493
VWidth: 512
Flags: W
HStem: 316 47<49.5447 408>
LayerCount: 2
Fore
SplineSet
65 363 m 1
 471.5 363 l 1
 467 339.5 426 129.5 426 129.5 c 1
 424 126 402 115.5 387 115.5 c 1
 379 115.5 371 118.5 372 123.5 c 2
 408 316 l 1
 51.5 316 l 1
 50 316 47.5 321.5 47.5 327 c 0
 47.5 342 55 356.5 65 363 c 1
EndSplineSet
Validated: 524289
EndChar

StartChar: registered
Encoding: 174 174 107
Width: 605
Flags: W
HStem: 111 38<238.627 405.325> 253 15<216.831 245.604 300.25 324 451.736 470> 379 19<312 329.584> 509 18<249 273.94 327.1 373.493> 618 39<290.814 460.342>
LayerCount: 2
Fore
SplineSet
362 527 m 0
 403 527 444 501 438 453 c 0
 434 421 399 394 376 386 c 1
 396 348 416 316 427 299 c 0
 444 275 460 270 472 269 c 1
 473 266 470 254 470 253 c 1
 451 253 429 254 418 255 c 0
 401 256 389 264 378 282 c 0
 376 286 338 352 328 373 c 0
 327 375 324 379 320 379 c 0
 318 379 312 379 310 379 c 1
 308 364 301 310 301 310 c 1
 299 295 298 283 300 276 c 0
 301 271 319 268 324 268 c 1
 325 265 324 255 322 253 c 1
 306 254 287 256 271 256 c 0
 255 256 233 254 217 253 c 1
 215 255 217 265 219 268 c 1
 224 268 244 271 246 276 c 0
 250 283 250 295 252 310 c 2
 272 471 l 2
 274 486 276 498 274 505 c 0
 273 510 254 512 249 512 c 1
 248 515 249 525 251 527 c 1
 268 526 289 526 305 526 c 0
 321 526 340 527 362 527 c 0
386 447 m 0
 390 482 381 509 347 509 c 0
 340 509 329 509 327 505 c 0
 325 500 324 489 322 476 c 2
 312 398 l 1
 312 398 325 398 329 398 c 0
 358 398 382 415 386 447 c 0
131 384 m 0
 115 254 199 149 320 149 c 0
 441 149 551 254 567 384 c 0
 583 514 498 618 377 618 c 0
 256 618 147 514 131 384 c 0
94 384 m 0
 113 535 241 657 381 657 c 0
 521 657 621 535 602 384 c 0
 583 233 454 111 314 111 c 0
 174 111 75 233 94 384 c 0
EndSplineSet
Validated: 33
EndChar

StartChar: macron
Encoding: 175 175 108
Width: 261
Flags: W
HStem: 552 38<16.403 249.869>
VStem: 15 236.5<552.288 589.712>
LayerCount: 2
Fore
SplineSet
24 590 m 9
 246.5 590 l 2
 249.5 590 251.5 585 251.5 581 c 0
 251.5 573 246.5 558 240.5 552 c 1
 20 552 l 2
 17 552 15 558 15 563 c 0
 15 569 20 584 24 590 c 9
EndSplineSet
Validated: 524289
EndChar

StartChar: degree
Encoding: 176 176 109
Width: 260
VWidth: 512
Flags: W
HStem: 431 41.5<157.164 241.093> 599.5 41<173.824 258.117>
VStem: 109.5 196.5
LayerCount: 2
Fore
SplineSet
149 530.5 m 0
 145.5 498.5 165 472.5 195.5 472.5 c 0
 229.5 472.5 263 505 266.5 542.5 c 0
 270 574.5 250.5 599.5 220 599.5 c 0
 186 599.5 152.5 569 149 530.5 c 0
109.5 527 m 0
 115.5 590 172.5 640.5 227.5 640.5 c 0
 278 640.5 312 599 306 546 c 0
 300 484.5 243.5 431 187.5 431 c 0
 137 431 103.5 474 109.5 527 c 0
EndSplineSet
Validated: 524321
EndChar

StartChar: plusminus
Encoding: 177 177 110
Width: 500
VWidth: 512
Flags: W
HStem: 16 47<26.9644 431.098> 306.5 47<83.9644 256.5 316.5 488.098>
LayerCount: 2
Fore
SplineSet
429.5 63 m 2
 431.5 63 432.5 60 432.5 55 c 0
 432.5 42 431 28 420 16 c 1
 29.5 16 l 2
 26.5 16 24.5 19 24.5 24 c 0
 24.5 37 28.5 50 38.5 63 c 1
 429.5 63 l 2
86 306.5 m 2
 83 306.5 81.5 309.5 81.5 314.5 c 0
 81.5 327.5 85.5 340.5 95.5 353.5 c 1
 264.5 353.5 l 1
 298 526.5 l 2
 300.5 539.5 339 542.5 343 542.5 c 0
 351 542.5 353 538.5 352 534.5 c 2
 316.5 353.5 l 1
 486 353.5 l 2
 488 353.5 489.5 350.5 489.5 345.5 c 0
 489.5 332.5 488 318.5 477 306.5 c 1
 308.5 306.5 l 1
 274 130.5 l 2
 272 120.5 250.5 114.5 234.5 114.5 c 0
 224.5 114.5 220.5 118.5 221 122.5 c 2
 256.5 306.5 l 1
 86 306.5 l 2
EndSplineSet
Validated: 524289
EndChar

StartChar: uni00B2
Encoding: 178 178 111
Width: 300
Flags: W
HStem: 254.5 65<145.764 278.5> 595.5 49.755<184.882 257.957>
VStem: 267.5 84<491.726 586.303>
LayerCount: 2
Fore
SplineSet
351.5 558.5 m 0
 351.5 503.253 303.149 452.453 260.5 413 c 0
 218.387 373.277 165.155 333 145.764 319.5 c 1
 150.264 319.5 251 319.5 251 319.5 c 2
 282 319.5 296.742 345.949 309.536 369.756 c 0
 311.146 372.781 314.671 374.5 318.5 374.5 c 0
 321.719 374.5 331.195 370.609 332.5 369 c 1
 318.573 339.559 283.939 265.488 278.5 254.5 c 9
 278.5 254.5 65.1367 254.5 63.0024 254.5 c 1
 61.3926 256.61 59 266.171 59 269.5 c 1
 103.271 311.245 160.047 365.642 206.536 417.072 c 0
 247.771 463.049 267.5 504 267.5 541 c 0
 267.5 574.075 245.94 595.5 214.999 595.5 c 0
 171.936 595.5 145.361 558.312 137.788 549.713 c 1
 134.154 549.713 125.714 559.872 127.019 567.092 c 1
 137.872 586.215 188 645.255 255 645.255 c 0
 309.759 645.255 351.5 610 351.5 558.5 c 0
EndSplineSet
Validated: 524289
EndChar

StartChar: uni00B3
Encoding: 179 179 112
Width: 352
Flags: W
HStem: 246 31<137.975 210.513> 445.5 22.5<156.567 190.62> 601 45<186.573 256.361>
VStem: 248 82<329.555 436.435> 261.5 67.5<522.416 595.665>
LayerCount: 2
Fore
SplineSet
253.5 646 m 0xe8
 284.5 646 329 628.5 329 574.5 c 0xe8
 329 525 273.5 492 247 481 c 1
 278 479 330 453.5 330 398 c 0
 330 295 206.5 246 142.5 246 c 0
 109 246 79 254.5 67 265 c 1
 64.5 270 61.5 280.5 62.5 289 c 0
 64 307 80.5 330 99 330 c 0
 118 330 125 313.5 133.5 298.5 c 0
 142.5 283 157.5 277 173 277 c 0
 208 277 248 318 248 379 c 0xf0
 248 417 229 449 191 449 c 0
 183 449 168 448 159.5 445.5 c 1
 158 448.5 156.5 450.5 156.5 454.5 c 0
 156.5 457.5 157 466 158 468 c 1
 198 474.5 261.5 501.5 261.5 556 c 0
 261.5 578.5 248.5 601 218.5 601 c 0
 183 601 154.5 562 149 557.5 c 1
 145 558 136 568.5 138.5 576.5 c 1
 168.5 617.5 208.5 646 253.5 646 c 0xe8
EndSplineSet
Validated: 524289
EndChar

StartChar: acute
Encoding: 180 180 113
Width: 212
VWidth: 512
Flags: W
HStem: 524.5 162.5
VStem: 76 182.5
LayerCount: 2
Fore
SplineSet
223.5 687 m 0
 253.5 687 259.5 670.5 258.5 662 c 0
 254.5 624 96.5 524.5 87.5 524.5 c 0
 81.5 524.5 75.5 536.5 76 541.5 c 0
 76.5 549 152.5 644 183 674 c 0
 193 683.5 208 687 223.5 687 c 0
EndSplineSet
Validated: 524321
EndChar

StartChar: paragraph
Encoding: 182 182 115
Width: 420
Flags: W
HStem: -86 44.5<216.131 296.44> 622 37<375.108 430.231 528.61 591.5>
VStem: 103.5 209<355.996 525.801>
LayerCount: 2
Fore
SplineSet
343.888 659 m 0
 398.888 659 448.944 656 484.944 656 c 0
 522.444 656 560 659 598 662 c 1
 601.5 656.5 597 635 591.5 629 c 1
 580 628.5 538.443 624 532.443 612 c 0
 522.943 594 516.537 564.576 509.943 528 c 1
 493.943 435 459.88 253 447.88 190 c 1
 415.881 26 311.881 -86 231.881 -86 c 0
 200.381 -86 176.881 -75 167.881 -64.5 c 1
 165.381 -57.9077 163.553 -49.1856 163.924 -40 c 0
 165.341 -17.2368 177.163 4.5 197.381 4.5 c 0
 214.381 4.5 226.381 -5.5 237.381 -19 c 0
 245.381 -29 254.381 -41.5 270.381 -41.5 c 0
 309.381 -41.5 321.881 27 352.881 186 c 1
 420.33 537 l 2
 426.221 567 432.33 600 430.33 612 c 0
 428.33 621 419 622 411.441 622 c 0
 367 622 312.5 535 312.5 448.5 c 0
 312.5 381 328.5 343.5 360.5 325 c 1
 362.5 324 367.5 318 367.5 316 c 0
 367.5 291 305.887 273 274.888 273 c 0
 152.888 273 103.5 369 103.5 440 c 0
 103.5 584 258.888 659 343.888 659 c 0
EndSplineSet
Validated: 524321
EndChar

StartChar: periodcentered
Encoding: 183 183 116
Width: 202
VWidth: 512
Flags: W
HStem: 196.5 133.5<89.9939 162.273>
VStem: 64.5 125<223.694 303.471>
LayerCount: 2
Fore
SplineSet
64.5 251 m 0
 64.5 293 103 330 140.5 330 c 1
 169.5 330 189.5 307.5 189.5 278 c 0
 189.5 237.5 152.5 196.5 115 196.5 c 1
 85 196.5 64.5 220.5 64.5 251 c 0
EndSplineSet
Validated: 524289
EndChar

StartChar: cedilla
Encoding: 184 184 117
Width: 283
VWidth: 512
Flags: W
HStem: -157.5 23.5<94.2219 153.529> -63 35<148 164.047>
VStem: 166.5 44.5<-120.89 -63.6197>
LayerCount: 2
Fore
SplineSet
145.5 -4 m 1
 169.5 -4 l 9
 148 -28 l 25
 167.5 -28 l 2
 190.5 -28 211 -46 211 -70.5 c 0
 211 -114 163.5 -157.5 99 -157.5 c 3
 87 -157.5 68.5 -152.5 63 -148 c 1
 62 -145.5 61 -142 61 -139 c 0
 61 -123.5 71.5 -115.5 78 -115.5 c 3
 93 -115.5 99.5 -134 121 -134 c 3
 147 -134 166.5 -117 166.5 -93.5 c 0
 166.5 -72.5 152 -63 140 -63 c 0
 129.5 -63 123.5 -66 113 -70.5 c 0
 111 -70.5 102 -63.5 102 -59 c 0
 102 -54.5 120.5 -38.5 145.5 -4 c 1
EndSplineSet
Validated: 524289
EndChar

StartChar: uni00B9
Encoding: 185 185 118
Width: 256
Flags: W
LayerCount: 2
Fore
SplineSet
158 533.5 m 1
 159 548.5 156.5 561.834 151 564 c 0
 147 564.5 134.581 561.194 130 559 c 1
 156.481 572.975 196.518 601.031 198.438 605.031 c 1
 198.438 605.531 199.55 608.031 200.05 608.531 c 1
 237.887 623.531 281 640.243 282 638.712 c 1
 282 638.712 277.5 628.5 273.925 609.924 c 2
 275.925 609.924 256.169 483.124 256.169 481.624 c 1
 251.606 465.867 243.3 439.636 239.606 411.867 c 1
 239.912 408.499 242.725 310.742 244.868 310.742 c 1
 244.287 301.742 242.225 282.144 244.419 276.5 c 0
 247.113 270.469 261.806 266.112 264 265.5 c 1
 253.669 266.112 223.988 254.531 212.156 254.031 c 1
 189.825 254.531 150.718 255.113 128.081 254.5 c 1
 115.855 256.031 92.3364 264.242 82.3677 263.742 c 1
 84.7364 265.242 107.469 279.499 110.5 282.867 c 1
 116.757 288.992 133.867 297.367 138.9 307.323 c 1
 141.9 310.323 166.5 424 167.5 429.5 c 2
 171 448 172 453 168.5 458.5 c 1
 161.113 458.5 162 535 158 533.5 c 1
EndSplineSet
Validated: 524321
EndChar

StartChar: ordmasculine
Encoding: 186 186 119
Width: 377
Flags: W
HStem: 249 26<174.671 226.81> 527.5 25.5<223.158 274.46>
VStem: 83.9725 76.0275<279.512 433.772> 287.878 76.028<369.681 523.609>
LayerCount: 2
Fore
SplineSet
255.943 527.5 m 0
 196.318 527.5 160 421 160 349.5 c 0
 160 313.5 169.5 275 194.478 275 c 0
 253.602 275 287.878 382.5 287.878 451.5 c 0
 287.878 490.5 279.5 527.5 255.943 527.5 c 0
264.74 553 m 0
 325.578 553 363.906 521 363.906 451.5 c 0
 363.906 355 268.41 249 181.01 249 c 0
 120.173 249 83.9725 286 83.9725 348 c 0
 83.9725 444.5 177.34 553 264.74 553 c 0
EndSplineSet
Validated: 524289
EndChar

StartChar: guillemotright
Encoding: 187 187 120
Width: 470
VWidth: 512
Flags: W
VStem: 123 257
LayerCount: 2
Fore
SplineSet
185.5 404.5 m 1
 191 414 204.5 421 210.5 423 c 1
 227.5 401.5 290.5 328 373.5 265.5 c 1
 378 261.5 380.5 256.5 380 251 c 0
 379.5 243 373.5 235.5 368 231.5 c 1
 244 160.5 181 102.5 143 73 c 1
 138.5 74 125 80.5 123 90 c 1
 128 99 264 229.5 284.5 247.5 c 1
 271 265.5 187 397.5 185.5 404.5 c 1
182.5 404.5 m 1
 188 414 201 421 207 423 c 1
 224 401.5 287.5 328 370.5 265.5 c 1
 375 261.5 377.5 256.5 377 251 c 0
 376.5 243 370.5 235.5 365 231.5 c 1
 241 160.5 177.5 102.5 139.5 73 c 1
 135 74 122 80.5 120 90 c 1
 125 99 261 229.5 281.5 247.5 c 1
 268 265.5 184 397.5 182.5 404.5 c 1
EndSplineSet
Validated: 524293
EndChar

StartChar: onequarter
Encoding: 188 188 121
Width: 666
VWidth: 512
Flags: W
HStem: 108 44<419.5 521.5 603 640.344> 253.5 22.742<74.9765 125.369 212.619 257.151>
LayerCount: 2
Fore
SplineSet
637 402.5 m 0
 643 402.5 650 392 649 387 c 2
 603 152 l 25
 637 152 l 18
 641 152 641.5 140.5 640.5 131.5 c 0
 640 123 635 112 632.5 108 c 1
 617.5 108 594.5 108 594.5 108 c 25
 574.5 2 l 1
 574.5 2 556.5 -1.5 534.5 -1.5 c 0
 520.5 -1.5 500 0 501 4 c 2
 521.5 108 l 25
 358.5 108 l 1
 354.5 110 353 118.5 354 122.5 c 1
 617 394 l 2
 622.5 399.5 633 402.5 637 402.5 c 0
558.5 298 m 25
 419.5 152 l 25
 529.5 152 l 25
 558.5 298 l 25
122 549 m 1
 118.5 551.5 116 561.334 116 565.5 c 0
 116 566.5 117.081 569.694 119 571 c 1
 178.481 600.475 256.518 639.031 273.438 647.031 c 1
 275.05 647.031 l 2
 278.387 647.031 280.5 635.743 280 630.212 c 1
 280 630.212 266.5 603 256.425 550.424 c 2
 216.669 342.624 l 2
 212.606 322.367 210.3 301.136 210.606 291.367 c 0
 210.912 279.499 255.225 276.242 259.368 276.242 c 0
 261.287 276.242 260.225 265.644 259.419 261.5 c 0
 258.612 258.469 257.806 254.613 257 253.5 c 1
 234.669 254.613 180.488 257.031 158.156 257.031 c 0
 135.825 257.031 97.2178 254.613 74.0806 253.5 c 1
 71.8555 256.531 75.3364 276.242 78.3677 276.242 c 0
 85.2364 276.242 122.469 280.999 127 289.367 c 0
 131.757 298.992 134.367 311.367 136.4 323.323 c 2
 173 510 l 2
 180 546.5 184.5 566.5 174 566.5 c 0
 164.613 566.5 131.5 553 122 549 c 1
634.5 629.5 m 2
 186 -7 l 1
 186 -7 160 -7 160 4 c 0
 160 6 161 8 162 10 c 26
 611.5 646.5 l 1
 611.5 646.5 635.5 645.5 635.5 634.5 c 0
 635.5 632.5 635.5 630.5 634.5 629.5 c 2
EndSplineSet
Validated: 524321
EndChar

StartChar: onehalf
Encoding: 189 189 122
Width: 689
VWidth: 512
Flags: W
HStem: 0 65<498.229 630.964> 253.5 22.742<74.9765 125.369 212.619 257.151> 341 49.755<537.346 610.421>
VStem: 619.964 84<237.226 331.803>
LayerCount: 2
Fore
SplineSet
703.964 304 m 0
 703.964 248.753 655.613 197.953 612.964 158.5 c 0
 570.851 118.777 517.619 78.5 498.229 65 c 1
 502.729 65 603.464 65 603.464 65 c 2
 634.464 65 649.206 91.4497 662 115.256 c 0
 663.61 118.281 667.135 120 670.964 120 c 0
 674.183 120 683.659 116.109 684.964 114.5 c 1
 671.036 85.0586 636.403 10.9883 630.964 0 c 9
 630.964 0 417.6 0 415.466 0 c 1
 413.857 2.10986 411.464 11.6704 411.464 15 c 1
 455.734 56.7456 512.51 111.142 559 162.572 c 0
 600.234 208.549 619.964 249.5 619.964 286.5 c 0
 619.964 319.575 598.405 341 567.464 341 c 0
 524.4 341 497.824 303.811 490.251 295.213 c 1
 486.617 295.213 478.177 305.372 479.482 312.592 c 1
 490.336 331.715 540.464 390.755 607.464 390.755 c 0
 662.223 390.755 703.964 355.5 703.964 304 c 0
122 549 m 1
 118.5 551.5 116 561.334 116 565.5 c 0
 116 566.5 117.081 569.694 119 571 c 1
 178.481 600.475 256.518 639.031 273.438 647.031 c 1
 275.05 647.031 l 2
 278.387 647.031 280.5 635.743 280 630.212 c 1
 280 630.212 266.5 603 256.425 550.424 c 2
 216.669 342.624 l 2
 212.606 322.367 210.3 301.136 210.606 291.367 c 0
 210.912 279.499 255.225 276.242 259.368 276.242 c 0
 261.287 276.242 260.225 265.644 259.419 261.5 c 0
 258.612 258.469 257.806 254.613 257 253.5 c 1
 234.669 254.613 180.488 257.031 158.156 257.031 c 0
 135.825 257.031 97.2178 254.613 74.0806 253.5 c 1
 71.8555 256.531 75.3364 276.242 78.3677 276.242 c 0
 85.2364 276.242 122.469 280.999 127 289.367 c 0
 131.757 298.992 134.367 311.367 136.4 323.323 c 2
 173 510 l 2
 180 546.5 184.5 566.5 174 566.5 c 0
 164.613 566.5 131.5 553 122 549 c 1
634.5 629.5 m 2
 186 -7 l 1
 186 -7 160 -7 160 4 c 0
 160 6 161 8 162 10 c 26
 611.5 646.5 l 1
 611.5 646.5 635.5 645.5 635.5 634.5 c 0
 635.5 632.5 635.5 630.5 634.5 629.5 c 2
EndSplineSet
Validated: 524321
EndChar

StartChar: threequarters
Encoding: 190 190 123
Width: 664
VWidth: 512
Flags: W
HStem: 108 44<422 524 605.5 642.844> 246 31<130.475 203.013> 445.5 22.5<149.067 183.12> 601 45<179.073 248.861>
VStem: 240.5 82<329.555 436.435> 254 67.5<522.416 595.665>
LayerCount: 2
Fore
SplineSet
639.5 402.5 m 0xf0
 645.5 402.5 652.5 392 651.5 387 c 2
 605.5 152 l 25
 639.5 152 l 18
 643.5 152 644 140.5 643 131.5 c 0
 642.5 123 637.5 112 635 108 c 1
 620 108 597.5 108 597.5 108 c 25
 577 2 l 1
 577 2 559 -1.5 537 -1.5 c 0
 523 -1.5 503 0 504 4 c 2
 524 108 l 25
 361 108 l 1
 357 110 355.5 118.5 356.5 122.5 c 1
 619.5 394 l 2
 625 399.5 635.5 402.5 639.5 402.5 c 0xf0
561 298 m 25
 422 152 l 25
 532 152 l 25
 561 298 l 25
246 646 m 0
 277 646 321.5 628.5 321.5 574.5 c 0xf4
 321.5 525 266 492 239.5 481 c 1
 270.5 479 322.5 453.5 322.5 398 c 0
 322.5 295 199 246 135 246 c 0
 101.5 246 71.5 254.5 59.5 265 c 1
 57 270 54 280.5 55 289 c 0
 56.5 307 73 330 91.5 330 c 0
 110.5 330 117.5 313.5 126 298.5 c 0
 135 283 150 277 165.5 277 c 0
 200.5 277 240.5 318 240.5 379 c 0xf8
 240.5 417 221.5 449 183.5 449 c 0
 175.5 449 160.5 448 152 445.5 c 1
 150.5 448.5 149 450.5 149 454.5 c 0
 149 457.5 149.5 466 150.5 468 c 1
 190.5 474.5 254 501.5 254 556 c 0xf4
 254 578.5 241 601 211 601 c 0
 175.5 601 147 562 141.5 557.5 c 1
 137.5 558 128.5 568.5 131 576.5 c 1
 161 617.5 201 646 246 646 c 0
627.5 629.5 m 2
 179 -7 l 1
 179 -7 153 -7 153 4 c 0
 153 6 154 8 155 10 c 26
 604.5 646.5 l 1
 604.5 646.5 628.5 645.5 628.5 634.5 c 0
 628.5 632.5 628.5 630.5 627.5 629.5 c 2
EndSplineSet
Validated: 524321
EndChar

StartChar: questiondown
Encoding: 191 191 124
Width: 326
VWidth: 512
Flags: W
HStem: -208.5 61<57.6674 135.232> 315.5 127<203.312 274.389>
VStem: -13.5 62<-139.151 -46.345> 179 118<338.074 418.634> 184 81<122.717 189.307>
LayerCount: 2
Fore
SplineSet
297 384 m 0xf0
 293.5 346.5 260.5 315.5 226.5 315.5 c 1
 196.5 315.5 175.5 340.5 179 372 c 0
 182.5 409 216.5 442.5 250.5 442.5 c 1
 281.5 442.5 300.5 415.5 297 384 c 0xf0
147.5 224 m 1
 147.5 229 154 239 159 242 c 1
 183 242 265 193.5 265 137.5 c 3
 265 83.5 226 59 200 41 c 0
 163 15.5 126 -1.5 87 -31.5 c 0
 67 -47 48.5 -66.5 48.5 -98 c 3
 48.5 -129.5 65.5 -147.5 93 -147.5 c 0
 130 -147.5 145.5 -99 179.5 -99 c 0
 217 -99 225.5 -140.5 218 -168.5 c 1
 209.5 -183.5 176 -208.5 133.5 -208.5 c 0
 54.5 -208.5 -13.5 -139 -13.5 -71 c 0
 -13.5 -22.5 -1 14 52.5 52.5 c 0
 72.5 68.5 108.5 85 148 112 c 0
 171.5 127.5 184 144 184 166 c 3xe8
 184 195 157 217.5 147.5 224 c 1
EndSplineSet
Validated: 524321
EndChar

StartChar: Agrave
Encoding: 192 192 125
Width: 614
Flags: W
HStem: -3.5 32.5<-33.0042 21.3088 109.204 161.195 346.837 407.167 541.268 584.599> 238.5 45<221.766 382.765> 642.5 20<408.766 416.016>
LayerCount: 2
Fore
SplineSet
415.266 719 m 1
 398.766 719 235.266 769 235.266 796 c 0
 235.266 817 268.766 827 299.266 827 c 0
 309.766 827 317.766 825 323.766 822 c 0
 360.766 800 427.266 739 427.266 732 c 1
 427.266 725.5 419.266 719.5 415.266 719 c 1
EndSplineSet
Refer: 32 65 N 1 0 0 1 -0.000255585 0 3
Validated: 524289
EndChar

StartChar: Aacute
Encoding: 193 193 126
Width: 614
Flags: W
HStem: -3.5 32.5<-33.0042 21.3088 109.204 161.195 346.837 407.167 541.268 584.599> 238.5 45<221.766 382.765> 642.5 20<408.766 416.016>
LayerCount: 2
Fore
SplineSet
390.266 719.5 m 1
 386.266 720.5 379.266 726 379.266 732.5 c 1
 379.266 739.5 444.766 800.5 481.766 822.5 c 0
 487.766 825.5 495.766 827.5 506.266 827.5 c 0
 536.766 827.5 570.266 817.5 570.266 796.5 c 0
 570.266 769.5 406.766 719.5 390.266 719.5 c 1
EndSplineSet
Refer: 32 65 N 1 0 0 1 -0.000255585 0 3
Validated: 524289
EndChar

StartChar: Acircumflex
Encoding: 194 194 127
Width: 614
Flags: W
HStem: -3.5 32.5<-33.0042 21.3088 109.204 161.195 346.837 407.167 541.268 584.599> 238.5 45<221.766 382.765> 642.5 20<408.766 416.016>
LayerCount: 2
Fore
SplineSet
550.766 747 m 1
 548.766 739 542.766 731.5 535.099 729.5 c 1
 519.266 733.5 459.599 767.5 428.599 789 c 1
 387.599 765.5 320.266 734.5 296.099 729.5 c 1
 289.766 732.5 289.099 746 290.099 750 c 1
 336.766 780.5 406.266 831 431.599 854.5 c 0
 437.221 859.547 442.766 863.5 447.266 863.5 c 0
 451.766 863.5 455.572 858.593 459.266 854.5 c 0
 477.766 833 523.766 775.5 550.766 747 c 1
EndSplineSet
Refer: 32 65 N 1 0 0 1 -0.000255585 0 3
Validated: 524289
EndChar

StartChar: Atilde
Encoding: 195 195 128
Width: 614
Flags: W
HStem: -3.5 32.5<-33.0042 21.3088 109.204 161.195 346.837 407.167 541.268 584.599> 238.5 45<221.766 382.765> 642.5 20<408.766 416.016> 733.5 48.5<428.514 536.699> 775.5 48.5<294.833 403.018>
LayerCount: 2
Fore
SplineSet
359.266 824 m 0xe8
 384.266 824 400.266 821 422.266 808 c 0
 444.266 795 465.266 782 497.266 782 c 0xf0
 532.266 782 558.266 816 564.266 824 c 1xe8
 567.266 823 572.266 819.5 572.266 811.5 c 0
 572.266 796.5 562.266 780.5 553.266 770.5 c 0
 527.266 743.5 502.266 733.5 472.266 733.5 c 0xf0
 447.266 733.5 431.266 736.5 409.266 749.5 c 0
 387.266 762.5 366.266 775.5 334.266 775.5 c 0xe8
 299.266 775.5 273.266 741.5 267.266 733.5 c 1xf0
 264.266 734.5 259.266 738 259.266 746 c 0
 259.266 761 269.266 777 278.266 787 c 0
 304.266 814 329.266 824 359.266 824 c 0xe8
EndSplineSet
Refer: 32 65 N 1 0 0 1 -0.000255585 0 3
Validated: 524289
EndChar

StartChar: Adieresis
Encoding: 196 196 129
Width: 614
Flags: W
HStem: -3.5 32.5<-33.0042 21.3088 109.204 161.195 346.837 407.167 541.268 584.599> 238.5 45<221.766 382.765> 642.5 20<408.766 416.016> 728.5 119<286.709 357.793 478.093 548.793>
VStem: 268.243 109.5<748.684 828.41> 459.243 109.5<747.611 828.41>
LayerCount: 2
Fore
SplineSet
459.243 789 m 0
 465.243 821.5 494.743 847.5 525.243 847.5 c 1
 555.243 847.5 574.743 821.5 568.743 789 c 0
 562.743 756.5 533.743 728.5 503.243 728.5 c 1
 472.243 728.5 453.243 756.5 459.243 789 c 0
268.243 789 m 0
 274.243 821.5 303.743 847.5 334.243 847.5 c 1
 364.243 847.5 383.743 821.5 377.743 789 c 0
 371.743 756.5 342.243 728.5 311.743 728.5 c 1
 280.743 728.5 262.243 756.5 268.243 789 c 0
EndSplineSet
Refer: 32 65 N 1 0 0 1 -0.000255585 0 3
Validated: 524321
EndChar

StartChar: Aring
Encoding: 197 197 130
Width: 614
Flags: W
HStem: -3.5 32.5<-33.0042 21.3088 109.204 161.195 346.837 407.167 541.268 584.599> 238.5 45<221.766 382.765> 642.5 20<408.766 416.016> 659.5 39.5<371.717 447.861> 808.5 39<385.547 461.832>
LayerCount: 2
Fore
SplineSet
366.207 754 m 0xd8
 360.207 723.5 378.207 699 406.207 699 c 0
 434.207 699 460.707 723.5 466.707 754 c 0
 472.707 784.5 455.707 808.5 427.707 808.5 c 0
 399.707 808.5 372.207 784.5 366.207 754 c 0xd8
329.207 754 m 0
 339.207 805.5 387.707 847.5 435.207 847.5 c 0
 482.707 847.5 513.207 805.5 503.207 754 c 0
 493.207 702.5 446.207 659.5 398.707 659.5 c 0
 351.207 659.5 319.207 702.5 329.207 754 c 0
EndSplineSet
Refer: 32 65 N 1 0 0 1 -0.000255585 0 3
Validated: 524325
EndChar

StartChar: AE
Encoding: 198 198 131
Width: 850
VWidth: 512
Flags: W
HStem: -3 35.5<329.766 400.187> -0.144698 43.1447<522.248 715.159> 281.5 47<305.477 428.93> 299 45.5<547.606 680.032> 618 46<612.275 766> 618 38.5<574.357 729.804>
VStem: 426 96.5<57.295 278.955> 702.5 28.5<221.566 284.627> 795.5 32.5<518.148 578.392>
LayerCount: 2
Fore
SplineSet
525 656.5 m 1xa780
 588 656.5 749 663.5 827 664 c 1
 826.5 614 827 567.5 828 523 c 1
 825 520 815.5 518 808.5 518 c 0
 802 518 796 520.5 795.5 525.5 c 0
 786.5 592 754.5 618 709.5 618 c 2
 641.5 618 l 2
 612 618 581.5 617 576.5 605.5 c 0
 569.5 586 567 559.5 563.5 526 c 2
 547 353 l 2
 546.5 347 563 344.5 582 344.5 c 2
 623 344.5 l 2
 693 344.5 698.5 351.5 724.5 415 c 0
 726.5 420 731 422.5 737.5 422.5 c 0
 744.5 422.5 751.5 420.5 753.5 417.5 c 1
 745.5 386 733.5 257 731 225.5 c 1
 728.5 223.5 721.5 221.5 715 221.5 c 0
 708.5 221.5 703 224 702.5 229 c 0
 698 281.5 688 286.5 680.5 291.5 c 0
 671 297.5 631 299 596 299 c 0
 570 299 542 297.5 541 287 c 2
 527 147.5 l 2
 526.5 143.5 519.5 77 522.5 62.5 c 0
 524.5 50 542.5 43 582 43 c 2
 620.5 43 l 2x5b80
 655.5 43 695.5 49.5 721.5 68 c 0
 742.5 83.5 763 117 786 166 c 0
 788 170 793.5 172 800.5 172 c 0
 809.5 172 822.5 169 824.5 166 c 1
 799 112 767 41 754 -3 c 1x8380
 690.602 -3 559.825 0 454.5 -0.144698 c 0x4380
 391.844 -0.218759 334.594 -2.83073 328.5 -3 c 1
 325.5 2.5 328 28 333 32.5 c 1
 344.5 33 394.5 39.5 400.5 50.5 c 0
 415.5 76 420 147.5 426 215 c 1
 426 217.5 431 279 429 279 c 1
 416 280 394 281.5 393 281.5 c 1
 375.5 282.5 344 282 319.5 281.5 c 0
 299 281.5 291 281 273.5 279.5 c 1
 272 279.5 215 198.5 214.5 197.5 c 2
 197 172.5 156.5 112 147 92.5 c 0
 139 72 149 49 153 45.5 c 1
 150 32.5 180.5 17.5 182.5 15 c 1
 165.5 12.5 156.5 1 134 -1 c 1
 96.5 1 72 1.5 30 0.5 c 1
 8 1 -5 12 -19.5 10 c 1
 -15.5 12 0.5 26.5 11 38.5 c 1
 31 51.5 68.5 75 87.5 101.5 c 1
 99.5 115.5 259.5 346 269.5 360 c 2
 271 362 430 592.5 430 595.5 c 0
 430 601 430 613.951 419 616.5 c 1
 418 621.5 408.5 636.5 406.5 639.5 c 1
 404.5 643 505.5 656.5 525 656.5 c 1xa780
461 557 m 1
 305.5 334.5 l 1
 305 334 305 330.5 307 330.5 c 0
 325.5 329 347 328.5 365.5 328.5 c 0x2380
 390 328.5 408.5 328.5 433 330.5 c 1
 434 330.5 438.5 335.5 438.5 335.5 c 1
 438.5 335.5 460.5 549.5 461 557 c 1
EndSplineSet
Validated: 524321
EndChar

StartChar: Ccedilla
Encoding: 199 199 132
Width: 617
Flags: W
HStem: -101.5 86.5<246.492 282.081> -7.5 40<260.386 423.359> 627.5 39<331.271 492.243>
VStem: 32 119.5<161.881 400.422> 242.722 48<-37.9971 -15.8732> 564.5 32.5<483.003 550.389>
LayerCount: 2
Fore
SplineSet
255.222 -15 m 1
 284.722 -15 l 1
 299.222 -15 293.722 -41.5 290.722 -57 c 1
 285.222 -84.5 267.722 -101.5 239.222 -101.5 c 1
 245.722 -101.5 253.722 -109 250.722 -121.5 c 1
 250.722 -145 219.722 -162.5 187.222 -159 c 1
 181.222 -155 172.722 -148.5 173.222 -146 c 1
 178.722 -145 181.222 -150 190.222 -148.5 c 0
 205.722 -140 220.222 -124.5 227.722 -114.5 c 1
 240.222 -100.5 235.222 -107 243.222 -107 c 1
 250.222 -107 256.222 -99.5 250.222 -90 c 0
 249.222 -78 236.722 -66.5 231.222 -64 c 0
 232.222 -55 239.222 -44 239.222 -38 c 1
 238.222 -38 242.722 -34 242.722 -31.5 c 1
 242.722 -29 240.722 -34 255.222 -15 c 1
EndSplineSet
Refer: 34 67 N 1 0 0 1 -2.5 0 3
Validated: 524325
EndChar

StartChar: Egrave
Encoding: 200 200 133
Width: 549
Flags: W
HStem: -3 33<-7.93375 61.3144> -1.1447 40.6447<181.132 387.082> 311 42<234.6 373.849> 620.5 36.5<283.346 477.044> 628 33<116.102 170.815>
VStem: 391.316 29<232.106 273.411> 508.316 32.501<517.239 582.65>
LayerCount: 2
Fore
SplineSet
403.816 712.5 m 1x26
 387.316 712.5 223.816 762.5 223.816 789.5 c 0
 223.816 810.5 257.316 820.5 287.816 820.5 c 0
 298.316 820.5 306.316 818.5 312.316 815.5 c 0
 349.316 793.5 415.816 732.5 415.816 725.5 c 1
 415.816 719 407.816 713 403.816 712.5 c 1x26
EndSplineSet
Refer: 36 69 N 1 0 0 1 -0.000159264 0 3
Validated: 524289
EndChar

StartChar: Eacute
Encoding: 201 201 134
Width: 549
Flags: W
HStem: -3 33<-7.93375 61.3144> -1.1447 40.6447<181.132 387.082> 311 42<234.6 373.849> 620.5 36.5<283.346 477.044> 628 33<116.102 170.815>
VStem: 391.316 29<232.106 273.411> 508.316 32.501<517.239 582.65>
LayerCount: 2
Fore
SplineSet
308.816 713 m 1x26
 304.816 714 297.816 719.5 297.816 726 c 1
 297.816 733 363.316 794 400.316 816 c 0
 406.316 819 414.316 821 424.816 821 c 0
 455.316 821 488.816 811 488.816 790 c 0
 488.816 763 325.316 713 308.816 713 c 1x26
EndSplineSet
Refer: 36 69 N 1 0 0 1 -0.000159264 0 3
Validated: 524289
EndChar

StartChar: Ecircumflex
Encoding: 202 202 135
Width: 549
Flags: W
HStem: -3 33<-7.93375 61.3144> -1.1447 40.6447<181.132 387.082> 311 42<234.6 373.849> 620.5 36.5<283.346 477.044> 628 33<116.102 170.815>
VStem: 391.316 29<232.106 273.411> 508.316 32.501<517.239 582.65>
LayerCount: 2
Fore
SplineSet
486.316 747 m 1x26
 484.316 739 478.316 731.5 470.649 729.5 c 1
 454.816 733.5 395.149 767.5 364.149 789 c 1
 323.149 765.5 255.816 734.5 231.649 729.5 c 1
 225.316 732.5 224.649 746 225.649 750 c 1
 272.316 780.5 341.816 831 367.149 854.5 c 0
 372.771 859.547 378.316 863.5 382.816 863.5 c 0
 387.316 863.5 391.122 858.593 394.816 854.5 c 0
 413.316 833 459.316 775.5 486.316 747 c 1x26
EndSplineSet
Refer: 36 69 N 1 0 0 1 -0.000159264 0 3
Validated: 524289
EndChar

StartChar: Edieresis
Encoding: 203 203 136
Width: 549
Flags: W
HStem: -3 33<-7.93375 61.3144> -1.1447 40.6447<181.132 387.082> 311 42<234.6 373.849> 620.5 36.5<283.346 477.044> 628 33<116.102 170.815> 728.5 119<227.26 298.344 418.644 489.344>
VStem: 208.794 109.5<748.684 828.41> 391.316 29<232.106 273.411> 399.794 109.5<747.611 828.41> 508.316 32.501<517.239 582.65>
LayerCount: 2
Fore
SplineSet
399.794 789 m 0x2680
 405.794 821.5 435.294 847.5 465.794 847.5 c 1
 495.794 847.5 515.294 821.5 509.294 789 c 0
 503.294 756.5 474.294 728.5 443.794 728.5 c 1
 412.794 728.5 393.794 756.5 399.794 789 c 0x2680
208.794 789 m 0
 214.794 821.5 244.294 847.5 274.794 847.5 c 1
 304.794 847.5 324.294 821.5 318.294 789 c 0
 312.294 756.5 282.794 728.5 252.294 728.5 c 1
 221.294 728.5 202.794 756.5 208.794 789 c 0
EndSplineSet
Refer: 36 69 N 1 0 0 1 -0.000159264 0 3
Validated: 524321
EndChar

StartChar: Igrave
Encoding: 204 204 137
Width: 339
Flags: W
HStem: -3.5 33<-7.51188 61.5045 179.419 235.074> 629 33<115.559 171.214 289.628 358.145>
LayerCount: 2
Fore
SplineSet
274.316 712.5 m 1
 257.816 712.5 94.3164 762.5 94.3164 789.5 c 0
 94.3164 810.5 127.816 820.5 158.316 820.5 c 0
 168.816 820.5 176.816 818.5 182.816 815.5 c 0
 219.816 793.5 286.316 732.5 286.316 725.5 c 1
 286.316 719 278.316 713 274.316 712.5 c 1
EndSplineSet
Refer: 40 73 N 1 0 0 1 -0.000159264 0 3
Validated: 524289
EndChar

StartChar: Iacute
Encoding: 205 205 138
Width: 339
Flags: W
HStem: -3.5 33<-7.51188 61.5045 179.419 235.074> 629 33<115.559 171.214 289.628 358.145>
LayerCount: 2
Fore
SplineSet
185.816 713 m 1
 181.816 714 174.816 719.5 174.816 726 c 1
 174.816 733 240.316 794 277.316 816 c 0
 283.316 819 291.316 821 301.816 821 c 0
 332.316 821 365.816 811 365.816 790 c 0
 365.816 763 202.316 713 185.816 713 c 1
EndSplineSet
Refer: 40 73 N 1 0 0 1 -0.000159264 0 3
Validated: 524289
EndChar

StartChar: Icircumflex
Encoding: 206 206 139
Width: 339
Flags: W
HStem: -3.5 33<-7.51188 61.5045 179.419 235.074> 629 33<115.559 171.214 289.628 358.145>
LayerCount: 2
Fore
SplineSet
377.816 747 m 1
 375.816 739 369.816 731.5 362.149 729.5 c 1
 346.316 733.5 286.649 767.5 255.649 789 c 1
 214.649 765.5 147.316 734.5 123.149 729.5 c 1
 116.816 732.5 116.149 746 117.149 750 c 1
 163.816 780.5 233.316 831 258.649 854.5 c 0
 264.271 859.547 269.816 863.5 274.316 863.5 c 0
 278.816 863.5 282.622 858.593 286.316 854.5 c 0
 304.816 833 350.816 775.5 377.816 747 c 1
EndSplineSet
Refer: 40 73 N 1 0 0 1 -0.000159264 0 3
Validated: 524289
EndChar

StartChar: Eth
Encoding: 208 208 141
Width: 687
Flags: W
HStem: -3 38.5<-4.29126 65.1123 181.572 354.095> 308.5 37.5<61.1382 401.318> 622 37<115.469 172.454 284.755 436.305>
LayerCount: 2
Fore
SplineSet
69.2265 346 m 1
 97.2265 346 386.227 346 399.227 346 c 0
 403.227 346 405.227 342 404.227 338 c 0
 403.227 333 398.727 315.5 393.727 308.5 c 1
 365.727 308.5 75.7265 308.5 62.7266 308.5 c 0
 58.7266 308.5 58.7266 315.5 59.7266 319.5 c 0
 60.7266 324.5 62.2266 339 69.2265 346 c 1
EndSplineSet
Refer: 35 68 N 1 0 0 1 0 0 2
Validated: 524293
EndChar

StartChar: Ntilde
Encoding: 209 209 142
Width: 745
Flags: W
HStem: -3.5 33<-9.88887 63.2126 148.726 209.159> 630.5 33<115.313 172.785 552.198 614.162 695.015 770.808> 733.5 48.5<455.203 563.388> 775.5 48.5<321.522 429.707>
LayerCount: 2
Fore
SplineSet
385.955 824 m 0xd0
 410.955 824 426.955 821 448.955 808 c 0
 470.955 795 491.955 782 523.955 782 c 0xe0
 558.955 782 584.955 816 590.955 824 c 1xd0
 593.955 823 598.955 819.5 598.955 811.5 c 0
 598.955 796.5 588.955 780.5 579.955 770.5 c 0
 553.955 743.5 528.955 733.5 498.955 733.5 c 0xe0
 473.955 733.5 457.955 736.5 435.955 749.5 c 0
 413.955 762.5 392.955 775.5 360.955 775.5 c 0xd0
 325.955 775.5 299.955 741.5 293.955 733.5 c 1xe0
 290.955 734.5 285.955 738 285.955 746 c 0
 285.955 761 295.955 777 304.955 787 c 0
 330.955 814 355.955 824 385.955 824 c 0xd0
EndSplineSet
Refer: 45 78 N 1 0 0 1 -0.000211716 0 3
Validated: 524289
EndChar

StartChar: Ograve
Encoding: 210 210 143
Width: 682
Flags: W
HStem: -10.5 39.5<256.735 400.432> 626.5 39.5<335.693 471.366>
VStem: 55 119<153.692 402.639> 556.5 119<247.542 501.501>
LayerCount: 2
Fore
SplineSet
424.5 712.5 m 1
 408 712.5 244.5 762.5 244.5 789.5 c 0
 244.5 810.5 278 820.5 308.5 820.5 c 0
 319 820.5 327 818.5 333 815.5 c 0
 370 793.5 436.5 732.5 436.5 725.5 c 1
 436.5 719 428.5 713 424.5 712.5 c 1
EndSplineSet
Refer: 46 79 N 1 0 0 1 0 0 3
Validated: 524289
EndChar

StartChar: Oacute
Encoding: 211 211 144
Width: 682
Flags: W
HStem: -10.5 39.5<256.735 400.432> 626.5 39.5<335.693 471.366>
VStem: 55 119<153.692 402.639> 556.5 119<247.542 501.501>
LayerCount: 2
Fore
SplineSet
358 713 m 1
 354 714 347 719.5 347 726 c 1
 347 733 412.5 794 449.5 816 c 0
 455.5 819 463.5 821 474 821 c 0
 504.5 821 538 811 538 790 c 0
 538 763 374.5 713 358 713 c 1
EndSplineSet
Refer: 46 79 N 1 0 0 1 0 0 3
Validated: 524289
EndChar

StartChar: Ocircumflex
Encoding: 212 212 145
Width: 682
Flags: W
HStem: -10.5 39.5<256.735 400.432> 626.5 39.5<335.693 471.366>
VStem: 55 119<153.692 402.639> 556.5 119<247.542 501.501>
LayerCount: 2
Fore
SplineSet
537.5 747 m 1
 535.5 739 529.5 731.5 521.833 729.5 c 1
 506 733.5 446.333 767.5 415.333 789 c 1
 374.333 765.5 307 734.5 282.833 729.5 c 1
 276.5 732.5 275.833 746 276.833 750 c 1
 323.5 780.5 393 831 418.333 854.5 c 0
 423.955 859.547 429.5 863.5 434 863.5 c 0
 438.5 863.5 442.306 858.593 446 854.5 c 0
 464.5 833 510.5 775.5 537.5 747 c 1
EndSplineSet
Refer: 46 79 N 1 0 0 1 0 0 3
Validated: 524289
EndChar

StartChar: Otilde
Encoding: 213 213 146
Width: 682
Flags: W
HStem: -10.5 39.5<256.735 400.432> 626.5 39.5<335.693 471.366> 733.5 48.5<424.248 532.433> 775.5 48.5<290.567 398.752>
VStem: 55 119<153.692 402.639> 556.5 119<247.542 501.501>
LayerCount: 2
Fore
SplineSet
355 824 m 0xdc
 380 824 396 821 418 808 c 0
 440 795 461 782 493 782 c 0xec
 528 782 554 816 560 824 c 1xdc
 563 823 568 819.5 568 811.5 c 0
 568 796.5 558 780.5 549 770.5 c 0
 523 743.5 498 733.5 468 733.5 c 0xec
 443 733.5 427 736.5 405 749.5 c 0
 383 762.5 362 775.5 330 775.5 c 0xdc
 295 775.5 269 741.5 263 733.5 c 1xec
 260 734.5 255 738 255 746 c 0
 255 761 265 777 274 787 c 0
 300 814 325 824 355 824 c 0xdc
EndSplineSet
Refer: 46 79 N 1 0 0 1 0 0 3
Validated: 524289
EndChar

StartChar: Odieresis
Encoding: 214 214 147
Width: 682
Flags: W
HStem: -10.5 39.5<256.735 400.432> 626.5 39.5<335.693 471.366> 728.5 119<288.944 360.028 480.328 551.029>
VStem: 55 119<153.692 402.639> 270.478 109.5<748.684 828.41> 461.478 109.501<747.611 828.41> 556.5 119<247.542 501.501>
LayerCount: 2
Fore
SplineSet
461.478 789 m 0xfc
 467.478 821.5 496.978 847.5 527.479 847.5 c 1
 557.479 847.5 576.979 821.5 570.979 789 c 0
 564.979 756.5 535.979 728.5 505.478 728.5 c 1
 474.478 728.5 455.478 756.5 461.478 789 c 0xfc
270.478 789 m 0
 276.478 821.5 305.978 847.5 336.478 847.5 c 1
 366.478 847.5 385.978 821.5 379.978 789 c 0
 373.978 756.5 344.478 728.5 313.978 728.5 c 1
 282.978 728.5 264.478 756.5 270.478 789 c 0
EndSplineSet
Refer: 46 79 N 1 0 0 1 0 0 3
Validated: 524321
EndChar

StartChar: multiply
Encoding: 215 215 148
Width: 403
Flags: W
HStem: 214 64<188.484 206.5>
VStem: 167 64.5<228.625 261.5>
LayerCount: 2
Fore
SplineSet
25 69 m 0
 19 69 11 94.5 11 110.5 c 1
 165 245.5 l 2
 166 246.5 167 247.5 167 248.5 c 0
 167 250.5 165 254.5 164 255.5 c 2
 65 390.5 l 1
 65 404.5 89.5 425 94.5 425 c 0
 97.5 425 96.5 423 98.5 421 c 2
 202.5 280 l 2
 203.5 279 205.5 278 206.5 278 c 2
 208.5 279 l 26
 366.5 420 l 2
 368.5 422 370.5 423 372.5 423 c 0
 379.5 423 386.5 398.5 386.5 380.5 c 1
 233.5 244.5 l 2
 232.5 243.5 231.5 243.5 231.5 242.5 c 3
 231.5 241.5 231.5 241.5 232.5 240.5 c 2
 332.5 104.5 l 1
 332.5 90.5 315 69 308 69 c 0
 304 69 302 70 301 72 c 2
 198 212 l 2
 197 213 196 214 195 214 c 0
 194 214 192 213 191 212 c 2
 30 72 l 2
 28 70 27 69 25 69 c 0
EndSplineSet
Validated: 524289
EndChar

StartChar: Oslash
Encoding: 216 216 149
Width: 677
Flags: W
HStem: -10.5 39.5<256.735 400.432> 626.5 39.5<335.693 471.366>
VStem: 55 119<153.692 402.639> 556.5 119<247.542 501.501>
LayerCount: 2
Fore
SplineSet
404 626.5 m 1
 272 626.5 174 443.5 174 256 c 0
 174 141 211 29 327 29 c 1
 471 29 556.5 229.5 556.5 401.5 c 0
 556.5 507 519.502 626.5 404 626.5 c 1
419.5 666 m 0
 580.5 666 675.5 530 675.5 385.5 c 0
 675.5 140.5 486 -10.5 307 -10.5 c 0
 156 -10.5 55 117 55 269 c 0
 55 508.5 245.828 666 419.5 666 c 0
106.086 -13 m 21
 98.086 -10 78.086 5 83.086 11 c 13
 599.086 668 l 21
 607.086 666 628.086 651 623.086 645 c 13
 106.086 -13 l 21
EndSplineSet
Validated: 524325
EndChar

StartChar: Ugrave
Encoding: 217 217 150
Width: 682
Flags: W
HStem: -6.5 65<219.71 367.716> 629 33<71.5952 127.251 245.165 313.681 499.885 558.009 639.764 714.757>
LayerCount: 2
Fore
SplineSet
411.854 712.5 m 1
 395.354 712.5 231.854 762.5 231.854 789.5 c 0
 231.854 810.5 265.354 820.5 295.854 820.5 c 0
 306.354 820.5 314.354 818.5 320.354 815.5 c 0
 357.354 793.5 423.854 732.5 423.854 725.5 c 1
 423.854 719 415.854 713 411.854 712.5 c 1
EndSplineSet
Refer: 52 85 N 1 0 0 1 -0.499527 0 3
Validated: 524289
EndChar

StartChar: Uacute
Encoding: 218 218 151
Width: 682
Flags: W
HStem: -6.5 65<219.71 367.716> 629 33<71.5952 127.251 245.165 313.681 499.885 558.009 639.764 714.757>
LayerCount: 2
Fore
SplineSet
366.854 713 m 1
 362.854 714 355.854 719.5 355.854 726 c 1
 355.854 733 421.354 794 458.354 816 c 0
 464.354 819 472.354 821 482.854 821 c 0
 513.354 821 546.854 811 546.854 790 c 0
 546.854 763 383.354 713 366.854 713 c 1
EndSplineSet
Refer: 52 85 N 1 0 0 1 -0.499527 0 3
Validated: 524289
EndChar

StartChar: Ucircumflex
Encoding: 219 219 152
Width: 682
Flags: W
HStem: -6.5 65<219.71 367.716> 629 33<71.5952 127.251 245.165 313.681 499.885 558.009 639.764 714.757>
LayerCount: 2
Fore
SplineSet
531.854 747 m 1
 529.854 739 523.854 731.5 516.188 729.5 c 1
 500.354 733.5 440.688 767.5 409.688 789 c 1
 368.688 765.5 301.354 734.5 277.187 729.5 c 1
 270.854 732.5 270.187 746 271.187 750 c 1
 317.854 780.5 387.354 831 412.688 854.5 c 0
 418.309 859.547 423.854 863.5 428.354 863.5 c 0
 432.854 863.5 436.66 858.593 440.354 854.5 c 0
 458.854 833 504.854 775.5 531.854 747 c 1
EndSplineSet
Refer: 52 85 N 1 0 0 1 -0.499527 0 3
Validated: 524289
EndChar

StartChar: Udieresis
Encoding: 220 220 153
Width: 682
Flags: W
HStem: -6.5 65<219.71 367.716> 629 33<71.5952 127.251 245.165 313.681 499.885 558.009 639.764 714.757> 728.5 119<270.797 341.881 462.181 532.881>
VStem: 252.331 109.5<748.684 828.41> 443.331 109.5<747.611 828.41>
LayerCount: 2
Fore
SplineSet
443.331 789 m 0
 449.331 821.5 478.831 847.5 509.331 847.5 c 1
 539.331 847.5 558.831 821.5 552.831 789 c 0
 546.831 756.5 517.831 728.5 487.331 728.5 c 1
 456.331 728.5 437.331 756.5 443.331 789 c 0
252.331 789 m 0
 258.331 821.5 287.831 847.5 318.331 847.5 c 1
 348.331 847.5 367.831 821.5 361.831 789 c 0
 355.831 756.5 326.331 728.5 295.831 728.5 c 1
 264.831 728.5 246.331 756.5 252.331 789 c 0
EndSplineSet
Refer: 52 85 N 1 0 0 1 -0.499527 0 3
Validated: 524321
EndChar

StartChar: Yacute
Encoding: 221 221 154
Width: 574
Flags: W
HStem: -3.5 33<79.1952 147.711 265.625 321.703> 629 33<36.6249 79.642 229.226 286.917 413.041 469.445 548.864 615.686>
LayerCount: 2
Fore
SplineSet
331.023 713 m 1
 327.023 714 320.023 719.5 320.023 726 c 1
 320.023 733 385.523 794 422.523 816 c 0
 428.523 819 436.523 821 447.023 821 c 0
 477.523 821 511.023 811 511.023 790 c 0
 511.023 763 347.523 713 331.023 713 c 1
EndSplineSet
Refer: 56 89 N 1 0 0 1 -0.00018692 0 3
Validated: 524289
EndChar

StartChar: Thorn
Encoding: 222 222 155
Width: 339
Flags: W
HStem: -3.5 33<-6.51172 62.5047 180.418 236.074> 134 41<228.929 330.09> 469.5 42.5<268.146 367.078> 628 33<117.143 172.316 289.88 358.258>
VStem: 172.316 93.002<503.156 606.802>
LayerCount: 2
Fore
SplineSet
348.5 512 m 0
 446 512 535.106 429.5 512.652 314.5 c 0
 493.967 217.536 394.5 134 282.5 134 c 0
 255.5 134 234.5 146 227 156.5 c 0
 224.706 159.611 223.078 170.798 223.133 176.5 c 0
 223.168 180.543 224.481 183.481 226.207 183 c 1
 237.5 177 248.707 175 268.707 175 c 0
 322.207 175 382.308 221.5 397.652 300 c 0
 414.796 388.972 386 469.5 316.5 469.5 c 0
 300.793 469.5 278.5 467 266 457 c 0
 255.975 448.633 249.514 434.5 244.221 408.5 c 2
 190.816 130.5 l 2
 184 94 177.316 64.5 180.316 46.5 c 0
 181.816 34.5 227.316 30 238.816 29.5 c 1
 241.816 23.5 237.816 2 232.316 -3.5 c 1
 195.816 -0.5 150.316 2.5 112.816 2.5 c 0
 75.3164 2.5 28.8164 -0.5 -9.18359 -3.5 c 1
 -12.6836 2 -8.18359 23.5 -2.68359 29.5 c 1
 8.81641 30 56.8164 34.5 62.8164 46.5 c 0
 72.3164 64.5 78 94 84.8164 130.5 c 2
 162.316 528 l 2
 169 564.5 175.316 594 172.316 612 c 0
 170.816 624 124.816 627.5 113.316 628 c 1
 110.316 634 114.816 655.5 120.316 661 c 1
 159.816 658.5 203.316 657 240.816 657 c 0
 278.316 657 323.816 660 361.816 663 c 1
 365.316 657.5 360.816 636 355.316 630 c 1
 343.816 629.5 295.939 625.156 290.316 613 c 0
 281 592.5 272.818 555 266.318 520 c 0
 265.318 515.5 264.818 506.5 265.318 504.5 c 0
 265.818 502 266.872 501.176 268.818 501.5 c 0
 287.5 507 313.5 512 348.5 512 c 0
EndSplineSet
Validated: 524321
EndChar

StartChar: germandbls
Encoding: 223 223 156
Width: 518
VWidth: 512
Flags: W
HStem: -225.5 44.5<-59.25 21.1076> -4 32<322.866 390.171> 377 41.5<69.2066 106> 648.5 41.5<307.329 384.905>
VStem: 278.168 77.999<306.267 373.221> 404.167 77<57.045 137.029> 413.667 87.5<492.638 620.368>
LayerCount: 2
Fore
SplineSet
238.503 418.5 m 0xfa
 264.734 567.646 294.168 648.5 345.167 648.5 c 0
 391.167 648.5 413.667 588 413.667 551.5 c 0xfa
 413.667 493.5 380.667 454.5 359.167 432.5 c 0
 316.65 388.982 278.168 364.5 278.168 317 c 0
 278.168 271 301.281 240.6 330.167 204.5 c 0
 356.667 171.5 404.167 119 404.167 82 c 0
 404.167 50 384.167 28 356.167 28 c 0
 307.167 28 305.167 98 272.168 98 c 3
 251.001 98 230.251 83 229.168 55 c 0
 228.868 39.6333 236.668 27 240.668 21.5 c 1
 256.168 9 276.168 -4 336.167 -4 c 3
 415.167 -4 481.167 53 481.167 124.5 c 1xfc
 481.167 181.5 447.167 219.5 407.667 269 c 0
 385.531 296.883 356.167 329.5 356.167 356.5 c 3
 356.167 373.5 372.167 391.5 392.167 408.5 c 0
 422.051 433.318 501.167 476 501.167 571 c 0
 501.167 649.5 431.667 690 373 690 c 0
 293 690 175 582.5 143 418.5 c 1
 106 418.5 l 2
 83 418.5 59 390 59 380 c 0
 59 378 60 377 61 377 c 2
 136 377 l 1
 78 46.5 l 1
 47 -112.5 34 -181 -5 -181 c 0
 -21 -181 -30 -168.5 -38 -158.5 c 0
 -49 -145 -61 -135 -78 -135 c 0
 -98.077 -135 -109.898 -156.423 -111.385 -179 c 0
 -111.806 -188.347 -110 -197.246 -107.5 -204 c 1
 -98.5 -214.5 -75 -225.5 -43.5 -225.5 c 0
 36.5 -225.5 140.5 -113.5 172.5 50.5 c 0
 196.5 176.5 213 274.5 238.503 418.5 c 0xfa
EndSplineSet
Validated: 524329
EndChar

StartChar: ae
Encoding: 230 230 163
Width: 559
VWidth: 512
Flags: W
HStem: -8 62<79.5 167.822> -6 71<328.769 415.9> 193.5 34.5<346.5 394.069> 404 38<189.396 289.471 414.301 518.75>
VStem: 75 84<299.739 369.135> 482 96.5<305.041 400.606>
LayerCount: 2
Fore
SplineSet
448.5 403 m 1x3c
 393 403 353.5 289.5 346.5 228 c 1
 385.5 228 482 289.5 482 363.5 c 1
 482 385 469.5 403 448.5 403 c 1x3c
239.88 99.4414 m 1
 238.314 106.857 246.633 193.508 249.607 204.923 c 1
 216.919 198.492 180.133 185.175 164 176.082 c 0
 135.225 160.061 120 134.314 118.5 112.5 c 1
 114.5 75 137 54 161 54 c 1xbc
 186.995 54 234.551 90.9199 239.88 99.4414 c 1
268.5 442 m 1
 310.443 442 341.071 414.129 351.831 378.536 c 1
 388.678 415.35 441.101 442 489 442 c 0
 548.5 442 578.5 405.5 578.5 363.5 c 1
 578.5 268 410.5 198.5 342.5 193.5 c 1
 341.5 189 339.5 169.5 339.5 160.5 c 0
 339.5 110.5 356 65 405 65 c 1
 448.5 65 503 128.5 506.5 132 c 1
 512.5 132 519.5 114 520 107 c 1
 495.5 70.5 407.5 -6 350.5 -6 c 1x7c
 307.038 -6 265.224 19.0869 248.858 63.5019 c 1
 232.702 47.0429 134.968 -8 106.5 -8 c 1
 52.5 -8 14 36.5 19.5 97 c 0
 23.5 139.5 55.5 175 79.5 187 c 0
 105 198 197.5 225 249 241.5 c 0
 255.066 243.316 255.219 249.018 257 260 c 2
 264 314 l 2
 265.256 322.182 265.413 330.892 265.413 337 c 1
 265.413 369 251.855 404 221 404 c 0
 189.5 404 174.5 374 159 333 c 0
 148.413 305.534 131.5 288.5 105.5 288.5 c 0
 83.5 288.5 72.5 308.5 75 327 c 0
 76.5 340 83.5 353 91 364 c 1
 112.5 383 197.5 442 268.5 442 c 1
EndSplineSet
Validated: 524321
EndChar

StartChar: eth
Encoding: 240 240 173
Width: 431
VWidth: 0
Flags: W
HStem: -7 40<137.718 212.695> 403.5 40<195.542 280.145> 669 22.5<145.888 158.885>
LayerCount: 2
Fore
SplineSet
159.276 509 m 17
 155.276 516 145.276 536 150.276 541 c 9
 400.276 705 l 17
 404.276 699 415.276 679 410.276 674 c 9
 159.276 509 l 17
139.276 669 m 1
 140.276 676 147.776 691.5 154.776 691.5 c 1
 294.776 652.5 438.776 502.5 390.776 256.5 c 0
 361.776 108.5 250.276 -7 160.276 -7 c 0
 38.2759 -7 1.77588 100.5 22.7759 210.5 c 0
 43.7759 318.5 147.776 443.5 253.776 443.5 c 0
 279.276 443.5 299.776 435.5 308.276 426.5 c 1
 309.276 497.5 284.276 593 139.276 669 c 1
285.276 217 m 0
 296.276 272 300.276 335 296.276 350.5 c 0
 286.932 385.937 265.776 403.5 239.276 403.5 c 0
 179.276 403.5 141.776 310 124.776 217 c 0
 106.9 118.796 123.276 33 167.776 33 c 0
 226.776 33 266.276 119 285.276 217 c 0
EndSplineSet
Validated: 524325
EndChar

StartChar: divide
Encoding: 247 247 180
Width: 494
VWidth: 0
Flags: W
HStem: 2 106<187.477 256.101> 223.5 49<43.1617 473.12> 387.5 106<261.193 330.09>
VStem: 175 95.5<15.1567 95.5989> 248.716 96<401.608 481.099>
LayerCount: 2
Fore
SplineSet
45 223.5 m 2xe0
 42 223.5 40.5 227.5 40.5 232.5 c 0
 40.5 244.5 45.5 262 53 272.5 c 1
 472.5 272.5 l 2
 474.5 272.5 475.5 269.5 475.5 264.5 c 0
 475.5 251.5 471.5 234.5 463 223.5 c 1
 45 223.5 l 2xe0
303.716 493.5 m 1
 327.216 493.5 344.716 474 344.716 450 c 1
 344.716 418 319.716 387.5 287.716 387.5 c 1
 263.716 387.5 248.716 409 248.716 433.5 c 1xe8
 248.716 465 272.216 493.5 303.716 493.5 c 1
230 108 m 1
 253.5 108 270.5 88.5 270.5 64.5 c 1
 270.5 32.5 246 2 214 2 c 1
 190 2 175 23.5 175 48 c 1xf0
 175 79.5 198.5 108 230 108 c 1
EndSplineSet
Validated: 524289
EndChar

StartChar: oslash
Encoding: 248 248 181
Width: 415
Flags: W
HStem: -5.5 36<135.462 203.662> 406 36<200.932 271.925>
VStem: 14.5 101.5<50.7185 248.234> 288 101.5<186.394 387.924>
LayerCount: 2
Fore
SplineSet
72 -10 m 17
 67.7998 -7.97461 51.2998 -0.849609 53.9248 3.2002 c 9
 324.825 446.675 l 17
 329.025 445.325 346.05 438.2 343.425 434.15 c 9
 72 -10 l 17
EndSplineSet
Refer: 78 111 N 1 0 0 1 0 0 2
Validated: 524293
EndChar

StartChar: thorn
Encoding: 254 254 187
Width: 479
Flags: W
HStem: -227 30.5<-35.1778 5.30724> -218 28.5<131.448 177.83> -5 39.5<180.967 255.899> 372.5 69.5<297.206 396.143> 632.5 25<112.84 169.354> 671.5 20G<261.143 274.643>
VStem: 173.143 105<550.684 675.5> 355.143 101.5<210.033 364.696>
LayerCount: 2
Fore
SplineSet
265.143 597.5 m 2xbf
 262.143 579 219.643 367.5 218.143 359.5 c 1
 245.643 387.5 313.143 442 364.143 442 c 0
 428.143 442 456.643 391 456.643 321 c 0
 456.643 159.5 307.643 -5 185.643 -5 c 0
 174.143 -5 156.643 -3 149.143 4 c 1
 119.644 -135.5 l 2
 117.644 -144.5 116.644 -153.5 116.644 -163.5 c 0
 116.644 -168.5 120.644 -183.5 130.644 -186.5 c 0
 147.643 -190.5 174.643 -189.5 177.643 -189.5 c 0
 181.643 -190.5 179.143 -217 174.143 -219 c 1
 161.143 -219 150.143 -218 139.144 -218 c 0x7f
 88.1436 -218 24.6436 -220 -33.3564 -227 c 1
 -38.3564 -226 -36.8564 -199.5 -31.8564 -196.5 c 1
 -13.8564 -196.5 -0.856451 -191.5 8.14355 -180.5 c 0
 15.1436 -171.5 19.1436 -160.5 24.1436 -137.5 c 2
 101.144 241 l 1
 53.1436 193 l 1
 49.1435 198 46.6435 210.5 46.6435 216.5 c 0
 46.6435 224 52.1435 231 55.6435 234 c 2
 110.644 289.5 l 1
 164.143 560.5 l 2
 167.643 578.5 173.143 602.5 173.143 613.5 c 0
 173.143 632.5 128.143 632.5 112.144 632.5 c 1
 109.144 636.5 112.144 653.5 116.144 657.5 c 1
 171.143 662.5 250.143 683.5 272.143 691.5 c 1
 277.143 688.5 278.143 678.5 278.143 672.5 c 0
 278.143 664.5 270.143 622 265.143 597.5 c 2xbf
309.143 372.5 m 0
 277.643 372.5 233.643 341.5 209.143 311.5 c 1
 206.643 298 175.143 140 175.143 140 c 2
 162.143 72 182.143 34.5 210.143 34.5 c 0
 288.143 34.5 355.143 199.5 355.143 301 c 0
 355.143 345 341.143 372.5 309.143 372.5 c 0
EndSplineSet
Validated: 524321
EndChar

StartChar: dagger
Encoding: 8224 8224 190
Width: 368
Flags: W
HStem: 434.5 86<133.274 187.725 368.869 420.41> 464 23<192.958 248.716 299.701 363.696> 642 20G<299 319.5>
VStem: 175.5 14.5<-14.7344 21.6058>
LayerCount: 2
Fore
SplineSet
236 487 m 8x70
 249.5 487 255.5 492 267.5 505 c 1
 273.5 538 278 606 264 625 c 1
 268 646 288.5 662 309.5 662 c 0
 329.5 662 349 646 345 625 c 1
 324 606 301.5 538 295.5 505 c 1
 302.5 492 308.5 487 320.5 487 c 0x70
 351.5 487 381 501.5 402 520.5 c 1
 422 520.5 431 498.5 429 478.5 c 0
 427 457.311 406 434.5 386 434.5 c 1xb0
 372 453.5 346 463.5 316 464 c 24
 300.5 464 285.5 448 283.5 436 c 1
 286.5 419 293 394 299 365 c 1
 252 227 241 178 190 -3 c 1
 186.5 -9.5 184.5 -15 180.5 -16 c 1
 177 -15 177 -7.5 175.5 -3 c 1
 195 178 203 227 209 365 c 1
 224 390 242 419 252 436 c 1
 254 448 245.5 464 231.5 464 c 24x70
 199 463.5 171 453.5 150 434.5 c 1
 130 434.5 121 452.5 123 473.5 c 0
 125 494.689 147 520.5 167 520.5 c 1xb0
 181 501.5 205 487 236 487 c 8x70
EndSplineSet
Validated: 524321
EndChar

StartChar: daggerdbl
Encoding: 8225 8225 191
Width: 385
Flags: W
HStem: 125.5 86<80.414 131.631 312.65 367.827> 159 23<136.804 200.849 251.545 308.744> 434.5 86<141.309 196.35 377.154 429.086> 464 23<200.256 257.17 307.701 371.934> 642 20G<310 330.5>
LayerCount: 2
Fore
SplineSet
291 281 m 1x18
 274 252 258 227 248 210 c 1
 246 198 255 182 269.5 182 c 24x58
 301 182.5 329.5 192.5 350.5 211.5 c 1
 370.5 211.5 382 191 378 170 c 0
 374 149 353.5 125.5 333.5 125.5 c 1x88
 319.5 144.5 296 159 265 159 c 0
 253 159 245 154 233 141 c 1
 227 108 221.5 40 235.5 21 c 1
 231.5 0 209 -16 189 -16 c 0
 168 -16 151 0 155 21 c 1
 176 40 199 108 205 141 c 1
 198 154 192.5 159 180 159 c 16x48
 149 159 119.5 144.5 98.5 125.5 c 1
 78.5 125.5 68 149 72 170 c 0
 76 191 95.5 211.5 115.5 211.5 c 1x88
 129.5 192.5 153.5 182.5 184.5 182 c 24
 199 182 214.5 198 216.5 210 c 1
 213.5 227 205.5 256 200.5 281 c 1
 215.5 295.5 227.5 311.5 236 323.5 c 1
 232.5 335.5 225.5 349.5 217 365 c 1
 232 390 250.5 419 260.5 436 c 1
 262.5 448 254 464 239.5 464 c 24x58
 208 463.5 179.5 453.5 158.5 434.5 c 1
 138.5 434.5 127.5 455 131.5 476 c 0
 135.5 497 155 520.5 175 520.5 c 1x28
 189 501.5 213 487 244 487 c 8
 256.5 487 263.5 492 275.5 505 c 1
 281.5 538 286.5 606 272.5 625 c 1
 276.5 646 299.5 662 320.5 662 c 0
 340.5 662 357 646 353 625 c 1
 332 606 309.5 538 303.5 505 c 1
 310.5 492 316.5 487 328.5 487 c 0x18
 359.5 487 389.5 501.5 410.5 520.5 c 1
 430.5 520.5 441.5 497 437.5 476 c 0
 433.5 455 414 434.5 394 434.5 c 1x28
 380 453.5 355.5 463.5 324.5 464 c 24
 310 464 293.5 448 291.5 436 c 1
 294.5 419 301 394 307 365 c 1
 293 350.5 280 335 272 323.5 c 1
 274.5 313 280 297 291 281 c 1x18
EndSplineSet
Validated: 524321
EndChar

StartChar: bullet
Encoding: 8226 8226 192
Width: 331
Flags: W
HStem: 139 248.5<146.039 234.464>
VStem: 75.0098 230
LayerCount: 2
Fore
SplineSet
75.0098 263 m 0
 88.0098 331 151.01 387.5 214.51 387.5 c 0
 278.01 387.5 318.01 331 305.01 263 c 0
 292.01 195 229.51 139 166.01 139 c 0
 102.51 139 62.0098 195 75.0098 263 c 0
EndSplineSet
Validated: 524321
EndChar

StartChar: uni2010
Encoding: 8208 8208 193
Width: 289
VWidth: 512
Flags: W
VStem: 65 255.5<207.969 264>
LayerCount: 2
Fore
SplineSet
87.5 264 m 2
 314.5 276 l 2
 319.5 276 320.5 269 320.5 264 c 0
 320.5 251 306 208 296 207 c 10
 70 196 l 2
 67 196 65 203 65 211 c 0
 65 222 76.5 263 87.5 264 c 2
EndSplineSet
Validated: 524289
EndChar

StartChar: uni2011
Encoding: 8209 8209 194
Width: 289
VWidth: 512
Flags: W
VStem: 65 255.5<207.969 264>
LayerCount: 2
Fore
SplineSet
87.5 264 m 2
 314.5 276 l 2
 319.5 276 320.5 269 320.5 264 c 0
 320.5 251 306 208 296 207 c 10
 70 196 l 2
 67 196 65 203 65 211 c 0
 65 222 76.5 263 87.5 264 c 2
EndSplineSet
Validated: 524289
EndChar

StartChar: figuredash
Encoding: 8210 8210 195
Width: 451
Flags: W
HStem: 197 68<70.8125 461.688>
LayerCount: 2
Fore
SplineSet
463 265 m 2
 468.5 265 469.5 257 469.5 250.5 c 0
 469.5 232.5 456 203 447.5 197 c 1
 69.5 197 l 2
 64 197 63 205 63 211.5 c 0
 63 229.5 76.5 259 85 265 c 1
 463 265 l 2
EndSplineSet
Validated: 524289
EndChar

StartChar: endash
Encoding: 8211 8211 196
Width: 510
Flags: W
HStem: 197 68<63.8125 477.688>
LayerCount: 2
Fore
SplineSet
479 265 m 2
 484.5 265 485.5 257 485.5 250.5 c 0
 485.5 232.5 472 203 463.5 197 c 1
 62.5 197 l 2
 57 197 56 205 56 211.5 c 0
 56 229.5 69.5 259 78 265 c 1
 479 265 l 2
EndSplineSet
Validated: 524289
EndChar

StartChar: emdash
Encoding: 8212 8212 197
Width: 809
Flags: W
HStem: 197 68<63.8125 772.188>
LayerCount: 2
Fore
SplineSet
773.5 265 m 2
 779 265 780 257 780 250.5 c 0
 780 232.5 766.5 203 758 197 c 1
 62.5 197 l 2
 57 197 56 205 56 211.5 c 0
 56 229.5 69.5 259 78 265 c 1
 773.5 265 l 2
EndSplineSet
Validated: 524289
EndChar

StartChar: afii00208
Encoding: 8213 8213 198
Width: 1004
Flags: W
HStem: 197 68<70.8125 1006.19>
LayerCount: 2
Fore
SplineSet
1007.5 265 m 2
 1013 265 1014 257 1014 250.5 c 0
 1014 232.5 1000.5 203 992 197 c 1
 69.5 197 l 2
 64 197 63 205 63 211.5 c 0
 63 229.5 76.5 259 85 265 c 1
 1007.5 265 l 2
EndSplineSet
Validated: 524289
EndChar

StartChar: quoteleft
Encoding: 8216 8216 199
Width: 162
Flags: W
HStem: 478 228
VStem: 111.317 94.5<493.042 572.187>
LayerCount: 2
Fore
SplineSet
110.317 555 m 0
 128.317 649 234.317 706 242.317 706 c 0
 249.317 706 261.817 695 263.817 684 c 1
 200.817 648 182.817 602.5 180.817 593.5 c 0
 175.817 567.5 210.817 549.5 205.817 521.5 c 0
 200.817 497.5 166.317 478 136.317 478 c 0
 129.317 478 117.817 480.5 111.317 485 c 1
 105.317 498 104.817 527.5 110.317 555 c 0
EndSplineSet
Validated: 524321
EndChar

StartChar: quoteright
Encoding: 8217 8217 200
Width: 170
Flags: W
HStem: 479 228
VStem: 151.5 94<612.813 691.958>
LayerCount: 2
Fore
SplineSet
245.5 630 m 0
 227.5 536 122.5 479 114.5 479 c 0
 107.5 479 94.5 490 92.5 501 c 1
 155.5 537 174 582.5 176 591.5 c 0
 181 617.5 146.5 635.5 151.5 663.5 c 0
 156.5 687.5 190.5 707 220.5 707 c 0
 227.5 707 239 704.5 245.5 700 c 1
 251.5 687 251 657.5 245.5 630 c 0
EndSplineSet
Validated: 524321
EndChar

StartChar: quotesinglbase
Encoding: 8218 8218 201
Width: 168
Flags: W
HStem: -102.5 227.5
VStem: 27.5 94.5<30.8191 109.958>
LayerCount: 2
Fore
SplineSet
122.5 48 m 0
 104.5 -46 -1 -102.5 -9 -102.5 c 0
 -16 -102.5 -28.5 -92 -30.5 -81 c 1
 32.5 -45 50.5 0.5 52.5 9.5 c 0
 57.5 35.5 22.5 53.5 27.5 81.5 c 0
 32.5 105.5 67 125 97 125 c 0
 104 125 115.5 122.5 122 118 c 1
 128 105 128 75.5 122.5 48 c 0
EndSplineSet
Validated: 524321
EndChar

StartChar: quotedblleft
Encoding: 8220 8220 202
Width: 308
Flags: W
HStem: 478 228
VStem: 111.317 94.5<493.042 572.187> 246.317 95<493.042 572.187>
LayerCount: 2
Fore
SplineSet
246.317 555 m 0
 264.317 649 369.817 706 377.817 706 c 0
 384.817 706 397.317 695 399.317 684 c 1
 336.317 648 318.317 602.5 316.317 593.5 c 0
 311.317 567.5 346.317 549.5 341.317 521.5 c 0
 336.317 497.5 302.317 478 272.317 478 c 0
 265.317 478 252.817 480.5 246.317 485 c 1
 240.317 498 240.817 527.5 246.317 555 c 0
110.317 555 m 0
 128.317 649 234.317 706 242.317 706 c 0
 249.317 706 261.817 695 263.817 684 c 1
 200.817 648 182.817 602.5 180.817 593.5 c 0
 175.817 567.5 210.817 549.5 205.817 521.5 c 0
 200.817 497.5 166.317 478 136.317 478 c 0
 129.317 478 117.817 480.5 111.317 485 c 1
 105.317 498 104.817 527.5 110.317 555 c 0
EndSplineSet
Validated: 524321
EndChar

StartChar: quotedblright
Encoding: 8221 8221 203
Width: 314
Flags: W
HStem: 479 228
LayerCount: 2
Fore
SplineSet
316 630 m 0
 298 536 192 479 184 479 c 0
 177 479 165 490 163 501 c 1
 226 537 243.5 582.5 245.5 591.5 c 4
 250.5 617.5 216 635.5 221 663.5 c 4
 226 687.5 260 707 290 707 c 0
 297 707 308.5 704.5 315 700 c 1
 321 687 321.5 657.5 316 630 c 0
317.5 630 m 0
 299.5 536 194.5 479 186.5 479 c 0
 179.5 479 166.5 490 164.5 501 c 1
 227.5 537 246 582.5 248 591.5 c 0
 253 617.5 218.5 635.5 223.5 663.5 c 0
 228.5 687.5 262.5 707 292.5 707 c 0
 299.5 707 311 704.5 317.5 700 c 1
 323.5 687 323 657.5 317.5 630 c 0
EndSplineSet
Validated: 524325
EndChar

StartChar: quotedblbase
Encoding: 8222 8222 204
Width: 309
Flags: W
HStem: -103.5 227.5
LayerCount: 2
Fore
SplineSet
192.5 47 m 0
 174.5 -47 69 -103.5 61 -103.5 c 0
 54 -103.5 41.5 -93 39.5 -82 c 1
 102.5 -46 120.5 -0.5 122.5 8.5 c 0
 127.5 34.5 93 52.5 98 80.5 c 0
 103 104.5 137 124 167 124 c 0
 174 124 186 121.5 192.5 117 c 1
 198.5 104 198 74.5 192.5 47 c 0
195 48 m 0
 177 -46 71.5 -102.5 63.5 -102.5 c 0
 56.5 -102.5 44 -92 42 -81 c 1
 105 -45 123 0.5 125 9.5 c 0
 130 35.5 95 53.5 100 81.5 c 0
 105 105.5 139.5 125 169.5 125 c 0
 176.5 125 188 122.5 194.5 118 c 1
 200.5 105 200.5 75.5 195 48 c 0
EndSplineSet
Validated: 524325
EndChar

StartChar: onedotenleader
Encoding: 8228 8228 205
Width: 651
Flags: W
HStem: -12.5 127<296.873 367.688>
VStem: 274.5 117<11.6392 92.2515>
LayerCount: 2
Fore
SplineSet
274.5 46 m 0
 278 83 310.5 114.5 344.5 114.5 c 1
 374.5 114.5 395 90 391.5 58.5 c 0
 388 21.5 355 -12.5 321 -12.5 c 1
 290 -12.5 271 14.5 274.5 46 c 0
EndSplineSet
Validated: 524321
EndChar

StartChar: ellipsis
Encoding: 8230 8230 206
Width: 685
Flags: W
HStem: -12.5 127<51.8726 122.688 296.373 367.188 540.111 610.736>
VStem: 29.5 117<11.6392 92.2515> 274 117<11.6392 92.2515> 517.5 117.5<11.6392 91.9263>
LayerCount: 2
Fore
SplineSet
517.5 46 m 0
 521 83.5 554 114.5 588 114.5 c 1
 618 114.5 638.5 90 635 58.5 c 0
 631.5 21.5 598 -12.5 564 -12.5 c 1
 533 -12.5 514 14.5 517.5 46 c 0
274 46 m 0
 277.5 83 310 114.5 344 114.5 c 1
 374 114.5 394.5 90 391 58.5 c 0
 387.5 21.5 354.5 -12.5 320.5 -12.5 c 1
 289.5 -12.5 270.5 14.5 274 46 c 0
29.5 46 m 0
 33 83 65.5 114.5 99.5 114.5 c 1
 129.5 114.5 150 90 146.5 58.5 c 0
 143 21.5 110 -12.5 76 -12.5 c 1
 45 -12.5 26 14.5 29.5 46 c 0
EndSplineSet
Validated: 524321
EndChar

StartChar: perthousand
Encoding: 8240 8240 207
Width: 972
VWidth: 512
Flags: W
HStem: -4.5 29<438.369 498.659 757.869 818.159> 285.5 28<475.057 534.808 794.557 854.308> 339.5 29<187.411 247.702> 629.5 28<224.099 283.85>
VStem: 89.5885 76.9115<384.306 543.959> 303.542 77.877<452.332 614.846> 340.547 76.911<40.3055 199.959> 554.5 77.878<108.332 270.846> 660.047 76.9111<40.3055 199.959> 874 77.8779<108.332 270.846>
LayerCount: 2
Fore
SplineSet
829.932 285.5 m 1xf9c0
 771.307 285.5 734.406 184.5 736.958 109 c 1
 737.518 75.5 749.451 24.5 784.928 24.5 c 1
 843.553 24.5 876.378 129 874 202.5 c 1
 873.231 237 862.49 285.5 829.932 285.5 c 1xf9c0
837.716 313.5 m 1
 906.053 313.5 949.115 271 951.878 197.5 c 1
 955.199 102 866.41 -4.5 774.01 -4.5 c 1
 706.172 -4.5 662.284 44 660.047 110 c 1
 656.724 206.5 743.316 313.5 837.716 313.5 c 1
510.432 285.5 m 1
 451.807 285.5 414.906 184.5 417.458 109 c 1xfbc0
 418.018 75.5 429.951 24.5 465.428 24.5 c 1
 524.053 24.5 556.878 129 554.5 202.5 c 1
 553.731 237 542.99 285.5 510.432 285.5 c 1
518.216 313.5 m 1
 586.553 313.5 629.615 271 632.378 197.5 c 1
 635.699 102 546.91 -4.5 454.51 -4.5 c 1
 386.672 -4.5 342.784 44 340.547 110 c 1
 337.224 206.5 423.816 313.5 518.216 313.5 c 1
259.474 629.5 m 1
 200.849 629.5 163.948 528.5 166.5 453 c 1
 167.06 419.5 178.993 368.5 214.47 368.5 c 1
 273.096 368.5 305.92 473 303.542 546.5 c 1xfdc0
 302.773 581 292.031 629.5 259.474 629.5 c 1
267.258 657.5 m 1
 335.596 657.5 378.658 615 381.419 541.5 c 1
 384.741 446 295.952 339.5 203.552 339.5 c 1
 135.715 339.5 91.826 388 89.5885 454 c 1
 86.2665 550.5 172.858 657.5 267.258 657.5 c 1
635.636 634 m 1
 114.636 -7 l 1
 112.636 -9 87.6365 -9 80.6365 -3.5 c 1
 77.1365 -2.5 74.6365 0 74.1365 5 c 9
 595.636 647.5 l 1
 597.636 649.5 617.636 648.5 622.636 643 c 1
 628.636 642 634.136 639.5 635.636 634 c 1
EndSplineSet
Validated: 524321
EndChar

StartChar: minute
Encoding: 8242 8242 208
Width: 140
Flags: W
HStem: 489 210
VStem: 117.577 77.5<618.553 688.247>
LayerCount: 2
Fore
SplineSet
167.577 699 m 0
 181.077 699 197.077 691.5 195.077 674.5 c 0
 190.577 631 123.577 534.5 95.0766 498 c 0
 90.5766 492.5 85.5766 489 81.5767 489 c 0
 75.5767 489 72.0767 494 73.0767 501 c 0
 74.0767 504 99.5766 612 117.577 666 c 0
 121.577 678 149.577 699 167.577 699 c 0
EndSplineSet
Validated: 524321
EndChar

StartChar: second
Encoding: 8243 8243 209
Width: 267
Flags: W
HStem: 489 210
VStem: 117.577 77.5<618.553 688.247> 241.077 76.5<617.859 688.745>
LayerCount: 2
Fore
SplineSet
290.577 699 m 0
 304.077 699 319.577 691.5 317.577 674.5 c 0
 313.077 631 248.077 536 218.577 498 c 0
 214.077 492.5 209.077 489 205.077 489 c 0
 199.077 489 194.577 494 195.577 501 c 0
 196.577 504 223.077 612 241.077 666 c 0
 245.077 678 272.577 699 290.577 699 c 0
167.577 699 m 0
 181.077 699 197.077 691.5 195.077 674.5 c 0
 190.577 631 123.577 534.5 95.0766 498 c 0
 90.5766 492.5 85.5766 489 81.5767 489 c 0
 75.5767 489 72.0767 494 73.0767 501 c 0
 74.0767 504 99.5766 612 117.577 666 c 0
 121.577 678 149.577 699 167.577 699 c 0
EndSplineSet
Validated: 524321
EndChar

StartChar: uni2038
Encoding: 8248 8248 210
Width: 365
Flags: W
HStem: -48.5 160
VStem: 70 225.5
LayerCount: 2
Fore
SplineSet
280.5 -48.5 m 0
 268.5 -48.5 221.5 -3 194.5 37.5 c 1
 155 -3.5 87 -48.5 75 -48.5 c 0
 69 -48.5 70 -32.5 70 -30 c 1
 73.5 -17 139.5 16.5 195.5 101.5 c 1
 199.5 109 199.5 111.5 205.5 111.5 c 0
 224.5 111.5 213.5 95.5 247 37 c 0
 259.5 15 294.5 -23.5 295.5 -27 c 1
 294.5 -30.5 287 -48.5 280.5 -48.5 c 0
EndSplineSet
Validated: 524289
EndChar

StartChar: guilsinglleft
Encoding: 8249 8249 211
Width: 317
VWidth: 512
Flags: W
VStem: 66 257
LayerCount: 2
Fore
SplineSet
260.5 91.5 m 1
 255 82 242 75 236 73 c 1
 219 94.5 155.5 168 72.5 230.5 c 1
 68 234.5 65.5 239.5 66 245 c 0
 66.5 253 72.5 260.5 78 264.5 c 1
 202 335.5 265.5 393.5 303.5 423 c 1
 308 422 321 415.5 323 406 c 1
 318 397 182 266.5 161.5 248.5 c 1
 175 230.5 259 98.5 260.5 91.5 c 1
EndSplineSet
Validated: 524289
EndChar

StartChar: guilsinglright
Encoding: 8250 8250 212
Width: 380
VWidth: 512
Flags: W
VStem: 120 257
LayerCount: 2
Fore
SplineSet
182.5 404.5 m 1
 188 414 201 421 207 423 c 1
 224 401.5 287.5 328 370.5 265.5 c 1
 375 261.5 377.5 256.5 377 251 c 0
 376.5 243 370.5 235.5 365 231.5 c 1
 241 160.5 177.5 102.5 139.5 73 c 1
 135 74 122 80.5 120 90 c 1
 125 99 261 229.5 281.5 247.5 c 1
 268 265.5 184 397.5 182.5 404.5 c 1
EndSplineSet
Validated: 524289
EndChar

StartChar: uni203E
Encoding: 8254 8254 213
Width: 596
Flags: W
HStem: 736 68<109.812 638.688>
LayerCount: 2
Fore
SplineSet
640 804 m 2
 645.5 804 646.5 796 646.5 789.5 c 0
 646.5 771.5 633 742 624.5 736 c 1
 108.5 736 l 2
 103 736 102 744 102 750.5 c 0
 102 768.5 115.5 798 124 804 c 1
 640 804 l 2
EndSplineSet
Validated: 524289
EndChar

StartChar: Euro
Encoding: 8364 8364 214
Width: 613
Flags: W
HStem: -7.5 39.1172<287.265 437.78> 246 41<21.1169 370.52> 345.5 41<36.3311 385.679> 611.833 38.141<353.139 501.726>
VStem: 69.2749 117.317<157.768 340.436> 570.115 32.252<470.891 537.554>
LayerCount: 2
Fore
SplineSet
430.279 611.833 m 0
 301.039 611.833 186.31 476.068 186.592 267.89 c 0
 186.747 165.307 235.198 31.6172 356.409 31.6172 c 0
 407.391 31.6172 446.732 51.3677 477.192 77.6875 c 0
 515.431 110.31 544.192 165.9 552.518 184.062 c 1
 565.284 184.062 577.438 177.758 580.438 174.258 c 1
 577.664 159.249 528.154 42.8232 514.5 33.1172 c 1
 462.546 4.30371 409.852 -7.5 330.61 -7.5 c 0
 171.842 -7.5 69.2749 126.435 69.2749 263.806 c 0
 69.2749 508.627 272.611 651.876 442.5 649.974 c 0
 497.438 649.442 565.066 634.817 613.302 623.112 c 1
 612.416 600.495 604.254 501.956 602.367 481.691 c 0
 601.658 475.336 593.318 470.888 586.487 470.888 c 1
 582.212 470.888 573.833 470.888 570.115 476.691 c 1
 571.333 534.23 524.678 611.833 430.279 611.833 c 0
37.8184 345.5 m 2
 34.5 345.5 33.8184 349.5 33.8184 353.5 c 0
 33.8184 360.5 39.8184 380.5 46.8184 386.5 c 1
 384.659 386.5 l 2
 386.659 386.5 387.659 382.5 387.659 378.5 c 0
 387.659 373.5 384.659 354.5 375.659 345.5 c 1
 37.8184 345.5 l 2
22.6592 246 m 2
 19.5 246 18.6592 250 18.6592 254 c 0
 18.6592 261 24.6592 281 31.6592 287 c 1
 369.5 287 l 2
 371.5 287 372.5 283 372.5 279 c 0
 372.5 274 369.5 255 360.5 246 c 1
 22.6592 246 l 2
EndSplineSet
Validated: 524325
EndChar

StartChar: arrowleft
Encoding: 8592 8592 215
Width: 694
Flags: W
HStem: 213 68<142 663.745>
LayerCount: 2
Fore
SplineSet
192.5 327 m 2
 142 281 l 1
 666.5 281 l 2
 671.5 281 673 276.5 673 268 c 0
 673 256 661 221 649 213 c 1
 129.5 213 l 1
 129.5 213 153 178 161.5 167 c 1
 198.5 116 210 106.5 210 96.5 c 0
 210 84.5 184.5 75 179 73 c 1
 178 75 130.5 132 12.5 227 c 0
 9.5 228.5 8.5 234 8.5 237.5 c 0
 8.5 245.5 12.5 259 21.5 268 c 1
 158.5 347 245 420.5 248 423 c 1
 256.5 420.5 272 412 271 401.5 c 1
 271 394.5 267 395.5 192.5 327 c 2
EndSplineSet
Validated: 524289
EndChar

StartChar: arrowup
Encoding: 8593 8593 216
Width: 324
Flags: W
VStem: 7.5 325.5
LayerCount: 2
Fore
SplineSet
154.5 566.5 m 1
 102.5 519.5 l 1
 39.5 462.5 28.5 452 21.5 452 c 0
 10 452 8.5 476 7.5 481.5 c 1
 9.5 482.5 74 540.5 191 687.5 c 0
 194 692.5 199 694 205 694 c 0
 214 694 222.5 693 228.5 686 c 1
 276.5 555 331 483 333 480 c 1
 329 470 316 451.5 306.5 451.5 c 0
 297 451.5 293 463 249.5 522.5 c 2
 217.5 565.5 l 1
 102 -25.5 l 2
 101 -28.5 98 -32 89 -32 c 0
 73 -32 42 -21.5 39 -17.5 c 1
 154.5 566.5 l 1
EndSplineSet
Validated: 524289
EndChar

StartChar: arrowright
Encoding: 8594 8594 217
Width: 690
Flags: W
HStem: 213 69<20.7549 543>
LayerCount: 2
Fore
SplineSet
543 213 m 1
 18 213 l 2
 13 213 11.5 217.5 11.5 226 c 0
 11.5 238 23.5 274 35.5 282 c 1
 557.5 282 l 1
 523.5 329 l 1
 480 386 474 388.5 475 401 c 1
 477.5 413.5 501 421 506.5 423 c 1
 509 420 555 355 667 268 c 1
 671 263 671 257 670 250 c 0
 669.5 244 666.5 232.5 659.5 227 c 1
 513.5 140 439 74.5 438 73 c 1
 429.5 75.5 413.5 84 415.5 94.5 c 1
 416.5 103 430 112.5 495.5 170.5 c 1
 543 213 l 1
EndSplineSet
Validated: 524321
EndChar

StartChar: arrowdown
Encoding: 8595 8595 218
Width: 327
Flags: W
VStem: -5 325
LayerCount: 2
Fore
SplineSet
110 109.5 m 1
 226 701 l 2
 227 704.5 230 707 239 707 c 0
 254.5 707 284.5 696.5 288.5 692.5 c 1
 173.5 108.5 l 1
 225.5 155.5 l 1
 288 212.5 296 223 306.5 223 c 0
 318 223 319 199 320 193.5 c 1
 318 192.5 253.5 134.5 136.5 -12.5 c 0
 133.5 -17.5 128.5 -19 122.5 -19 c 0
 113.5 -19 105 -17.5 99 -10.5 c 1
 51 120.5 -3 192 -5 195 c 1
 -1 205 11.5 223.5 21 223.5 c 0
 30 223.5 34 212.5 78.5 151.5 c 1
 110 109.5 l 1
EndSplineSet
Validated: 524289
EndChar

StartChar: summation
Encoding: 8721 8721 219
Width: 568
Flags: W
HStem: 176.5 133<176.5 253.938> 308 54<197.157 413.315>
VStem: 298 21.5<362.321 404.335>
LayerCount: 2
Fore
SplineSet
433 308 m 1x60
 382.5 308 250 309.5 194.5 309.5 c 0
 147 309.5 108.5 306 107 302 c 1
 106.5 303 169.5 182.5 170.5 186.5 c 1
 172.5 184.5 173 183 170 179 c 0
 156.5 161 66 70 71.5 61 c 1
 71.5 58 184.5 176.5 214 176.5 c 1xa0
 232.5 179 251 183 265.5 185 c 0
 279 195 294 270.5 283 329 c 0
 288.5 342.5 291 368 298 394.5 c 0
 298 396.5 300.5 401 304.5 404.5 c 0
 309.5 408 317.5 410.5 319.5 410 c 1
 305.5 383 308.5 348 332 326 c 1
 324.5 326 318 332 326 332 c 1
 293.5 307 270 276.5 270 254 c 1
 268 253 262 253.5 258.5 255.5 c 0
 255 259.5 255 269.5 256 272 c 0
 254 297 247.5 329.5 222.5 335.5 c 1
 212.5 335.5 329 462.5 316 462.5 c 1
 300.5 464 287 463 284.5 461 c 1
 280.5 471 300.5 425 274.5 476 c 1
 270.5 481.5 259.5 487 253.5 484 c 0
 251.5 481.5 250 490.5 253 493.5 c 1
 203.5 442.5 157 370 186.5 363.5 c 0
 229 360 304 362 386 362 c 1
 401.5 354 402.5 346 415 338.5 c 0
 439 323.5 469 311.5 484 304 c 1
 492.5 307.5 505.5 324 514.5 346.5 c 0
 512 348.5 512 350.5 515.5 353 c 0
 518.5 381.5 515.5 387.5 512.5 388.5 c 1
 491.5 365.5 457 330 433 308 c 1x60
EndSplineSet
Validated: 524325
EndChar

StartChar: minus
Encoding: 8722 8722 220
Width: 538
Flags: W
HStem: 213.5 65<47.2048 472.062>
LayerCount: 2
Fore
SplineSet
36.7041 223.5 m 1
 36.7041 223.5 51.7041 278.5 60.7041 278.5 c 2
 485.704 278.5 l 2
 488.704 278.5 491.204 278.5 490.704 272.5 c 0
 489.704 266.5 480.204 237 472.204 219.5 c 0
 469.204 213.5 464.704 213.5 464.704 213.5 c 1
 40.7041 213.5 l 1
 40.7041 213.5 34.7041 213.5 36.7041 223.5 c 1
EndSplineSet
Validated: 524289
EndChar

StartChar: uni2213
Encoding: 8723 8723 221
Width: 501
Flags: W
HStem: 266 3.5<109.627 319.211> 405.5 28.5<54.071 140.5 177 268.875>
VStem: 48 331
LayerCount: 2
Fore
SplineSet
379 394.5 m 1
 379 394.5 364 302.5 364 299 c 1
 364 298.5 356 292.5 334 288.5 c 0
 324.5 264.5 322 267.5 319.5 266 c 1
 316.5 266 109 267.5 109.5 269.5 c 1
 109.5 269.5 124 365 126.5 372 c 1
 132.5 391 134 396 134.5 396 c 2
 134.5 396 379 395.5 379 394.5 c 1
377 404 m 1
 377 404 363 308.5 361 302.5 c 1
 353 278.5 348 268.5 325 264 c 1
 323.5 264 115 263.5 114 263.5 c 1
 110.5 263.5 108 265 111 274 c 1
 113.5 281 135 390.5 139.5 400.5 c 1
 141 404.5 143 405.5 140.5 405.5 c 1
 48 405.5 l 1
 48 405.5 46 405.5 46 408.5 c 1
 46 413 53 428.5 54 431 c 1
 55.5 434 58 434 58 434 c 1
 146.5 434 l 1
 148 434 149.5 435.5 149.5 436.5 c 1
 168 531.5 l 1
 168 531.5 168 534 171 535 c 1
 183 538.5 188.5 539 190.5 539 c 1
 195 539 195 536 195 536 c 1
 175.5 436 l 1
 175 434.5 175.5 434 177 434 c 1
 270 434 l 1
 271.5 434 273 434 273 432 c 1
 273 427.5 265 411 264 408.5 c 1
 262.5 405.5 260 405.5 260 405.5 c 1
 171.5 405.5 l 1
 170 405.5 377 405 377 404 c 1
EndSplineSet
Validated: 524325
EndChar

StartChar: radical
Encoding: 8730 8730 222
Width: 516
Flags: W
LayerCount: 2
Fore
SplineSet
-7.5 159 m 1
 -18.5 165.5 -25.5 177.5 -24.5 185 c 0
 -23 195.5 -7 204 1.5 209 c 0
 37.5 230.5 134.5 295.5 149.5 307.5 c 0
 158.5 314.5 173.5 315 174.5 307 c 1
 176.5 274.5 180.5 253 183.5 237.5 c 2
 234.5 8 l 1
 242.5 29.5 522 791 522 791 c 1
 565 787.5 l 1
 565 787.5 243 -89 219 -153 c 1
 202 -171 182.5 -176.5 176.5 -176.5 c 0
 172.5 -176.5 168.5 -175.5 168 -171.5 c 2
 82 208 l 1
 -7.5 159 l 1
EndSplineSet
Validated: 524289
EndChar

StartChar: proportional
Encoding: 8733 8733 223
Width: 621
Flags: W
HStem: 197.5 39.5<366.32 391.312> 299 19.5<325.367 329.903>
LayerCount: 2
Fore
SplineSet
391.5 237 m 1
 357 237 329 185 328 144 c 0
 326 105.5 334.5 73 357 69.5 c 1
 326.5 69.5 336.5 167 356 190 c 1
 356.5 190.5 356.5 190.5 356 191 c 1
 313.5 179 388.5 237 391.5 237 c 1
357 324 m 1
 351 287 372 257.5 396.5 255.5 c 0
 427 249 459 277 468.5 292.5 c 0
 440.5 293.5 382 319 326.5 299 c 0
 301 298.5 361 298 326 297.5 c 0
 317 268.5 395.5 226 392 226 c 0
 376 226 419 199.5 377.5 197.5 c 1
 291.5 197.5 333.5 266 293 266 c 1
 268 266 328 266 292.5 266 c 1
 236.5 234.5 262 196.5 180.5 196.5 c 0
 118 196.5 156.5 228 121 267 c 0
 96 330 211.5 387 232.5 387 c 0
 252.5 387 337.5 343 316.5 319 c 0
 292 318 354 317.5 319 318.5 c 0
 316 342 324.5 350.5 357 324 c 1
EndSplineSet
Validated: 524325
EndChar

StartChar: infinity
Encoding: 8734 8734 224
Width: 805
Flags: W
HStem: 41 65.5<126.526 235.238 520.733 626.909> 357 67<166.92 274.811 558.131 665.452>
LayerCount: 2
Fore
SplineSet
605.5 362 m 0
 548.5 362 474.5 277 445 246 c 0
 444 245 443.5 244.5 444.5 243.5 c 0
 468 199.5 506 106.5 570 106.5 c 0
 632 106.5 682.5 181.5 689 248.5 c 0
 696 313 659.5 362 605.5 362 c 0
226.5 357 m 0
 166 357 108.5 288 102 214 c 0
 95 150.5 131.5 103.5 183.5 103.5 c 0
 244.5 103.5 308.5 179.5 347 218 c 0
 348 219 348.5 219 347.5 220 c 0
 331 251.5 291.5 357 226.5 357 c 0
250 424 m 0
 340 424 390 341.5 419 293.5 c 0
 420 291.5 424 290.5 425 292.5 c 0
 474 345.5 553 424 643 424 c 0
 725 424 775 348 766 261.5 c 0
 755.5 144 646.5 41 538.5 41 c 0
 416.5 41 378.5 171 368.5 171 c 2
 367.5 171 l 1
 305.5 108 236 39 145 39 c 0
 63.5 39 17.5 116 26.5 202.5 c 0
 37 320 143 424 250 424 c 0
EndSplineSet
Validated: 524321
EndChar

StartChar: notequal
Encoding: 8800 8800 225
Width: 506
Flags: W
HStem: 96 17<200.756 267.351> 184 64<35.764 91.5 399 452.914> 319 11<252.107 281.744>
LayerCount: 2
Fore
SplineSet
186 288 m 1
 186 288 263.5 319 268 319 c 2
 269.5 319 387.5 319.5 387.5 317.5 c 1
 387.5 313 414 345 413 342.5 c 1
 411.5 339.5 412 341 414 341 c 1
 419.5 341 343.5 337 346.5 332.5 c 1
 348.5 330 319 284 319 284 c 1
 399 248 l 1
 401 248 466.5 249 466 245.5 c 1
 466 241 464 233.5 458.5 220.5 c 0
 456 213 449.5 198 444.5 187 c 1
 443 184 324.5 184 324.5 184 c 1
 210.5 132 l 1
 210.5 132 185.5 96 183.5 96 c 1
 182 96 273 98 268.5 106 c 1
 269 108 273 110.5 272.5 107 c 1
 271.5 102.5 295 127 290 116 c 1
 288.5 113 220.5 113 220.5 113 c 1
 220.5 113 104 113 104 116.5 c 1
 104 119.5 73 78 79.5 92 c 1
 79.5 94 80 93.5 78 93.5 c 1
 76.5 93.5 145.5 95.5 141 103.5 c 1
 139.5 105.5 170 150 170 150 c 1
 91.5 184 l 1
 91.5 184 24 184 25 189 c 1
 25.5 191 24.5 197.5 31 214.5 c 0
 33 219.5 39 233.5 44.5 245.5 c 1
 46 248.5 161 248 161 248 c 1
 272 293.5 l 1
 272 293.5 297 330 299 330 c 1
 301.5 330 206.5 328.5 211 321 c 1
 213 318.5 211.5 316 211.5 316 c 1
 211.5 316 185 283 186 288 c 1
EndSplineSet
Validated: 524325
EndChar

StartChar: lessequal
Encoding: 8804 8804 226
Width: 464
Flags: W
HStem: 5 61.5<-3.41075 366.152>
LayerCount: 2
Fore
SplineSet
10.5 66.5 m 1
 37 66.5 367 66.5 367 66.5 c 2
 371.5 66.5 373 59 373 53 c 3
 373 39 364 20 353.5 5 c 1
 -5 5 l 2
 -10 5 -11 12.5 -11 18.5 c 3
 -11 32.5 0 53.5 10.5 66.5 c 1
447.5 529 m 17
 451.5 524 460 501.5 460 482.5 c 27
 460 477.5 459 471.5 455 469.5 c 2
 121.5 309 l 1
 397 145.5 l 1
 397 127.5 380 86.5 374 86.5 c 0
 372.5 86.5 370 86.5 367.5 88 c 2
 52 274 l 2
 44 279 38 292 38 302 c 0
 38 327.5 57.5 342 69.5 348 c 1
 139.5 381 374 495 447.5 529 c 17
EndSplineSet
Validated: 524289
EndChar

StartChar: greaterequal
Encoding: 8805 8805 227
Width: 457
Flags: W
HStem: 5 61.5<9.01428 378.977>
LayerCount: 2
Fore
SplineSet
22.5 66.5 m 1
 49 66.5 379.5 66.5 379.5 66.5 c 2
 384 66.5 385.5 59 385.5 53 c 3
 385.5 39 377.5 20 365.5 5 c 1
 7.5 5 l 2
 2.5 5 1.5 12.5 1.5 18.5 c 3
 1.5 32.5 12.5 53.5 22.5 66.5 c 1
29 87 m 17
 24 93.5 16.5 121 16.5 136 c 1
 16.5 140.5 18 144.5 22 146.5 c 2
 358 308.5 l 1
 85 470.5 l 1
 85 492 101 529.5 107 529.5 c 0
 109 529.5 112 529.5 114.5 528 c 2
 428 344 l 2
 435.5 339.5 442.5 327 442.5 317.5 c 0
 442.5 303.5 428 278.5 410.5 270 c 1
 340.5 237 102.5 121 29 87 c 17
EndSplineSet
Validated: 524289
EndChar

StartChar: partialdiff
Encoding: 8706 8706 228
Width: 439
Flags: W
HStem: 323.5 178.5<159.75 285.5>
LayerCount: 2
Fore
SplineSet
211.5 323.5 m 0
 165.5 323.5 118 262.5 112 179 c 0
 100.5 100 117.5 45.5 171.5 45.5 c 0
 242 45.5 283.5 168.5 290.5 228.5 c 1
 298.5 296.5 258 323.5 211.5 323.5 c 0
312 536 m 1
 369.5 563.5 375 562 323 507 c 1
 306 390 232.5 289 130 276 c 1
 84 277.5 50.5 310 64.5 381 c 0
 75.5 437.5 154 502 245 502 c 0
 313 502 349 449 350.5 387.5 c 0
 352.5 323.5 327.5 182 219.5 184.5 c 0
 184 193 168 243 168 299 c 1
 168 361.5 202 446 267.5 454.5 c 0
 281 471 284 459.5 272 459.5 c 1
 259 459.5 283 526 312 536 c 1
EndSplineSet
Validated: 524325
EndChar

StartChar: gravecomb
Encoding: 768 768 229
Width: 228
Flags: W
HStem: 517.5 146
VStem: 158.5 173.5
LayerCount: 2
Fore
SplineSet
320 517.5 m 1
 306 517.5 158.5 593 158.5 628.5 c 0
 158.5 648.5 186.5 663.5 209.5 663.5 c 0
 220 663.5 227.5 661 231 657.5 c 0
 251.5 637.5 330.5 543 332 534 c 1
 331.5 527 325 519 320 517.5 c 1
EndSplineSet
Validated: 524289
EndChar

StartChar: acutecomb
Encoding: 769 769 230
Width: 222
Flags: W
HStem: 517.5 145.5
VStem: 154.5 175
LayerCount: 2
Fore
SplineSet
163.5 517.5 m 1
 160 519 155 525 154.5 531 c 1
 156 540 222.5 626.5 259 657 c 0
 263.5 660.5 272.5 663 283.5 663 c 0
 308 663 329.5 648.5 329.5 630 c 0
 329.5 593 174 517.5 163.5 517.5 c 1
EndSplineSet
Validated: 524289
EndChar

StartChar: uni0302
Encoding: 770 770 231
Width: 370
Flags: W
HStem: 598.836 150.664
VStem: 180.401 219.824
LayerCount: 2
Fore
SplineSet
400.225 618.358 m 1
 398.348 609.348 392.654 600.839 386.436 598.836 c 1
 373.001 603.341 323.224 641.883 297 665.909 c 1
 262.328 639.38 205.333 604.343 185.034 598.836 c 1
 179.548 602.34 179.462 617.357 180.401 621.862 c 1
 219.913 656.399 277.932 712.96 299.316 739.489 c 0
 304.116 745.042 308.85 749.5 312.605 749.5 c 0
 316.36 749.5 319.945 744.087 322.931 739.489 c 0
 338.39 715.463 377.257 650.392 400.225 618.358 c 1
EndSplineSet
Validated: 524289
EndChar

StartChar: tildecomb
Encoding: 771 771 232
Width: 372
Flags: W
HStem: 621.5 49.5<330.852 424.034> 664.5 49.5<201.724 299.128>
VStem: 163.098 5.5<621.549 624.411> 457.098 6.5<710.487 713.952>
LayerCount: 2
Fore
SplineSet
265.098 714 m 0x70
 289.098 714 309 705 326 696 c 0
 347 685 360.098 671 390.098 671 c 0xb0
 423.098 671 450.098 706 457.098 714 c 1x70
 460.098 713 464.598 710.5 463.598 702.5 c 0
 461.598 686.5 450.598 669.5 441.598 659.5 c 0
 414.598 631.5 389.598 621.5 361.598 621.5 c 0xb0
 337.598 621.5 319 631 301 641 c 0
 281 652 265.598 664.5 235.598 664.5 c 0x70
 202.598 664.5 175.598 629.5 168.598 621.5 c 1xb0
 165.598 622.5 162.098 626 163.098 634 c 0
 165.098 650 175.098 666 184.098 676 c 0
 211.098 704 237.098 714 265.098 714 c 0x70
EndSplineSet
Validated: 524289
EndChar

StartChar: dotlessi
Encoding: 305 305 233
Width: 268
VWidth: 512
Flags: W
HStem: -7 70.5<86 172.75> 371.5 70.5<84.25 168.25>
VStem: 51 99<27.7834 177.461> 107.5 98.5<257.539 406.139>
LayerCount: 2
Fore
SplineSet
103 316 m 2xe0
 104 321 107.5 343.5 107.5 348.5 c 0
 107.5 357.5 105 371.5 95 371.5 c 0
 73.5 371.5 27.5 316.5 24.5 312 c 1
 19.5 312 12.5 329 12.5 335 c 1
 26.5 360.5 102.5 442 153 442 c 0
 183.5 442 206 418.5 206 380.5 c 0xd0
 206 369.5 201 339.5 198 324 c 1
 154 119 l 2
 152.5 112 150 91.5 150 86.5 c 0
 150 77.5 152 63.5 162 63.5 c 0
 183.5 63.5 229.5 118.5 232.5 123 c 1
 237.5 123 244.5 106 244.5 100 c 1
 230.5 74.5 150 -7 99.5 -7 c 0
 72.5 -7 51 14 51 54.5 c 0
 51 65.5 56 96.5 59 111 c 1
 103 316 l 2xe0
EndSplineSet
Validated: 524289
EndChar

StartChar: Amacron
Encoding: 256 256 234
Width: 614
VWidth: 512
Flags: W
HStem: -3.5 32.5<-33.0042 21.3088 109.204 161.195 346.837 407.167 541.268 584.599> 238.5 45<221.766 382.765> 642.5 20<408.766 416.016> 734 41<303.026 551.924>
LayerCount: 2
Fore
SplineSet
543.266 734 m 1
 451.304 734 303.766 734 303.766 734 c 1
 303.766 734 300.766 737 300.766 743 c 0
 300.766 750 308.266 775 313.446 775 c 2
 548.946 775 l 2
 550.946 775 553.766 772 553.766 768 c 0
 553.766 762.951 551.266 743 543.266 734 c 1
EndSplineSet
Refer: 32 65 N 1 0 0 1 -0.000255585 0 3
Validated: 524289
EndChar

StartChar: Scaron
Encoding: 352 352 235
Width: 464
VWidth: 512
Flags: W
HStem: -10 40.5<126.673 254.747> 629.5 38.5<239.962 357.379>
VStem: 21.3985 37.5<113.355 193.431>
LayerCount: 2
Fore
SplineSet
280.898 825 m 1
 298.398 839.5 334.398 862 343.898 863 c 1
 355.398 861 387.398 837.5 402.898 822.5 c 1
 423.898 833 443.898 838 439.898 826 c 1
 434.898 817 426.398 801.5 418.898 791.5 c 1
 391.898 773.5 353.898 746 337.898 734 c 0
 332.898 731.5 329.398 730.5 325.398 733.5 c 0
 318.898 742 311.398 752 303.898 761 c 0
 283.898 785 285.898 782.5 280.898 789 c 1
 271.398 802 285.898 797 287.398 799 c 0
 282.898 810 283.398 822 280.898 825 c 1
EndSplineSet
Refer: 50 83 N 1 0 0 1 -0.000415802 0 3
Validated: 524321
EndChar

StartChar: uni0304
Encoding: 772 772 236
Width: 352
Flags: W
HStem: 551.5 41<166.76 395.158>
VStem: 164.5 232.5<551.93 592.5>
LayerCount: 2
Fore
SplineSet
386.5 551.5 m 1
 294.538 551.5 167.5 551.5 167.5 551.5 c 1
 167.5 551.5 164.5 554.5 164.5 560.5 c 0
 164.5 567.5 172 592.5 177.18 592.5 c 2
 392.18 592.5 l 2
 394.18 592.5 397 589.5 397 585.5 c 0
 397 580.451 394.5 560.5 386.5 551.5 c 1
EndSplineSet
Validated: 524289
EndChar

StartChar: uni0305
Encoding: 773 773 237
Width: 526
Flags: W
HStem: 736.5 67.5<141.264 682.561>
LayerCount: 2
Fore
SplineSet
130.704 746.5 m 0
 130.704 748.5 144.704 804 154.704 804 c 2
 696.204 804 l 2
 698.204 804 701.704 803 699.704 795 c 0
 696.704 777 684.704 747.5 682.704 743.5 c 0
 679.704 737.5 673.704 736.5 673.704 736.5 c 1
 134.704 736.5 l 1
 134.704 736.5 128.704 736.5 130.704 746.5 c 0
EndSplineSet
Validated: 524289
EndChar

StartChar: uni0306
Encoding: 774 774 238
Width: 231
Flags: W
HStem: 520 51<173.703 276.449>
VStem: 134.092 23<600.595 637.994> 319.092 18<621 639.513>
LayerCount: 2
Fore
SplineSet
225.092 571 m 0
 263.092 571 301.092 595 319.092 638 c 0
 319.092 640 321.092 641 323.092 641 c 0
 329.092 641 338.092 633 337.092 628 c 0
 337.092 627 335.092 622 335.092 620 c 0
 316.092 567 265.092 520 215.092 520 c 0
 165.092 520 131.092 564 134.092 621 c 0
 134.092 623 135.092 627 135.092 628 c 0
 136.092 633 148.092 641 154.092 641 c 0
 156.092 641 157.092 640 157.092 638 c 0
 158.092 595 190.092 571 225.092 571 c 0
EndSplineSet
Validated: 524321
EndChar

StartChar: uni0307
Encoding: 775 775 239
Width: 252
Flags: W
HStem: 520.5 119<208.306 279.4>
VStem: 189.456 109.5<539.611 620.41>
LayerCount: 2
Fore
SplineSet
189.456 581 m 0
 195.456 613.5 225.456 639.5 255.956 639.5 c 1
 285.956 639.5 304.956 613.5 298.956 581 c 0
 292.956 548.5 263.956 520.5 233.456 520.5 c 1
 202.456 520.5 183.456 548.5 189.456 581 c 0
EndSplineSet
Validated: 524321
EndChar

StartChar: uni0308
Encoding: 776 776 240
Width: 325
Flags: W
HStem: 468 115.5<141.185 212.062 313.891 384.451>
VStem: 122.438 108.001<486.94 564.287> 294.939 108.5<487.213 564.287>
LayerCount: 2
Fore
SplineSet
361.439 583.5 m 1
 390.939 583.5 409.439 557 403.439 525.5 c 0
 397.439 494 367.439 468 337.939 468 c 1
 308.439 468 288.939 494.5 294.939 526 c 0
 300.939 557.5 331.939 583.5 361.439 583.5 c 1
187.939 583.5 m 1
 217.439 583.5 236.439 557 230.439 525.5 c 0
 224.439 494 194.939 468 165.439 468 c 1
 135.939 468 116.438 494.5 122.438 526 c 0
 128.439 557.5 158.439 583.5 187.939 583.5 c 1
EndSplineSet
Validated: 524321
EndChar

StartChar: hookabovecomb
Encoding: 777 777 241
Width: 165
Flags: W
HStem: 631 33.5<187.998 253.238>
VStem: 128.548 51.5<576.016 625.442>
LayerCount: 2
Fore
SplineSet
235.048 664.5 m 0
 270.548 664.5 287.548 641.5 281.548 610 c 0
 275.048 575 245.548 550.5 220.548 540 c 0
 200.548 531.5 190.548 526.5 188.048 514 c 0
 187.048 509 188.548 503.5 189.548 500.5 c 1
 188.548 496.5 170.548 489 161.548 489 c 1
 157.048 491.5 143.548 502.5 146.048 514 c 0
 151.048 540.5 180.048 553 196.548 560.5 c 0
 218.048 570 232.048 582 235.548 600 c 0
 238.048 614 235.548 631 217.548 631 c 0
 197.548 631 184.548 618 180.048 595 c 0
 177.048 579 155.548 574 143.548 574 c 0
 136.048 574 127.048 578.5 128.548 587 c 0
 137.048 629.5 192.048 664.5 235.048 664.5 c 0
EndSplineSet
Validated: 524321
EndChar

StartChar: uni030A
Encoding: 778 778 242
Width: 324
Flags: W
HStem: 506 39.5<229.143 305.26> 655 39<243.197 319.455>
VStem: 186.964 173.5
LayerCount: 2
Fore
SplineSet
223.964 600.5 m 0
 217.964 570 235.464 545.5 263.464 545.5 c 0
 291.464 545.5 318.464 570 324.464 600.5 c 0
 330.464 631 312.964 655 284.964 655 c 0
 256.964 655 229.964 631 223.964 600.5 c 0
186.964 600.5 m 0
 196.964 652 245.464 694 292.964 694 c 0
 340.464 694 370.464 652 360.464 600.5 c 0
 350.464 549 303.464 506 255.964 506 c 0
 208.464 506 176.964 549 186.964 600.5 c 0
EndSplineSet
Validated: 524321
EndChar

StartChar: uni030B
Encoding: 779 779 243
Width: 311
Flags: W
HStem: 517.5 145.5<273 276>
VStem: 122.5 316.5
LayerCount: 2
Fore
SplineSet
273 517.5 m 1
 269.5 519 264.5 525 264 531 c 1
 265.5 540 332 626.5 368.5 657 c 0
 373 660.5 382 663 393 663 c 0
 417.5 663 439 648.5 439 630 c 0
 439 593 283.5 517.5 273 517.5 c 1
131.5 517.5 m 1
 128 519 123 525 122.5 531 c 1
 124 540 190.5 626.5 227 657 c 0
 231.5 660.5 240.5 663 251.5 663 c 0
 276 663 297.5 648.5 297.5 630 c 0
 297.5 593 142 517.5 131.5 517.5 c 1
EndSplineSet
Validated: 524289
EndChar

StartChar: uni030C
Encoding: 780 780 244
Width: 374
VWidth: 512
Flags: W
LayerCount: 2
Fore
SplineSet
263.5 637 m 1
 258 637 227 609 217 590 c 1
 222 584.5 247 561 258.5 547.5 c 1
 275 562.5 303 583.5 312.5 590 c 1
 312 597.5 294 626 284 636 c 1
 264 619 237.5 593.5 229 580 c 1
 231.5 577 249.5 554.5 257.5 541.5 c 1
 270.5 553.5 298.5 577.5 302 580 c 1
 296 592 276.5 623.5 263.5 637 c 1
EndSplineSet
Validated: 524293
EndChar

StartChar: uni0312
Encoding: 786 786 245
Width: 139
Flags: W
HStem: 465.5 171<180.624 188.889>
VStem: 107 112.5<483.777 546.543>
LayerCount: 2
Fore
SplineSet
219.5 515.5 m 0
 219.5 481.5 161.5 465.5 119.5 465.5 c 1
 108 476 107 494.5 107 509.5 c 0
 107 561 180.5 622 219 635.5 c 1
 220 636 222 636.5 224.5 636.5 c 0
 234 636.5 244 631 244 626 c 0
 244 621.5 194 602 190 569 c 0
 187 543 219.5 542 219.5 515.5 c 0
EndSplineSet
Validated: 524321
EndChar

StartChar: uni0315
Encoding: 789 789 246
Width: 139
Flags: W
VStem: 126 112
LayerCount: 2
Fore
SplineSet
133.5 534 m 0
 133.5 556 180.5 585.5 200.5 605.5 c 1
 202.5 612.5 192.5 611.5 192.5 620 c 0
 192.5 644.5 220 642 238 635.5 c 1
 234.5 610 205 572.5 192.5 560 c 0
 192 553 189.5 545 187 537.5 c 0
 178.5 505.5 146.5 475 126 465.5 c 1
 126 467.5 148 479 148 502.5 c 1
 145 508 133.5 521.5 133.5 534 c 0
EndSplineSet
Validated: 524321
EndChar

StartChar: dotbelowcomb
Encoding: 803 803 247
Width: 261
Flags: W
HStem: -162 124<80.1483 152.308>
VStem: 58.4781 115.5<-140.679 -59.3206>
LayerCount: 2
Fore
SplineSet
58.4781 -100 m 0
 64.9781 -65.5 96.4781 -38 128.478 -38 c 0
 160.478 -38 180.478 -65.5 173.978 -100 c 0
 167.478 -134.5 135.978 -162 103.978 -162 c 0
 71.9781 -162 51.9781 -134.5 58.4781 -100 c 0
EndSplineSet
Validated: 524321
EndChar

StartChar: uni0326
Encoding: 806 806 248
Width: 139
Flags: W
HStem: -205.5 171<38.1107 46.3762>
VStem: 7.5 112.5<-115.543 -52.7768>
LayerCount: 2
Fore
SplineSet
7.5 -84.5 m 0
 7.5 -50.5 65.5 -34.5 107.5 -34.5 c 1
 119 -45 120 -63.5 120 -78.5 c 0
 120 -130 46.5 -191 8 -204.5 c 1
 7 -205 5 -205.5 2.5 -205.5 c 0
 -7 -205.5 -17 -200 -17 -195 c 0
 -17 -190.5 33 -171 37 -138 c 0
 40 -112 7.5 -111 7.5 -84.5 c 0
EndSplineSet
Validated: 524321
EndChar

StartChar: uni0327
Encoding: 807 807 249
Width: 403
Flags: W
HStem: -154 28<122.032 200.733> -64 36.5<198.222 210.831> -23 20G<188.222 217.722>
VStem: 115.222 139.5
LayerCount: 2
Fore
SplineSet
198.222 -27.5 m 1
 198.222 -27.5 215.222 -27 218.722 -27 c 1
 244.222 -27 259.722 -51 254.722 -77 c 0
 245.722 -124 203.222 -154 150.722 -154 c 0
 135.222 -154 120.222 -147 115.222 -141.5 c 1
 115.222 -137.5 114.722 -131 115.722 -126 c 0
 116.722 -119 123.722 -112 128.222 -112 c 0
 136.222 -112 148.222 -126 165.722 -126 c 0
 191.722 -126 207.222 -110.5 210.222 -95 c 0
 214.222 -76 204.722 -64 190.722 -64 c 0
 182.722 -64 173.222 -66.5 163.222 -70.5 c 0
 161.222 -70.5 151.722 -60 154.722 -56 c 0
 165.722 -41 183.222 -17 193.222 -3 c 1
 217.722 -3 l 1
 198.222 -27.5 l 1
EndSplineSet
Validated: 524321
EndChar

StartChar: Obreve
Encoding: 334 334 256
Width: 682
VWidth: 512
Flags: W
HStem: -10.5 39.5<256.735 400.432> 626.5 39.5<335.693 471.366> 728 51.5<381.976 488.91>
VStem: 55 119<153.692 402.639> 345.01 23<804.515 840.081> 529.51 18.5<824.285 841.258> 556.5 119<247.542 501.501>
LayerCount: 2
Fore
SplineSet
438.01 779.5 m 0
 474.51 779.5 512.51 800 529.51 840 c 0
 529.51 842 532.01 842.5 534.01 842.5 c 0
 540.01 842.5 549.01 835 548.01 830.5 c 0
 548.01 829.5 546.01 825 546.01 823 c 0
 528.01 773.5 477.01 728 427.01 728 c 0
 377.01 728 343.01 770.5 345.01 824 c 0
 345.01 826 345.51 829.5 345.51 830.5 c 0
 346.51 835 358.51 842.5 364.51 842.5 c 0
 366.51 842.5 368.01 842 368.01 840 c 0
 369.51 800 397.51 779.5 438.01 779.5 c 0
EndSplineSet
Refer: 46 79 N 1 0 0 1 0 0 3
Validated: 524321
EndChar

StartChar: Aogonek
Encoding: 260 260 260
Width: 614
Flags: W
HStem: -224 60.5<311.016 390.783> -3.5 32.5<-33.0039 21.3091 109.204 161.195> 238.5 45<221.766 382.765> 642.5 20G<408.766 416.016>
VStem: 272.766 57.5<-182.5 -99.4208>
LayerCount: 2
Fore
SplineSet
496.266 2 m 0
 410.266 2 330.266 -81.5 330.266 -130.5 c 0
 330.266 -150 338.766 -163.5 363.766 -163.5 c 0
 408.266 -163.5 435.766 -129 442.266 -126.5 c 1
 449.766 -127.5 443.344 -151.173 440.766 -154.5 c 0
 416.266 -188.5 370.266 -224 328.266 -224 c 0
 293.766 -224 272.766 -196 272.766 -169 c 0
 272.766 -108.5 325.766 -55 369.766 -9 c 0
 394.266 16.5 416.266 28 416.266 67 c 0
 416.266 90.5 391.266 233.5 391.266 233.5 c 1
 391.266 233.5 389.766 237.5 386.766 237.5 c 0
 357.266 239.5 318.266 238.5 295.266 238.5 c 0
 257.266 238.5 235.266 238.5 197.766 236.5 c 0
 195.266 236.5 191.266 233.5 190.766 232.5 c 1
 190.766 232.5 152.766 168 132.766 130 c 0
 116.766 100 104.766 70.5 102.766 60.5 c 0
 97.7661 35.5 156.766 29.5 163.766 29.5 c 1
 166.766 24.5 161.766 1.5 158.266 -3.5 c 1
 123.766 -0.5 105.266 3 64.2661 3 c 0
 21.2661 3 2.2661 -0.5 -35.7339 -3.5 c 1
 -38.2339 0 -35.2339 20 -30.2339 29 c 1
 -19.2339 29 21.7661 40 33.7661 54.5 c 0
 56.2661 81.5 69.2661 104.5 87.7661 136.5 c 2
 372.766 629 l 2
 381.266 643.5 404.266 662.5 413.266 662.5 c 0
 418.766 662.5 422.766 659.5 424.766 657.5 c 1
 424.766 657.5 517.766 114 519.766 104 c 1
 525.266 76.5 548.266 61.5 553.766 51 c 1
 559.266 27 582.266 16.5 584.766 15 c 1
 567.766 11.5 534.766 2 496.266 2 c 0
345.766 505.5 m 1
 221.766 290 l 1
 221.766 290 221.766 286 223.766 286 c 0
 244.766 284.5 280.266 283.5 301.266 283.5 c 0
 330.266 283.5 349.766 284 378.766 286 c 0
 380.766 286 382.766 291 382.766 291 c 1
 345.766 505.5 l 1
EndSplineSet
Validated: 524321
EndChar

StartChar: aogonek
Encoding: 261 261 261
Width: 450
Flags: W
HStem: -224 60.5<210.75 290.517> -6 73<71 156.859> 394.5 47.5<220.361 325.25>
VStem: 11 100<74.5765 223.751> 172.5 57.5<-183.5 -102.129> 236 98.5<26.5469 161.515>
LayerCount: 2
Fore
SplineSet
256.5 394.5 m 0
 184 394.5 111 268 111 151.5 c 0
 111 96.5 126 67 154.5 67 c 0
 196.5 67 257 180 276.5 277.5 c 2
 297 381 l 1
 289 390 270 394.5 256.5 394.5 c 0
429 100 m 1
 421.5 86 391.5 54.5 361 29.5 c 0
 312 -10.5 230 -77.5 230 -130.5 c 0
 230 -150 238.5 -163.5 263.5 -163.5 c 0
 308 -163.5 335.5 -129 342 -126.5 c 1
 349.5 -127.5 343.078 -151.173 340.5 -154.5 c 0
 316 -188.5 270 -224 228 -224 c 0
 193.5 -224 172.5 -197 172.5 -170 c 0
 172.5 -112.5 228.5 -51.5 273 -5.5 c 1
 250.5 -0.5 236 20 236 52 c 0
 236 58 238 74 240.5 88 c 0
 242.5 101 244 107.5 245 113 c 1
 224.5 76.5 157.5 -6 98.5 -6 c 0
 43.5 -6 11 45 11 114 c 0
 11 290.5 183 442 307.5 442 c 0
 343 442 380.5 433.5 400 426.5 c 1
 338.5 119 l 2
 337.5 115 334.5 91.5 334.5 86.5 c 0
 334.5 77.5 336.5 63.5 346.5 63.5 c 0
 368 63.5 414 118.5 417 123 c 1
 422 123 429 106 429 100 c 1
EndSplineSet
Validated: 524289
EndChar

StartChar: Cacute
Encoding: 262 262 262
Width: 617
VWidth: 512
Flags: W
HStem: -7.5 40<262.886 425.859> 627.5 39<333.771 494.743>
VStem: 34.5 119.5<161.881 400.422> 567 32.5<483.003 550.389>
LayerCount: 2
Fore
SplineSet
403 719.5 m 1
 399 720.5 392 726 392 732.5 c 1
 392 739.5 457.5 800.5 494.5 822.5 c 0
 500.5 825.5 508.5 827.5 519 827.5 c 0
 549.5 827.5 583 817.5 583 796.5 c 0
 583 769.5 419.5 719.5 403 719.5 c 1
EndSplineSet
Refer: 34 67 N 1 0 0 1 0 0 3
Validated: 524289
EndChar

StartChar: Ccircumflex
Encoding: 264 264 263
Width: 617
VWidth: 512
Flags: W
HStem: -7.5 40<262.886 425.859> 627.5 39<333.771 494.743>
VStem: 34.5 119.5<161.881 400.422> 567 32.5<483.003 550.389>
LayerCount: 2
Fore
SplineSet
559.5 747 m 1
 557.5 739 551.5 731.5 543.833 729.5 c 1
 528 733.5 468.333 767.5 437.333 789 c 1
 396.333 765.5 329 734.5 304.833 729.5 c 1
 298.5 732.5 297.833 746 298.833 750 c 1
 345.5 780.5 415 831 440.333 854.5 c 0
 445.955 859.547 451.5 863.5 456 863.5 c 0
 460.5 863.5 464.306 858.593 468 854.5 c 0
 486.5 833 532.5 775.5 559.5 747 c 1
EndSplineSet
Refer: 34 67 N 1 0 0 1 0 0 3
Validated: 524289
EndChar

StartChar: Cdotaccent
Encoding: 266 266 265
Width: 617
VWidth: 512
Flags: W
HStem: -7.5 40<262.886 425.859> 627.5 39<333.771 494.743> 729 119<406.306 477.4>
VStem: 34.5 119.5<161.881 400.422> 387.456 109.5<748.111 828.91> 567 32.5<483.003 550.389>
LayerCount: 2
Fore
SplineSet
387.456 789.5 m 0
 393.456 822 423.456 848 453.956 848 c 1
 483.956 848 502.956 822 496.956 789.5 c 0
 490.956 757 461.956 729 431.456 729 c 1
 400.456 729 381.456 757 387.456 789.5 c 0
EndSplineSet
Refer: 34 67 N 1 0 0 1 0 0 3
Validated: 524321
EndChar

StartChar: Ccaron
Encoding: 268 268 267
Width: 617
VWidth: 512
Flags: W
HStem: -7.5 40<262.886 425.859> 627.5 39<333.771 494.743>
VStem: 34.5 119.5<161.881 400.422> 567 32.5<483.003 550.389>
LayerCount: 2
Fore
SplineSet
386 823.5 m 1
 403.5 838 439.5 860.5 449 861.5 c 1
 460.5 859.5 492.5 836 508 821 c 1
 529 831.5 549 836.5 545 824.5 c 1
 540 815.5 531.5 800 524 790 c 1
 497 772 459 744.5 443 732.5 c 0
 438 730 434.5 729 430.5 732 c 0
 424 740.5 416.5 750.5 409 759.5 c 0
 389 783.5 391 781 386 787.5 c 1
 376.5 800.5 391 795.5 392.5 797.5 c 0
 388 808.5 388.5 820.5 386 823.5 c 1
EndSplineSet
Refer: 34 67 N 1 0 0 1 0 0 3
Validated: 524321
EndChar

StartChar: Dcaron
Encoding: 270 270 269
Width: 687
VWidth: 512
Flags: W
HStem: -3 38.5<-4.29082 65.1128 181.573 354.095> 622 37<115.47 172.454 284.756 436.306>
LayerCount: 2
Fore
SplineSet
324.728 823.5 m 1
 342.228 838 378.228 860.5 387.728 861.5 c 1
 399.228 859.5 431.228 836 446.728 821 c 1
 467.728 831.5 487.728 836.5 483.728 824.5 c 1
 478.728 815.5 470.228 800 462.728 790 c 1
 435.728 772 397.728 744.5 381.728 732.5 c 0
 376.728 730 373.228 729 369.228 732 c 0
 362.728 740.5 355.228 750.5 347.728 759.5 c 0
 327.728 783.5 329.728 781 324.728 787.5 c 1
 315.228 800.5 329.728 795.5 331.228 797.5 c 0
 326.728 808.5 327.228 820.5 324.728 823.5 c 1
EndSplineSet
Refer: 35 68 N 1 0 0 1 0.000434875 0 3
Validated: 524321
EndChar

StartChar: Emacron
Encoding: 274 274 271
Width: 549
VWidth: 512
Flags: W
HStem: -3 33<-7.93375 61.3144> -1.1447 40.6447<181.132 387.082> 311 42<234.6 373.849> 620.5 36.5<283.346 477.044> 628 33<116.102 170.815> 734 41<234.076 482.974>
VStem: 391.316 29<232.106 273.411> 508.316 32.501<517.239 582.65>
LayerCount: 2
Fore
SplineSet
474.316 734 m 1x27
 382.354 734 234.816 734 234.816 734 c 1
 234.816 734 231.816 737 231.816 743 c 0
 231.816 750 239.316 775 244.496 775 c 2
 479.996 775 l 2
 481.996 775 484.816 772 484.816 768 c 0
 484.816 762.951 482.316 743 474.316 734 c 1x27
EndSplineSet
Refer: 36 69 N 1 0 0 1 -0.000159264 0 3
Validated: 524289
EndChar

StartChar: Ebreve
Encoding: 276 276 273
Width: 549
VWidth: 512
Flags: W
HStem: -3 33<-7.93375 61.3144> -1.1447 40.6447<181.132 387.082> 311 42<234.6 373.849> 620.5 36.5<283.346 477.044> 628 33<116.102 170.815> 728 51.5<299.292 406.226>
VStem: 262.326 23<804.515 840.081> 391.316 29<232.106 273.411> 446.826 18.5<824.285 841.258> 508.316 32.501<517.239 582.65>
LayerCount: 2
Fore
SplineSet
355.326 779.5 m 0x27c0
 391.826 779.5 429.826 800 446.826 840 c 0
 446.826 842 449.326 842.5 451.326 842.5 c 0
 457.326 842.5 466.326 835 465.326 830.5 c 0
 465.326 829.5 463.326 825 463.326 823 c 0
 445.326 773.5 394.326 728 344.326 728 c 0
 294.326 728 260.326 770.5 262.326 824 c 0
 262.326 826 262.826 829.5 262.826 830.5 c 0
 263.826 835 275.826 842.5 281.826 842.5 c 0
 283.826 842.5 285.326 842 285.326 840 c 0
 286.826 800 314.826 779.5 355.326 779.5 c 0x27c0
EndSplineSet
Refer: 36 69 N 1 0 0 1 -0.000159264 0 3
Validated: 524321
EndChar

StartChar: Edotaccent
Encoding: 278 278 275
Width: 549
VWidth: 512
Flags: W
HStem: -3 33<-7.93375 61.3144> -1.1447 40.6447<181.132 387.082> 311 42<234.6 373.849> 620.5 36.5<283.346 477.044> 628 33<116.102 170.815> 729 119<337.122 408.216>
VStem: 318.272 109.5<748.111 828.91> 391.316 29<232.106 273.411> 508.316 32.501<517.239 582.65>
LayerCount: 2
Fore
SplineSet
318.272 789.5 m 0x2680
 324.272 822 354.272 848 384.772 848 c 1
 414.772 848 433.772 822 427.772 789.5 c 0
 421.772 757 392.772 729 362.272 729 c 1
 331.272 729 312.272 757 318.272 789.5 c 0x2680
EndSplineSet
Refer: 36 69 N 1 0 0 1 -0.000159264 0 3
Validated: 524321
EndChar

StartChar: Eogonek
Encoding: 280 280 277
Width: 599
Flags: W
HStem: -224 60.5<248.566 328.333> -3 42.5<181.132 330.419> -3 33<-7.9336 61.3146> 311 42<234.6 373.85> 620.5 36.5<283.346 477.045> 628 33<116.102 170.816>
VStem: 210.316 57.5<-183.5 -99.6794> 391.316 29<232.106 273.411> 508.316 32.501<517.239 582.65>
LayerCount: 2
Fore
SplineSet
210.316 -170 m 0xb380
 210.316 -114 267.816 -30.5 331.316 -2 c 1
 267.03 -1.5 186.478 -0.63739 111.316 -0.840151 c 0
 56.0395 -1.02419 13.764 -2.7621 -10.1836 -3 c 1
 -13.6836 2.5 -9.6836 24 -4.18359 30 c 1
 7.31641 30.5 55.3164 34.5 61.3164 46.5 c 0
 70.8164 64.5 76.3164 94 83.3164 130.5 c 2
 160.816 528 l 2
 167.816 564.5 173.816 594 170.816 612 c 0
 169.316 624 123.316 627.5 111.816 628 c 1
 108.816 634 113.316 655.5 118.816 661 c 1xb780
 158.316 658.5 201.816 657 239.316 657 c 0
 302.316 657 463.316 663.5 541.317 664 c 1
 538.317 614 540.817 567 540.817 522 c 1
 537.817 519 527.317 517 520.317 517 c 0
 513.317 517 508.816 519.5 508.316 524.5 c 0
 501.316 592 475.316 620.5 422.316 620.5 c 2
 343.816 620.5 l 2
 327.816 620.5 292.316 619.5 286.316 609 c 0
 278.816 595 274.816 571 269.316 543 c 2
 233.816 361.5 l 2
 232.816 356 252.316 353 272.316 353 c 2
 321.316 353 l 2
 393.316 353 399.816 362 427.316 424 c 0
 429.316 429 434.316 431.5 441.316 431.5 c 0
 448.316 431.5 454.816 429.5 456.816 426.5 c 1
 420.316 236 l 1
 418.316 234 410.316 232 403.316 232 c 0
 396.316 232 391.816 235 391.316 240 c 0
 388.816 292.5 381.816 298.5 374.316 303.5 c 0
 364.816 309.5 326.316 311 291.316 311 c 0
 265.316 311 223.816 310 221.816 299.5 c 2
 188.316 128.5 l 2
 186.316 118 176.316 67 180.816 54.5 c 0
 187.316 42.5 209.316 39.5 240.816 39.5 c 2
 293.816 39.5 l 2xdb80
 328.816 39.5 373.316 49 401.316 68 c 0
 423.316 83.5 449.316 117 474.316 166 c 0
 476.316 170 482.316 172 489.316 172 c 0
 498.316 172 511.316 169 513.317 166 c 1
 485.316 112 445.316 41 430.316 -3 c 1
 347.816 -3 267.816 -79 267.816 -130.5 c 0
 267.816 -150 276.316 -163.5 301.316 -163.5 c 0
 345.816 -163.5 373.316 -129 379.816 -126.5 c 1
 387.316 -127.5 380.894 -151.173 378.316 -154.5 c 0
 353.816 -188.5 307.816 -224 265.816 -224 c 0
 231.316 -224 210.316 -197 210.316 -170 c 0xb380
EndSplineSet
Validated: 524321
EndChar

StartChar: eogonek
Encoding: 281 281 278
Width: 365
Flags: W
HStem: -224 60.5<72.7539 152.521> -6 71<90.504 190.266> 190.5 31.5<119.004 161.399> 403 39<192.85 290.504>
VStem: 13.5039 101<83.5899 189.216> 35.0039 57<-162.342 -106.278> 257.004 96.5<303.855 400.668>
LayerCount: 2
Fore
SplineSet
119.004 222 m 1xf2
 158.004 222 257.004 289.5 257.004 363.5 c 0
 257.004 390.5 243.504 403 223.004 403 c 0
 164.504 403 124.004 273 119.004 222 c 1xf2
35.0039 -170 m 0xf6
 34.5039 -116.5 105.504 -39.5 139.004 -5 c 1
 134.004 -6 131.004 -6 126.004 -6 c 0
 55.0039 -6 13.5039 46.5 13.5039 139.5 c 0
 13.5039 287.5 150.004 442 265.004 442 c 0
 316.004 442 353.504 415 353.504 365 c 0
 353.504 265.5 178.504 190.5 116.504 190.5 c 1
 115.504 187.5 114.504 167 114.504 162 c 0xfa
 114.504 113 129.504 65 179.504 65 c 0
 224.504 65 278.504 129 281.504 132 c 1
 287.504 132 295.004 113 295.004 107 c 1
 289.504 97.5 270.004 77 243.004 53.5 c 0
 182.004 0.5 92.0039 -83 92.0039 -130.5 c 0
 92.0039 -150 100.504 -163.5 125.504 -163.5 c 0
 170.004 -163.5 197.504 -129 204.004 -126.5 c 1
 211.504 -127.5 205.082 -151.173 202.504 -154.5 c 0
 178.004 -188.5 132.004 -224 90.0039 -224 c 0
 55.5039 -224 35.0039 -197 35.0039 -170 c 0xf6
EndSplineSet
Validated: 524321
EndChar

StartChar: Ecaron
Encoding: 282 282 279
Width: 549
VWidth: 512
Flags: W
HStem: -3 33<-7.93375 61.3144> -1.1447 40.6447<181.132 387.082> 311 42<234.6 373.849> 620.5 36.5<283.346 477.044> 628 33<116.102 170.815>
VStem: 391.316 29<232.106 273.411> 508.316 32.501<517.239 582.65>
LayerCount: 2
Fore
SplineSet
312.316 823.5 m 1x26
 329.816 838 365.816 860.5 375.316 861.5 c 1
 386.816 859.5 418.816 836 434.316 821 c 1
 455.316 831.5 475.316 836.5 471.316 824.5 c 1
 466.316 815.5 457.816 800 450.316 790 c 1
 423.316 772 385.316 744.5 369.316 732.5 c 0
 364.316 730 360.816 729 356.816 732 c 0
 350.316 740.5 342.816 750.5 335.316 759.5 c 0
 315.316 783.5 317.316 781 312.316 787.5 c 1
 302.816 800.5 317.316 795.5 318.816 797.5 c 0
 314.316 808.5 314.816 820.5 312.316 823.5 c 1x26
EndSplineSet
Refer: 36 69 N 1 0 0 1 -0.000159264 0 3
Validated: 524321
EndChar

StartChar: Gcircumflex
Encoding: 284 284 281
Width: 638
VWidth: 512
Flags: W
HStem: -7.5 40<261.589 421.529> 269.5 33<401.891 460.848 581.42 640.284> 627.5 39<342.719 502.018>
VStem: 34.5 119.5<161.881 400.422> 463 80.5<107.562 213.47> 567 32.5<483.003 556.132>
LayerCount: 2
Fore
SplineSet
571 745.5 m 1
 569 737.5 563 730 555.333 728 c 1
 539.5 732 479.833 766 448.833 787.5 c 1
 407.833 764 340.5 733 316.333 728 c 1
 310 731 309.333 744.5 310.333 748.5 c 1
 357 779 426.5 829.5 451.833 853 c 0
 457.455 858.047 463 862 467.5 862 c 0
 472 862 475.806 857.093 479.5 853 c 0
 498 831.5 544 774 571 745.5 c 1
EndSplineSet
Refer: 38 71 N 1 0 0 1 0 0 3
Validated: 524289
EndChar

